# Blender v3.0.0 OBJ File: 'Computer.blend'
# www.blender.org
o Cube
v 0.960544 1.791934 -0.311113
v 0.960544 0.173456 -0.311113
v 0.960544 1.791934 0.287463
v 0.960544 0.173456 0.287463
v -0.995276 2.026126 -0.440360
v -0.995276 -0.060737 -0.440360
v -0.995276 2.026126 0.416710
v -0.995276 -0.060737 0.416710
v 0.960544 2.026126 -0.440360
v 0.960544 -0.060737 -0.440360
v 0.960544 2.026126 0.416710
v 0.960544 -0.060737 0.416710
v 0.932741 1.647696 -0.272130
v 0.932741 1.517475 -0.272130
v 0.932741 1.647696 0.238530
v 0.932741 1.517475 0.238530
v 0.932741 1.791934 -0.311113
v 0.932741 0.173456 -0.311113
v 0.932741 1.791934 0.287463
v 0.932741 0.173456 0.287463
v 0.831111 1.647696 -0.272130
v 0.831111 1.517475 -0.272130
v 0.831111 1.647696 0.238530
v 0.831111 1.517475 0.238530
vt 0.968846 0.500000
vt 0.706112 0.000000
vt 0.968846 0.000000
vt 0.353056 0.500000
vt 0.353056 0.000000
vt 0.262734 0.500000
vt 0.525468 0.794432
vt 0.262734 0.794432
vt 0.000000 0.500000
vt 0.262734 1.000000
vt 0.000000 1.000000
vt 0.997264 0.653024
vt 0.988741 0.500000
vt 0.997264 0.500000
vt 0.000000 0.500000
vt 0.353056 0.000000
vt 0.353056 0.500000
vt 0.565089 0.761390
vt 0.525468 0.500000
vt 0.565089 0.533042
vt 0.748581 0.533042
vt 0.788202 0.794432
vt 0.748581 0.761390
vt 0.788202 0.500000
vt 0.525468 0.794432
vt 1.000000 0.261098
vt 0.968846 0.130549
vt 1.000000 0.130549
vt 0.980218 0.728348
vt 0.971695 0.500000
vt 0.980218 0.500000
vt 0.997264 0.806048
vt 0.988741 0.653024
vt 0.997264 0.653024
vt 0.980218 0.500000
vt 0.988741 0.728348
vt 0.980218 0.728348
vt 0.959745 0.689625
vt 0.971695 0.728348
vt 0.959745 0.707998
vt 0.803202 0.689625
vt 0.788202 0.728348
vt 0.788202 0.500000
vt 0.803202 0.707998
vt 0.971695 0.500000
vt 0.968846 0.391647
vt 0.990876 0.261098
vt 0.990876 0.391647
vt 0.788202 0.754330
vt 0.810233 0.728348
vt 0.810233 0.754330
vt 0.968846 0.000000
vt 1.000000 0.130549
vt 0.968846 0.130549
vt 0.832264 0.728348
vt 0.810233 0.754330
vt 0.810233 0.728348
vt 0.706112 0.500000
vt 0.525468 0.500000
vt 0.262734 0.500000
vt 0.988741 0.653024
vt 0.000000 0.000000
vt 0.968846 0.261098
vt 0.971695 0.728348
vt 0.988741 0.806048
vt 0.988741 0.500000
vt 0.968846 0.261098
vt 0.788202 0.728348
vt 1.000000 0.000000
vt 0.832264 0.754330
vn 0.0000 1.0000 0.0000
vn 0.0000 0.0000 1.0000
vn -1.0000 0.0000 0.0000
vn 0.0000 -1.0000 0.0000
vn 0.0000 0.0000 -1.0000
vn 1.0000 0.0000 0.0000
s off
f 5/1/1 11/2/1 9/3/1
f 11/2/2 8/4/2 12/5/2
f 7/6/3 6/7/3 8/8/3
f 10/9/4 8/10/4 6/11/4
f 2/12/1 20/13/1 4/14/1
f 5/15/5 10/16/5 6/17/5
f 2/18/6 9/19/6 1/20/6
f 3/21/6 12/22/6 4/23/6
f 1/20/6 11/24/6 3/21/6
f 4/23/6 10/25/6 2/18/6
f 14/26/1 24/27/1 16/28/1
f 4/29/5 19/30/5 3/31/5
f 3/32/4 17/33/4 1/34/4
f 1/35/2 18/36/2 2/37/2
f 14/38/6 17/39/6 13/40/6
f 16/41/6 19/42/6 20/43/6
f 15/44/6 17/39/6 19/42/6
f 16/41/6 18/45/6 14/38/6
f 21/46/6 24/47/6 22/48/6
f 16/49/5 23/50/5 15/51/5
f 15/52/4 21/53/4 13/54/4
f 13/55/2 22/56/2 14/57/2
f 5/1/1 7/58/1 11/2/1
f 11/2/2 7/58/2 8/4/2
f 7/6/3 5/59/3 6/7/3
f 10/9/4 12/60/4 8/10/4
f 2/12/1 18/61/1 20/13/1
f 5/15/5 9/62/5 10/16/5
f 2/18/6 10/25/6 9/19/6
f 3/21/6 11/24/6 12/22/6
f 1/20/6 9/19/6 11/24/6
f 4/23/6 12/22/6 10/25/6
f 14/26/1 22/63/1 24/27/1
f 4/29/5 20/64/5 19/30/5
f 3/32/4 19/65/4 17/33/4
f 1/35/2 17/66/2 18/36/2
f 14/38/6 18/45/6 17/39/6
f 16/41/6 15/44/6 19/42/6
f 15/44/6 13/40/6 17/39/6
f 16/41/6 20/43/6 18/45/6
f 21/46/6 23/67/6 24/47/6
f 16/49/5 24/68/5 23/50/5
f 15/52/4 23/69/4 21/53/4
f 13/55/2 21/70/2 22/56/2
