# Blender v3.0.0 OBJ File: 'conveyor.blend'
# www.blender.org
o Cube
v 0.551046 0.265071 -4.705678
v 0.551046 0.067365 -4.705678
v 0.438075 0.244805 4.688596
v 0.438075 0.087631 4.688596
v -0.551046 0.265071 -4.705678
v -0.551046 0.067365 -4.705678
v -0.438075 0.244805 4.688596
v -0.438075 0.087631 4.688596
v 1.000000 -0.013174 -4.304454
v -1.000000 -0.013174 -4.304454
v 1.000000 0.345610 -4.304454
v -1.000000 0.345610 -4.304454
v 0.892002 0.006200 -4.450143
v -0.892002 0.006200 -4.450143
v 0.892002 0.326236 -4.450143
v -0.892002 0.326236 -4.450143
v 0.751700 0.031369 -4.582139
v -0.751700 0.031369 -4.582139
v 0.751700 0.301067 -4.582139
v -0.751700 0.301067 -4.582139
v -1.000000 -0.013174 4.304454
v -1.000000 0.345610 4.304454
v 1.000000 0.345610 4.304454
v 1.000000 -0.013174 4.304454
v -0.784285 0.025524 4.461966
v -0.784285 0.306912 4.461966
v 0.784285 0.306912 4.461966
v 0.784285 0.025524 4.461966
v -0.625761 0.053961 4.586666
v -0.625761 0.278474 4.586666
v 0.625761 0.278474 4.586666
v 0.625761 0.053961 4.586666
vt 0.849114 0.538473
vt 0.019924 0.209283
vt 0.849114 0.209283
vt 0.082209 0.848259
vt 0.154277 0.775763
vt 0.154462 0.847585
vt 0.726389 0.195461
vt 0.022200 0.116272
vt 0.726389 0.116272
vt 0.366131 0.893411
vt 0.200916 0.729204
vt 0.365627 0.728700
vt 0.019721 0.024810
vt 0.723911 0.104000
vt 0.019721 0.104000
vt 0.494942 0.764329
vt 0.403803 0.856122
vt 0.403557 0.765863
vt 0.375408 0.884215
vt 0.375007 0.737864
vt 0.522805 0.886466
vt 0.531595 0.725355
vt 0.522792 0.734958
vt 0.569368 0.629312
vt 0.969082 0.605401
vt 0.946266 0.629311
vt 0.387187 0.872560
vt 0.386859 0.749469
vt 0.511335 0.874359
vt 0.511353 0.747133
vt 0.599009 0.659652
vt 0.916625 0.659652
vt 0.494908 0.857274
vt 0.641400 0.702475
vt 0.874234 0.702475
vt 0.053726 0.746356
vt 0.182968 0.747119
vt 0.183346 0.876092
vt 0.036287 0.895790
vt 0.053889 0.877530
vt 0.592125 0.749187
vt 0.969082 0.702963
vt 0.923509 0.749187
vt 0.201420 0.893915
vt 0.066711 0.759713
vt 0.169773 0.760297
vt 0.170046 0.862976
vt 0.066846 0.864064
vt 0.890019 0.783232
vt 0.082122 0.775425
vt 0.665267 0.823198
vt 0.850367 0.823198
vt 0.019924 0.538473
vt 0.022200 0.195461
vt 0.723911 0.024810
vt 0.531595 0.895967
vt 0.546552 0.605401
vt 0.036053 0.728213
vt 0.546552 0.702963
vt 0.625616 0.783232
vn 0.0000 1.0000 0.0000
vn 0.0000 0.0000 1.0000
vn -1.0000 0.0000 0.0000
vn 0.0000 -1.0000 0.0000
vn 1.0000 0.0000 0.0000
vn 0.0000 0.0000 -1.0000
vn 0.0000 -0.9913 -0.1318
vn 0.8033 0.0000 -0.5955
vn -0.8033 0.0000 -0.5955
vn 0.0000 0.9913 -0.1318
vn 0.0000 -0.9823 -0.1873
vn 0.6852 0.0000 -0.7283
vn -0.6852 0.0000 -0.7283
vn 0.0000 0.9823 -0.1873
vn 0.0000 -0.9601 -0.2797
vn 0.5243 0.0000 -0.8515
vn -0.5243 0.0000 -0.8515
vn 0.0000 0.9601 -0.2797
vn -0.5897 0.0000 0.8076
vn 0.5897 0.0000 0.8076
vn 0.0000 0.9711 0.2386
vn 0.0000 -0.9711 0.2386
vn -0.6183 0.0000 0.7860
vn 0.6183 0.0000 0.7860
vn 0.0000 0.9750 0.2223
vn 0.0000 -0.9750 0.2223
vn -0.4772 0.0000 0.8788
vn 0.4772 0.0000 0.8788
vn 0.0000 0.9495 0.3136
vn 0.0000 -0.9495 0.3136
s off
f 12/1/1 23/2/1 11/3/1
f 3/4/2 8/5/2 4/6/2
f 22/7/3 10/8/3 21/9/3
f 9/10/4 21/11/4 10/12/4
f 11/13/5 24/14/5 9/15/5
f 5/16/6 2/17/6 6/18/6
f 13/19/7 10/12/7 14/20/7
f 15/21/8 9/10/8 13/19/8
f 14/20/9 12/22/9 16/23/9
f 16/24/10 11/25/10 15/26/10
f 17/27/11 14/20/11 18/28/11
f 19/29/12 13/19/12 17/27/12
f 18/28/13 16/23/13 20/30/13
f 20/31/14 15/26/14 19/32/14
f 2/17/15 18/28/15 6/18/15
f 1/33/16 17/27/16 2/17/16
f 6/18/17 20/30/17 5/16/17
f 5/34/18 19/32/18 1/35/18
f 26/36/19 21/11/19 25/37/19
f 28/38/20 23/39/20 27/40/20
f 27/41/21 22/42/21 26/43/21
f 25/37/22 24/44/22 28/38/22
f 30/45/23 25/37/23 29/46/23
f 32/47/24 27/40/24 31/48/24
f 30/49/25 27/41/25 26/43/25
f 32/47/26 25/37/26 28/38/26
f 7/50/27 29/46/27 8/5/27
f 4/6/28 31/48/28 3/4/28
f 3/51/29 30/49/29 7/52/29
f 8/5/30 32/47/30 4/6/30
f 12/1/1 22/53/1 23/2/1
f 3/4/2 7/50/2 8/5/2
f 22/7/3 12/54/3 10/8/3
f 9/10/4 24/44/4 21/11/4
f 11/13/5 23/55/5 24/14/5
f 5/16/6 1/33/6 2/17/6
f 13/19/7 9/10/7 10/12/7
f 15/21/8 11/56/8 9/10/8
f 14/20/9 10/12/9 12/22/9
f 16/24/10 12/57/10 11/25/10
f 17/27/11 13/19/11 14/20/11
f 19/29/12 15/21/12 13/19/12
f 18/28/13 14/20/13 16/23/13
f 20/31/14 16/24/14 15/26/14
f 2/17/15 17/27/15 18/28/15
f 1/33/16 19/29/16 17/27/16
f 6/18/17 18/28/17 20/30/17
f 5/34/18 20/31/18 19/32/18
f 26/36/19 22/58/19 21/11/19
f 28/38/20 24/44/20 23/39/20
f 27/41/21 23/59/21 22/42/21
f 25/37/22 21/11/22 24/44/22
f 30/45/23 26/36/23 25/37/23
f 32/47/24 28/38/24 27/40/24
f 30/49/25 31/60/25 27/41/25
f 32/47/26 29/46/26 25/37/26
f 7/50/27 30/45/27 29/46/27
f 4/6/28 32/47/28 31/48/28
f 3/51/29 31/60/29 30/49/29
f 8/5/30 29/46/30 32/47/30
