# Blender v2.93.6 OBJ File: 'shelf.blend'
# www.blender.org
o Cube
v 1.000000 0.054027 -3.011203
v 1.000000 0.054027 3.011203
v -1.000000 0.533882 -3.011203
v -1.000000 0.054027 -3.011203
v -1.000000 0.533882 3.011203
v -1.000000 0.054027 3.011203
v 0.500000 0.533882 3.011203
v 0.500000 0.533882 -3.011203
v 0.500000 3.014689 -3.011203
v 0.500000 3.014689 3.011203
v 1.000000 3.014689 3.011203
v 1.000000 3.014689 -3.011203
v 0.500000 1.774285 -3.011203
v 0.500000 1.774285 3.011203
v 0.500000 2.394487 3.011203
v 0.500000 2.394487 -3.011203
v 0.500000 1.154083 -3.011203
v 0.500000 1.154083 3.011203
v -0.098544 2.394487 3.011203
v -0.098544 2.394487 -3.011203
v -0.445069 1.774285 -3.011203
v -0.445069 1.774285 3.011203
v -0.665585 1.154083 -3.011203
v -0.665585 1.154083 3.011203
vt 0.730374 0.303306
vt 0.556247 0.303306
vt 0.865098 0.269625
vt 0.189158 0.589245
vt 0.054434 0.454521
vt 0.189158 0.454521
vt 0.033858 0.134901
vt 0.033858 0.269625
vt 0.228562 0.454167
vt 0.054434 0.319442
vt 0.228562 0.319442
vt 0.556248 0.101220
vt 0.730375 0.101220
vt 0.865098 0.134901
vt 0.712605 0.454167
vt 0.538477 0.319442
vt 0.712605 0.319442
vt 0.000177 0.269625
vt 0.373148 0.883208
vt 0.099796 0.678194
vt 0.373148 0.678194
vt 0.403398 0.493571
vt 0.538123 0.319442
vt 0.538123 0.493571
vt 0.403045 0.454167
vt 0.228916 0.319442
vt 0.403045 0.319442
vt 0.534976 0.649969
vt 0.616782 0.923321
vt 0.534976 0.923321
vt 0.524737 0.923643
vt 0.395568 0.650290
vt 0.524737 0.650290
vt 0.631113 0.651841
vt 0.790420 0.925193
vt 0.631113 0.925193
vt 0.999823 0.134901
vt 0.999823 0.269626
vt 0.382111 0.303306
vt 0.207985 0.303306
vt 0.033858 0.303306
vt 0.865098 0.404349
vt 0.730374 0.404349
vt 0.054434 0.589245
vt 0.054434 0.454167
vt 0.382112 0.101220
vt 0.033858 0.101220
vt 0.207985 0.101220
vt 0.730375 0.000177
vt 0.865098 0.000177
vt 0.538477 0.454167
vt 0.000177 0.134901
vt 0.099796 0.883208
vt 0.403398 0.319442
vt 0.228916 0.454167
vt 0.616782 0.649969
vt 0.395568 0.923643
vt 0.790420 0.651841
vn 0.0000 0.0000 -1.0000
vn -1.0000 0.0000 0.0000
vn 1.0000 0.0000 0.0000
vn 0.0000 0.0000 1.0000
vn 0.0000 1.0000 0.0000
vn 0.0000 -1.0000 0.0000
s off
f 8/1/1 17/2/1 1/3/1
f 5/4/2 4/5/2 6/6/2
f 11/7/3 1/3/3 12/8/3
f 18/9/2 13/10/2 17/11/2
f 18/12/4 7/13/4 2/14/4
f 15/15/2 9/16/2 16/17/2
f 9/18/5 11/7/5 12/8/5
f 3/19/5 7/20/5 8/21/5
f 14/22/2 16/23/2 13/24/2
f 7/25/2 17/26/2 8/27/2
f 15/28/6 20/29/6 16/30/6
f 13/31/5 22/32/5 14/33/5
f 18/34/6 23/35/6 17/36/6
f 1/3/6 6/37/6 4/38/6
f 17/2/1 13/39/1 1/3/1
f 13/39/1 16/40/1 12/8/1
f 1/3/1 13/39/1 12/8/1
f 16/40/1 9/41/1 12/8/1
f 1/3/1 4/42/1 8/1/1
f 4/42/1 3/43/1 8/1/1
f 5/4/2 3/44/2 4/5/2
f 11/7/3 2/14/3 1/3/3
f 18/9/2 14/45/2 13/10/2
f 2/14/4 11/7/4 14/46/4
f 11/7/4 10/47/4 15/48/4
f 15/48/4 14/46/4 11/7/4
f 14/46/4 18/12/4 2/14/4
f 5/49/4 6/50/4 7/13/4
f 6/50/4 2/14/4 7/13/4
f 15/15/2 10/51/2 9/16/2
f 9/18/5 10/52/5 11/7/5
f 3/19/5 5/53/5 7/20/5
f 14/22/2 15/54/2 16/23/2
f 7/25/2 18/55/2 17/26/2
f 15/28/6 19/56/6 20/29/6
f 13/31/5 21/57/5 22/32/5
f 18/34/6 24/58/6 23/35/6
f 1/3/6 2/14/6 6/37/6
