# Blender v2.93.6 OBJ File: 'shower.blend'
# www.blender.org
o Cube_Cube.001
v -1.000000 0.009335 1.000000
v -1.000000 4.016665 1.000000
v -1.000000 0.009335 -1.000000
v -1.000000 4.016665 -1.000000
v 1.000000 0.009335 1.000000
v 1.000000 4.016665 1.000000
v 1.000000 0.009335 -1.000000
v 1.000000 4.016665 -1.000000
v -1.000000 0.009335 1.000000
v -1.000000 4.016665 1.000000
v -1.000000 0.009335 -1.000000
v -1.000000 4.016665 -1.000000
v 1.000000 0.009335 1.000000
v 1.000000 4.016665 1.000000
v 1.000000 0.009335 -1.000000
v 1.000000 4.016665 -1.000000
v -0.948047 0.113432 0.948047
v -0.948047 3.912568 0.948047
v -0.948047 0.113432 -0.948047
v -0.948047 3.912568 -0.948047
v 0.948047 0.113432 0.948047
v 0.948047 3.912568 0.948047
v 0.948047 0.113432 -0.948047
v 0.948047 3.912568 -0.948047
v -0.610899 3.275128 -0.227013
v -0.779267 3.539803 -0.065925
v -0.513603 3.337021 -0.189546
v -0.761861 3.550874 -0.059223
v -0.453471 3.375273 -0.091454
v -0.751105 3.557717 -0.041676
v -0.453471 3.375273 0.029793
v -0.751105 3.557717 -0.019986
v -0.513603 3.337021 0.127884
v -0.761861 3.550874 -0.002439
v -0.610899 3.275128 0.165352
v -0.779267 3.539803 0.004264
v -0.708194 3.213236 0.127884
v -0.796672 3.528731 -0.002439
v -0.768326 3.174984 0.029793
v -0.807428 3.521888 -0.019986
v -0.768326 3.174984 -0.091454
v -0.807428 3.521888 -0.041676
v -0.708194 3.213236 -0.189546
v -0.796672 3.528731 -0.059223
v -0.860666 3.671200 -0.065581
v -0.850066 3.687940 -0.056758
v -0.843178 3.696444 -0.038031
v -0.842633 3.693463 -0.016554
v -0.848639 3.680136 -0.000530
v -0.858902 3.661553 0.003920
v -0.869502 3.644813 -0.004904
v -0.876390 3.636309 -0.023630
v -0.876935 3.639290 -0.045107
v -0.870928 3.652617 -0.061131
v -0.943524 3.728395 -0.054923
v -0.943008 3.748202 -0.046099
v -0.941456 3.759035 -0.027373
v -0.939460 3.756755 -0.005896
v -0.937782 3.742234 0.010128
v -0.937063 3.721017 0.014578
v -0.937578 3.701210 0.005755
v -0.939130 3.690378 -0.012972
v -0.941127 3.692657 -0.034449
v -0.942805 3.707179 -0.050473
v -0.610899 3.275128 -0.030831
v -0.940293 3.724706 -0.020172
vt 0.952068 0.474555
vt 0.946808 0.775962
vt 0.946808 0.474555
vt 0.910714 0.474555
vt 0.902141 0.965737
vt 0.902141 0.474555
vt 0.928784 0.474555
vt 0.920212 0.965737
vt 0.920212 0.474555
vt 0.892643 0.474555
vt 0.884071 0.965737
vt 0.884071 0.474555
vt 0.639174 0.360826
vt 0.972454 0.366643
vt 0.639174 0.366643
vt 0.639174 0.027546
vt 0.633357 0.360826
vt 0.633357 0.027546
vt 0.972454 0.360826
vt 0.978270 0.027546
vt 0.978270 0.360826
vt 0.972454 0.027546
vt 0.639174 0.021730
vt 0.972454 0.021729
vt 0.664097 0.930788
vt 0.362690 0.925528
vt 0.664097 0.925528
vt 0.551974 0.907504
vt 0.060792 0.898932
vt 0.551974 0.898932
vt 0.362199 0.930788
vt 0.060792 0.925528
vt 0.362199 0.925528
vt 0.851604 0.640054
vt 0.846343 0.941462
vt 0.846343 0.640054
vt 0.787234 0.984770
vt 0.767181 0.649009
vt 0.787234 0.640054
vt 0.828320 0.984770
vt 0.808267 0.649009
vt 0.828320 0.640054
vt 0.766691 0.984770
vt 0.746638 0.649009
vt 0.766691 0.640054
vt 0.656267 0.907994
vt 0.539212 0.889924
vt 0.354370 0.907994
vt 0.828810 0.647884
vt 0.929274 0.482385
vt 0.893134 0.487317
vt 0.911204 0.487317
vt 0.875063 0.487317
vt 0.807777 0.984770
vt 0.787724 0.649009
vt 0.807777 0.640054
vt 0.025944 0.803147
vt 0.315362 0.223250
vt 0.315362 0.803148
vt 0.605215 0.803148
vt 0.315797 0.223250
vt 0.605215 0.223250
vt 0.742291 0.481335
vt 0.770581 0.539080
vt 0.727324 0.483994
vt 0.693904 0.485029
vt 0.821839 0.425727
vt 0.808066 0.525688
vt 0.796300 0.452792
vt 0.783673 0.462803
vt 0.803160 0.526860
vt 0.775386 0.468238
vt 0.798379 0.528223
vt 0.769108 0.471758
vt 0.788975 0.531202
vt 0.763625 0.474403
vt 0.758071 0.476686
vt 0.812838 0.560246
vt 0.784300 0.532786
vt 0.751548 0.478913
vt 0.775288 0.536771
vt 0.798809 0.585367
vt 0.799161 0.581774
vt 0.807381 0.582954
vt 0.808423 0.559791
vt 0.807921 0.574740
vt 0.803787 0.559747
vt 0.788215 0.569057
vt 0.785140 0.572268
vt 0.813210 0.524924
vt 0.817190 0.560568
vt 0.766146 0.542168
vt 0.781602 0.575402
vt 0.791278 0.565797
vt 0.779630 0.534478
vt 0.794850 0.562864
vt 0.799101 0.560717
vt 0.793660 0.529676
vt 0.821839 0.560511
vt 0.815326 0.579224
vt 0.800139 0.578781
vt 0.804937 0.574839
vt 0.812806 0.577068
vt 0.802082 0.576271
vt 0.810493 0.575641
vt 0.799543 0.590736
vt 0.762423 0.215024
vt 0.762423 0.190766
vt 0.799752 0.202895
vt 0.776682 0.171141
vt 0.799752 0.163645
vt 0.822823 0.171141
vt 0.837081 0.190766
vt 0.837081 0.215024
vt 0.822823 0.234649
vt 0.799752 0.242145
vt 0.776682 0.234649
vt 0.818446 0.583278
vt 0.952068 0.775962
vt 0.910714 0.965737
vt 0.928784 0.965737
vt 0.892643 0.965737
vt 0.362690 0.930788
vt 0.060792 0.907504
vt 0.060792 0.930788
vt 0.851604 0.941462
vt 0.767182 0.975816
vt 0.808267 0.975816
vt 0.746639 0.975816
vt 0.370519 0.907995
vt 0.073551 0.889926
vt 0.068622 0.907995
vt 0.828810 0.933632
vt 0.929275 0.768133
vt 0.893136 0.952978
vt 0.911206 0.952978
vt 0.875066 0.952978
vt 0.787724 0.975816
vt 0.025944 0.223250
vt 0.315797 0.803147
vn 0.0000 0.0000 1.0000
vn -0.8948 0.4466 0.0000
vn 0.8948 0.4466 0.0000
vn 0.0000 0.4466 -0.8948
vn 0.0000 -0.4466 0.8948
vn -0.7071 0.0000 -0.7071
vn 0.8948 -0.4466 0.0000
vn 0.0000 -0.4466 -0.8948
vn -0.8948 -0.4466 0.0000
vn 0.7071 0.0000 -0.7071
vn -0.7071 0.0000 0.7071
vn 0.0000 0.4466 0.8948
vn 0.0000 -1.0000 0.0000
vn -1.0000 0.0000 0.0000
vn -0.0013 0.5193 -0.8546
vn 0.3778 0.7605 -0.5282
vn 0.5226 0.8526 0.0000
vn 0.3778 0.7605 0.5282
vn -0.0013 0.5193 0.8546
vn -0.4698 0.2212 0.8546
vn -0.8489 -0.0199 0.5282
vn -0.9937 -0.1120 0.0000
vn 0.6757 0.4450 0.5877
vn -0.8489 -0.0199 -0.5282
vn -0.4698 0.2212 -0.8546
vn -0.9957 -0.0146 0.0910
vn -0.1675 -0.3746 0.9119
vn 0.3589 0.2472 -0.9001
vn 0.8291 0.5591 0.0000
vn 0.7211 0.4914 -0.4884
vn -0.2008 -0.1219 -0.9720
vn -0.6807 -0.4173 -0.6022
vn -0.8588 -0.5099 -0.0490
vn -0.7013 -0.4039 0.5874
vn -0.2709 -0.1498 0.9509
vn 0.2574 0.1711 0.9510
vn 0.5521 0.8276 0.1009
vn -0.2638 -0.2066 -0.9422
vn -0.5130 -0.6947 0.5041
vn 0.4809 0.5770 0.6601
vn 0.1548 0.3987 -0.9039
vn -0.6455 -0.7586 -0.0889
vn 0.2175 0.1121 0.9696
vn 0.4345 0.7636 -0.4777
vn -0.5636 -0.6406 -0.5215
vn 0.5367 -0.8437 0.0000
vn 0.5367 -0.8438 -0.0000
vn -0.9957 -0.0147 0.0910
vn 0.3778 0.7605 -0.5281
vn 0.6647 0.4328 0.6090
vn -0.1788 -0.3965 0.9005
vn 0.2616 0.1645 -0.9511
vn 0.8326 0.5511 0.0554
vn 0.6755 0.4453 -0.5877
vn -0.2584 -0.1695 -0.9510
vn -0.6885 -0.4248 -0.5877
vn -0.8565 -0.5162 0.0000
vn -0.7465 -0.4581 0.4826
vn -0.3696 -0.2392 0.8979
vn 0.2019 0.1212 0.9719
vn 0.5398 0.8409 0.0391
vn -0.2252 -0.1075 -0.9684
vn -0.5232 -0.7182 0.4588
vn 0.4976 0.6681 0.5533
vn 0.1490 0.3856 -0.9106
vn -0.6546 -0.7557 -0.0194
vn 0.2569 0.2067 0.9441
vn 0.4302 0.7519 -0.4996
vn -0.5483 -0.5303 -0.6466
s off
f 2/1/1 12/2/1 10/3/1
f 6/4/1 13/5/1 14/6/1
f 8/7/1 15/8/1 16/9/1
f 4/10/1 11/11/1 12/12/1
f 1/13/1 13/14/1 9/15/1
f 3/16/1 9/17/1 11/18/1
f 5/19/1 15/20/1 13/21/1
f 7/22/1 11/23/1 15/24/1
f 6/25/1 10/26/1 14/27/1
f 1/28/1 10/29/1 9/30/1
f 8/31/1 14/32/1 16/33/1
f 4/34/1 16/35/1 12/36/1
f 9/37/2 19/38/2 11/39/2
f 15/40/3 21/41/3 13/42/3
f 11/43/4 23/44/4 15/45/4
f 10/26/5 22/46/5 14/27/5
f 10/29/6 17/47/6 9/30/6
f 14/32/7 24/48/7 16/33/7
f 16/35/8 20/49/8 12/36/8
f 12/2/9 18/50/9 10/3/9
f 13/5/10 22/51/10 14/6/10
f 15/8/6 24/52/6 16/9/6
f 11/11/11 20/53/11 12/12/11
f 13/54/12 17/55/12 9/56/12
f 7/22/13 1/13/13 3/16/13
f 23/57/1 20/58/1 19/59/1
f 19/60/14 18/61/14 20/62/14
f 25/63/15 28/64/15 27/65/15
f 28/64/16 29/66/16 27/65/16
f 29/67/17 32/68/17 31/69/17
f 32/68/18 33/70/18 31/69/18
f 34/71/19 35/72/19 33/70/19
f 36/73/20 37/74/20 35/72/20
f 37/74/21 40/75/21 39/76/21
f 40/75/22 41/77/22 39/76/22
f 32/68/23 49/78/23 34/71/23
f 42/79/24 43/80/24 41/77/24
f 43/80/25 26/81/25 25/63/25
f 56/82/26 55/83/26 66/84/26
f 50/85/27 61/86/27 51/87/27
f 28/64/28 45/88/28 46/89/28
f 30/90/29 48/91/29 32/68/29
f 30/92/30 46/89/30 47/93/30
f 26/81/31 54/94/31 45/88/31
f 44/95/32 53/96/32 54/94/32
f 42/79/33 52/97/33 53/96/33
f 38/98/34 52/97/34 40/75/34
f 36/73/35 51/87/35 38/98/35
f 34/71/36 50/85/36 36/73/36
f 47/99/37 58/100/37 48/91/37
f 45/88/38 64/101/38 55/83/38
f 51/87/39 62/102/39 52/97/39
f 48/91/40 59/103/40 49/78/40
f 46/89/41 55/83/41 56/82/41
f 52/97/42 63/104/42 53/96/42
f 49/78/43 60/105/43 50/85/43
f 47/93/44 56/82/44 57/106/44
f 54/94/45 63/104/45 64/101/45
f 25/107/46 27/108/46 65/109/46
f 27/108/47 29/110/47 65/109/47
f 29/110/47 31/111/47 65/109/47
f 31/111/47 33/112/47 65/109/47
f 33/112/46 35/113/46 65/109/46
f 35/113/47 37/114/47 65/109/47
f 37/114/47 39/115/47 65/109/47
f 39/115/47 41/116/47 65/109/47
f 41/116/47 43/117/47 65/109/47
f 43/117/47 25/107/47 65/109/47
f 55/83/26 64/101/26 66/84/26
f 64/101/48 63/104/48 66/84/48
f 63/104/26 62/102/26 66/84/26
f 62/102/48 61/86/48 66/84/48
f 61/86/26 60/105/26 66/84/26
f 60/105/26 59/103/26 66/84/26
f 59/103/26 58/100/26 66/84/26
f 58/100/26 57/118/26 66/84/26
f 57/106/48 56/82/48 66/84/48
f 2/1/1 4/119/1 12/2/1
f 6/4/1 5/120/1 13/5/1
f 8/7/1 7/121/1 15/8/1
f 4/10/1 3/122/1 11/11/1
f 1/13/1 5/19/1 13/14/1
f 3/16/1 1/13/1 9/17/1
f 5/19/1 7/22/1 15/20/1
f 7/22/1 3/16/1 11/23/1
f 6/25/1 2/123/1 10/26/1
f 1/28/1 2/124/1 10/29/1
f 8/31/1 6/125/1 14/32/1
f 4/34/1 8/126/1 16/35/1
f 9/37/2 17/127/2 19/38/2
f 15/40/3 23/128/3 21/41/3
f 11/43/4 19/129/4 23/44/4
f 10/26/5 18/130/5 22/46/5
f 10/29/6 18/131/6 17/47/6
f 14/32/7 22/132/7 24/48/7
f 16/35/8 24/133/8 20/49/8
f 12/2/9 20/134/9 18/50/9
f 13/5/10 21/135/10 22/51/10
f 15/8/6 23/136/6 24/52/6
f 11/11/11 19/137/11 20/53/11
f 13/54/12 21/138/12 17/55/12
f 7/22/13 5/19/13 1/13/13
f 23/57/1 24/139/1 20/58/1
f 19/60/14 17/140/14 18/61/14
f 25/63/15 26/81/15 28/64/15
f 28/64/49 30/92/49 29/66/49
f 29/67/17 30/90/17 32/68/17
f 32/68/18 34/71/18 33/70/18
f 34/71/19 36/73/19 35/72/19
f 36/73/20 38/98/20 37/74/20
f 37/74/21 38/98/21 40/75/21
f 40/75/22 42/79/22 41/77/22
f 32/68/50 48/91/50 49/78/50
f 42/79/24 44/95/24 43/80/24
f 43/80/25 44/95/25 26/81/25
f 50/85/51 60/105/51 61/86/51
f 28/64/52 26/81/52 45/88/52
f 30/90/53 47/99/53 48/91/53
f 30/92/54 28/64/54 46/89/54
f 26/81/55 44/95/55 54/94/55
f 44/95/56 42/79/56 53/96/56
f 42/79/57 40/75/57 52/97/57
f 38/98/58 51/87/58 52/97/58
f 36/73/59 50/85/59 51/87/59
f 34/71/60 49/78/60 50/85/60
f 47/99/61 57/118/61 58/100/61
f 45/88/62 54/94/62 64/101/62
f 51/87/63 61/86/63 62/102/63
f 48/91/64 58/100/64 59/103/64
f 46/89/65 45/88/65 55/83/65
f 52/97/66 62/102/66 63/104/66
f 49/78/67 59/103/67 60/105/67
f 47/93/68 46/89/68 56/82/68
f 54/94/69 53/96/69 63/104/69
