# Blender v3.0.0 OBJ File: 'Sink.blend'
# www.blender.org
o Cube
v 0.422151 3.055173 -0.680569
v 0.422151 -0.230215 -0.680569
v 0.422151 3.055173 0.680569
v 0.422151 -0.230215 0.680569
v -0.422151 3.055173 -0.680569
v -0.422151 -0.230215 -0.680569
v -0.422151 3.055173 0.680569
v -0.422151 -0.230215 0.680569
v 0.528138 3.589627 -1.206336
v -0.006736 4.603269 -0.335876
v -0.566568 3.589627 -1.206336
v -0.068772 4.603269 -0.335876
v 0.053579 4.709104 0.407840
v -0.120400 4.709104 0.407840
v 1.054653 3.770643 -1.510166
v -1.093083 3.770643 -1.510166
v 1.054653 3.770643 0.687586
v -1.093083 3.770643 0.687586
v 0.528138 3.589627 -0.061614
v -0.566568 3.589627 -0.061614
v 0.128868 3.720029 0.478101
v -0.192524 3.720029 0.478101
v 0.044086 4.457267 -0.365542
v -0.121823 4.457267 -0.365542
v 0.115020 3.640241 0.147871
v -0.193267 3.640241 0.147871
v 0.045624 4.663268 0.218131
v -0.120826 4.663268 0.218131
v 0.070635 4.438652 0.178058
v -0.148751 4.438652 0.178058
v 0.006854 4.621883 0.215289
v -0.082171 4.621883 0.215289
vt 0.433588 0.128762
vt 0.330380 0.336152
vt 0.330380 0.000000
vt 0.097296 0.109404
vt 0.227173 0.611882
vt 0.097296 0.611882
vt 0.870123 0.997050
vt 0.660761 0.499252
vt 0.870123 0.498894
vt 0.129877 0.611882
vt 0.000000 0.820071
vt 0.000000 0.611882
vt 0.870094 0.498323
vt 0.660761 0.000571
vt 0.870094 0.000000
vt 0.870123 0.498894
vt 1.000000 1.000000
vt 0.870123 1.000000
vt 0.411373 0.627917
vt 0.579768 0.453261
vt 0.579768 0.627917
vt 0.563465 0.128762
vt 0.660761 0.336151
vt 0.563465 0.336951
vt 0.660761 0.000000
vt 0.227173 0.109404
vt 0.000000 0.000000
vt 0.330380 0.000000
vt 0.535610 0.672330
vt 0.561214 0.701725
vt 0.534452 0.701784
vt 0.660761 0.672273
vt 0.411373 0.453262
vt 0.330380 0.672273
vt 0.330380 0.336952
vt 0.518350 0.369473
vt 0.660761 0.336951
vt 0.516219 0.420740
vt 0.468797 0.420740
vt 0.468911 0.369473
vt 0.264476 0.611882
vt 0.302333 0.763373
vt 0.252894 0.763373
vt 0.561214 0.689538
vt 0.583957 0.672273
vt 0.583957 0.697653
vt 0.159735 0.765704
vt 0.139023 0.617073
vt 0.190998 0.611882
vt 0.423448 0.826123
vt 0.444182 0.677674
vt 0.453281 0.829225
vt 0.460129 0.672273
vt 0.500704 0.794405
vt 0.453281 0.794405
vt 0.322409 0.617813
vt 0.316028 0.637344
vt 0.316028 0.611882
vt 0.422377 0.820724
vt 0.392250 0.672273
vt 0.170352 0.732221
vt 0.504846 0.672273
vt 0.534452 0.755467
vt 0.500704 0.755467
vt 0.313937 0.696182
vt 0.302333 0.611882
vt 0.316028 0.611882
vt 0.338024 0.829225
vt 0.412784 0.792599
vt 0.245462 0.768686
vt 0.252894 0.746298
vt 0.433588 0.336951
vt 0.660761 0.997408
vt 0.129877 0.820071
vt 0.660761 0.498894
vt 1.000000 0.498894
vt 0.561214 0.672273
vt 0.291239 0.611882
vt 0.561214 0.680048
vt 0.129877 0.768686
vt 0.493877 0.672273
vt 0.322409 0.631431
vt 0.161024 0.760318
vt 0.530368 0.672273
vt 0.304394 0.696182
vt 0.330380 0.806814
vn -0.7294 -0.6840 0.0000
vn 0.0000 0.0000 1.0000
vn -1.0000 0.0000 0.0000
vn 0.0000 -1.0000 0.0000
vn 1.0000 0.0000 0.0000
vn 0.0000 0.0000 -1.0000
vn 0.0000 1.0000 0.0000
vn 0.7492 -0.6623 0.0000
vn 0.0000 -0.7573 -0.6531
vn 0.0000 -0.0098 1.0000
vn 0.0000 0.9720 -0.2349
vn -0.3251 0.9457 0.0000
vn 0.3251 0.9457 0.0000
vn 0.0000 0.8591 0.5118
vn 0.0000 0.9720 -0.2348
vn 0.0000 0.0709 0.9975
vn 0.0000 0.1991 -0.9800
vn 0.9957 0.0716 -0.0591
vn -0.9973 0.0717 -0.0151
vn 0.0000 0.0378 -0.9993
vn 0.0000 0.0685 -0.9976
vn 0.9289 0.0377 0.3684
vn 0.0000 -0.9994 -0.0342
vn 0.0000 0.9994 -0.0338
vn -0.9370 0.3475 -0.0345
vn 0.9417 0.3348 -0.0345
vn -0.4735 -0.0069 0.8808
vn -0.1027 0.1636 -0.9812
s off
f 5/1/1 18/2/1 16/3/1
f 3/4/2 8/5/2 4/6/2
f 7/7/3 6/8/3 8/9/3
f 2/10/4 8/11/4 6/12/4
f 1/13/5 4/14/5 2/15/5
f 5/16/6 2/17/6 6/18/6
f 11/19/7 19/20/7 9/21/7
f 1/22/8 17/23/8 3/24/8
f 5/1/9 15/25/9 1/22/9
f 7/26/10 17/27/10 18/28/10
f 27/29/11 14/30/11 13/31/11
f 19/20/12 15/32/12 9/21/12
f 20/33/13 16/34/13 18/35/13
f 9/21/14 16/34/14 11/19/14
f 21/36/11 18/35/11 17/37/11
f 25/38/15 20/33/15 26/39/15
f 21/36/11 19/20/11 25/38/11
f 22/40/11 20/33/11 18/35/11
f 13/41/16 22/42/16 21/43/16
f 12/44/17 23/45/17 24/46/17
f 27/47/18 21/48/18 25/49/18
f 28/50/19 22/51/19 14/52/19
f 30/53/20 25/54/20 26/55/20
f 31/56/21 28/57/21 27/58/21
f 32/59/21 26/60/21 28/50/21
f 29/61/22 27/47/22 25/49/22
f 24/62/23 29/63/23 30/64/23
f 10/65/24 32/66/24 31/67/24
f 12/68/25 30/69/25 32/59/25
f 10/70/26 29/61/26 23/71/26
f 5/1/1 7/72/1 18/2/1
f 3/4/2 7/26/2 8/5/2
f 7/7/3 5/73/3 6/8/3
f 2/10/4 4/74/4 8/11/4
f 1/13/5 3/75/5 4/14/5
f 5/16/6 1/76/6 2/17/6
f 11/19/7 20/33/7 19/20/7
f 1/22/8 15/25/8 17/23/8
f 5/1/9 16/3/9 15/25/9
f 7/26/10 3/4/10 17/27/10
f 27/29/11 28/77/11 14/30/11
f 19/20/12 17/37/12 15/32/12
f 20/33/13 11/19/13 16/34/13
f 9/21/14 15/32/14 16/34/14
f 21/36/11 22/40/11 18/35/11
f 25/38/11 19/20/11 20/33/11
f 21/36/11 17/37/11 19/20/11
f 22/40/11 26/39/11 20/33/11
f 13/41/16 14/78/16 22/42/16
f 12/44/17 10/79/17 23/45/17
f 27/47/18 13/80/18 21/48/18
f 28/50/19 26/60/19 22/51/19
f 30/53/20 29/81/20 25/54/20
f 31/56/21 32/82/21 28/57/21
f 32/59/27 30/69/27 26/60/27
f 29/61/28 31/83/28 27/47/28
f 24/62/23 23/84/23 29/63/23
f 10/65/24 12/85/24 32/66/24
f 12/68/25 24/86/25 30/69/25
f 10/70/26 31/83/26 29/61/26
