# Blender v3.0.0 OBJ File: 'AnimBook.blend'
# www.blender.org
o Cube
v 1.300482 -0.000176 -1.000000
v 1.300482 -0.000176 1.000000
v 0.002428 0.090934 -0.478193
v 0.002415 0.090934 0.478193
v 0.001725 -0.000176 -1.000000
v 0.001725 -0.000176 1.000000
v 1.245269 0.119668 -1.000000
v 1.245269 0.119668 1.000000
v 0.001725 0.085785 -1.000000
v 0.002062 0.132034 -0.478193
v 0.001725 0.085785 1.000000
v 0.002056 0.132034 0.478193
v 0.001736 0.168545 1.000000
v 0.001718 0.171599 0.478193
v 1.245326 0.203783 -1.000000
v 1.245326 0.203783 1.000000
v 0.001736 0.168545 -1.000000
v 0.001718 0.171600 -0.478193
v -1.323579 0.003286 -1.000000
v -1.323579 0.003286 1.000000
v -1.262348 0.120282 -1.000000
v -1.262348 0.120282 1.000000
v -1.261618 0.203885 -1.000000
v -1.261618 0.203885 1.000000
v 0.002856 1.336651 1.000000
v 0.003015 1.336651 -1.000000
v -1.026687 0.039303 -1.000000
v -0.980683 0.220831 -1.000000
v -0.981208 0.137646 -1.000000
v -0.981208 0.137646 1.000000
v -1.026687 0.039303 1.000000
v -0.980683 0.220831 1.000000
v -0.426883 0.214381 1.000000
v -0.447088 0.040416 1.000000
v -0.427172 0.131148 1.000000
v -0.427172 0.131148 -1.000000
v -0.426883 0.214381 -1.000000
v -0.447088 0.040416 -1.000000
v 0.703460 0.241397 1.000000
v 0.703433 0.157997 1.000000
v 0.735190 0.069752 -1.000000
v 0.703460 0.241397 -1.000000
v 0.703433 0.158071 -1.000000
v 0.735190 0.069752 1.000000
v -0.702827 0.222385 1.000000
v -0.735790 0.045344 1.000000
v -0.703224 0.139229 1.000000
v -0.735779 0.045284 -1.000000
v -0.702827 0.222385 -1.000000
v -0.703224 0.139229 -1.000000
v -0.007092 0.465121 1.000000
v -0.007020 0.465119 -1.000000
v 0.009836 1.044472 1.000000
v 0.009837 1.044472 -1.000000
v -0.000275 0.752417 1.000000
v -0.000220 0.752417 -1.000000
v 0.974871 0.234051 -1.000000
v 0.974841 0.150576 -1.000000
v 1.018859 0.059342 1.000000
v 1.018859 0.059342 -1.000000
v 0.974841 0.150576 1.000000
v 0.974871 0.234051 1.000000
v 0.431438 0.234051 1.000000
v 0.431427 0.151196 1.000000
v 0.450821 0.063391 -1.000000
v 0.450821 0.063391 1.000000
v 0.431430 0.151282 -1.000000
v 0.431438 0.234051 -1.000000
v 0.165358 0.030738 -1.000000
v 0.158403 0.119668 1.000000
v 0.158451 0.203822 1.000000
v 0.165358 0.030738 1.000000
v 0.158403 0.119668 -1.000000
v 0.158446 0.203845 -1.000000
v -0.154298 0.107185 1.000000
v -0.161969 0.017569 1.000000
v -0.154020 0.190959 1.000000
v -0.154298 0.107185 -1.000000
v -0.154023 0.190936 -1.000000
v -0.161969 0.017569 -1.000000
vt 0.817496 0.118424
vt 0.759702 0.171855
vt 0.757901 0.117903
vt 0.812401 0.577087
vt 0.877999 0.764048
vt 0.812401 0.698050
vt 0.816090 0.764048
vt 0.782796 0.698050
vt 0.883741 0.289760
vt 0.822139 0.257537
vt 0.884046 0.258142
vt 0.937368 0.764048
vt 1.000000 0.511089
vt 1.000000 0.764048
vt 0.884046 0.056396
vt 0.813893 0.010472
vt 0.884046 0.000000
vt 0.816090 0.511089
vt 0.877999 0.511089
vt 0.756493 0.764048
vt 0.754298 0.698050
vt 0.821847 0.287777
vt 0.762544 0.256954
vt 0.782796 0.577087
vt 0.877999 0.764048
vt 0.937368 0.511089
vt 0.562460 0.989528
vt 0.632614 0.943604
vt 0.632614 1.000000
vt 0.756493 0.511089
vt 0.502865 0.258139
vt 0.251433 0.225581
vt 0.502865 0.225581
vt 0.884046 0.225583
vt 0.821099 0.226375
vt 0.381147 0.511095
vt 0.311029 0.764054
vt 0.311029 0.511095
vt 0.632614 0.887208
vt 0.567865 0.827600
vt 0.632614 0.830812
vt 0.502865 0.277271
vt 0.754298 0.247037
vt 0.754298 0.277271
vt 0.502865 0.056395
vt 0.251433 0.000000
vt 0.502865 0.000000
vt 0.754297 0.107940
vt 0.502865 0.161910
vt 0.502865 0.107940
vt 0.251433 0.764054
vt 0.251433 0.511095
vt 0.761504 0.225807
vt 0.251433 0.423360
vt 0.000000 0.211680
vt 0.251432 0.211680
vt 0.568882 0.553464
vt 0.631240 0.599575
vt 0.569393 0.606384
vt 0.502865 0.169186
vt 0.251433 0.112790
vt 0.502865 0.112790
vt 0.509286 0.554047
vt 0.509797 0.606966
vt 0.502865 0.383091
vt 0.754298 0.436001
vt 0.502865 0.436001
vt 0.760719 0.445953
vt 0.820825 0.393616
vt 0.820314 0.446536
vt 0.882672 0.400425
vt 0.882138 0.455757
vt 0.754297 0.053970
vt 0.502865 0.053970
vt 0.504667 0.936049
vt 0.566063 0.881576
vt 0.564262 0.935552
vt 0.756099 0.063950
vt 0.815694 0.064448
vt 0.884046 0.112792
vt 0.251433 0.056395
vt 0.251433 0.631733
vt 0.000000 0.423360
vt 0.000000 0.000000
vt 0.251432 0.000000
vt 0.251433 0.846720
vt 0.000000 0.631733
vt 0.502865 0.990002
vt 0.568370 0.500544
vt 0.630705 0.544243
vt 0.754297 0.000000
vt 0.502865 0.000000
vt 0.754298 0.488911
vt 0.502865 0.488911
vt 0.821336 0.340696
vt 0.819803 0.499456
vt 0.881603 0.511089
vt 0.508270 0.828145
vt 0.251433 0.400427
vt 0.502865 0.345092
vt 0.502865 0.400427
vt 0.569904 0.659304
vt 0.510308 0.659886
vt 0.819298 0.172400
vt 0.251433 0.345093
vt 0.502865 0.289758
vt 0.631774 0.654907
vt 0.570415 0.712223
vt 0.510819 0.712806
vt 0.754298 0.330181
vt 0.502865 0.330181
vt 0.508775 0.501127
vt 0.760208 0.498873
vt 0.754297 0.161910
vt 0.502865 0.215879
vt 0.510071 0.774193
vt 0.569667 0.773624
vt 0.251433 0.511095
vt 0.502865 0.455761
vt 0.502865 0.511095
vt 0.754298 0.383091
vt 0.761741 0.340114
vt 0.761230 0.393034
vt 0.511111 0.743046
vt 0.570707 0.742463
vt 0.632308 0.710240
vt 0.632614 0.741858
vt 0.251433 0.258139
vt 0.762252 0.287194
vt 0.883207 0.345092
vt 0.632614 0.774416
vt 0.502865 0.247037
vt 0.884046 0.169188
vt 0.251433 0.169186
vt 0.251433 0.455761
vt 0.754298 0.009998
vt 0.754298 0.577087
vt 0.877999 0.511089
vt 0.381147 0.764054
vt 0.506468 0.882097
vt 0.000000 0.846720
vt 0.630171 0.488911
vt 0.251433 0.289758
vt 0.754297 0.215879
vn 0.0000 0.0000 1.0000
vn -1.0000 0.0075 -0.0000
vn -1.0000 -0.0088 -0.0014
vn -1.0000 -0.0088 -0.0000
vn 0.9082 0.4184 0.0000
vn -1.0000 0.0000 0.0013
vn -1.0000 -0.0085 -0.0000
vn 1.0000 -0.0007 0.0000
vn 0.0000 0.0000 -1.0000
vn -1.0000 0.0001 0.0006
vn -0.1078 -0.9942 0.0000
vn -0.8860 0.4637 0.0000
vn -0.2196 0.9756 0.0000
vn 0.1204 -0.9927 0.0000
vn 0.0290 0.9996 0.0000
vn -1.0000 0.0087 0.0000
vn -0.9994 0.0344 -0.0000
vn -0.0169 -0.9999 0.0000
vn 0.0271 0.9996 0.0000
vn -0.0056 1.0000 0.0000
vn 0.0206 -0.9998 0.0000
vn -0.9997 0.0237 -0.0000
vn -0.9997 -0.0233 -0.0001
vn -0.9996 -0.0295 -0.0000
vn -0.0602 0.9982 0.0000
vn 0.1112 0.9938 0.0000
vn 0.0224 -0.9997 0.0000
vn 0.1136 -0.9935 0.0000
vn -0.1100 0.9939 0.0000
vn 0.0856 0.9963 0.0000
vn -0.2068 -0.9784 0.0000
vn -0.0270 0.9996 0.0000
vn 0.1856 -0.9826 0.0000
vn 0.1423 0.9898 0.0000
vn -0.0799 -0.9968 0.0000
vn -0.0367 -0.9993 0.0000
vn -1.0000 0.0077 0.0000
vn -1.0000 0.0000 -0.0013
vn -1.0000 -0.0089 -0.0000
vn -1.0000 -0.0089 0.0014
vn -1.0000 0.0001 -0.0006
vn -1.0000 -0.0087 0.0000
vn -0.2198 0.9756 0.0000
vn -0.9994 0.0346 -0.0000
vn -0.0171 -0.9999 0.0000
vn 0.0208 -0.9998 0.0000
vn -0.9997 -0.0239 -0.0000
vn -0.9996 -0.0298 -0.0000
vn -0.1101 0.9939 0.0000
vn 0.0855 0.9963 -0.0000
vn 0.1424 0.9898 -0.0000
s off
f 47/1/1 33/2/1 45/3/1
f 3/4/2 6/5/2 4/6/2
f 4/6/3 11/7/3 12/8/3
f 72/9/1 11/10/1 6/11/1
f 12/8/4 3/4/4 4/6/4
f 7/12/5 2/13/5 1/14/5
f 31/15/1 22/16/1 20/17/1
f 3/4/6 9/18/6 5/19/6
f 12/8/7 13/20/7 14/21/7
f 70/22/1 13/23/1 11/10/1
f 14/21/7 10/24/7 12/8/7
f 15/25/8 8/26/8 7/12/8
f 21/27/9 27/28/9 19/29/9
f 10/24/10 17/30/10 9/18/10
f 5/31/11 76/32/11 80/33/11
f 76/34/1 11/10/1 75/35/1
f 19/36/12 22/37/12 21/38/12
f 48/39/9 36/40/9 38/41/9
f 74/42/13 13/43/13 71/44/13
f 27/45/14 20/46/14 19/47/14
f 45/48/15 37/49/15 49/50/15
f 21/38/16 24/51/16 23/52/16
f 75/35/1 13/23/1 77/53/1
f 56/54/17 53/55/17 54/56/17
f 58/57/9 41/58/9 43/59/9
f 38/60/18 46/61/18 48/62/18
f 57/63/9 43/59/9 42/64/9
f 42/65/19 62/66/19 57/67/19
f 62/68/1 40/69/1 61/70/1
f 61/70/1 44/71/1 59/72/1
f 32/73/20 49/50/20 28/74/20
f 28/75/9 50/76/9 29/77/9
f 47/1/1 32/78/1 30/79/1
f 29/77/9 48/39/9 27/28/9
f 46/80/1 30/79/1 31/15/1
f 48/62/21 31/81/21 27/45/21
f 52/82/22 55/83/22 56/54/22
f 54/56/23 25/84/23 26/85/23
f 17/86/24 51/87/24 52/82/24
f 23/88/9 29/77/9 21/27/9
f 7/89/9 60/90/9 58/57/9
f 24/91/25 28/74/25 23/92/25
f 57/67/26 16/93/26 15/94/26
f 64/95/1 44/71/1 40/69/1
f 8/96/1 59/72/1 2/97/1
f 50/76/9 37/98/9 36/40/9
f 44/99/27 65/100/27 41/101/27
f 41/58/9 67/102/9 43/59/9
f 43/59/9 68/103/9 42/64/9
f 46/80/1 35/104/1 47/1/1
f 66/105/28 69/106/28 65/100/28
f 65/107/9 73/108/9 67/102/9
f 67/102/9 74/109/9 68/103/9
f 74/42/29 63/110/29 68/111/29
f 15/112/9 58/57/9 57/63/9
f 16/113/1 61/70/1 8/96/1
f 33/114/30 79/115/30 37/49/30
f 36/40/9 79/116/9 78/117/9
f 35/104/1 77/53/1 33/2/1
f 2/118/31 60/119/31 1/120/31
f 68/111/32 39/121/32 42/65/32
f 63/122/1 40/69/1 39/123/1
f 17/124/9 73/108/9 9/125/9
f 9/125/9 69/126/9 5/127/9
f 69/106/33 6/128/33 5/31/33
f 71/129/1 64/95/1 63/122/1
f 70/22/1 66/130/1 64/95/1
f 38/41/9 78/117/9 80/131/9
f 17/124/9 78/117/9 79/116/9
f 79/115/34 13/43/34 17/132/34
f 9/125/9 80/131/9 78/117/9
f 34/133/1 75/35/1 35/104/1
f 80/33/35 34/134/35 38/60/35
f 59/135/36 41/101/36 60/119/36
f 30/79/1 24/136/1 22/16/1
f 47/1/1 35/104/1 33/2/1
f 3/4/37 5/19/37 6/5/37
f 4/6/38 6/5/38 11/7/38
f 72/9/1 70/22/1 11/10/1
f 12/8/39 10/24/39 3/4/39
f 7/12/5 8/26/5 2/13/5
f 31/15/1 30/79/1 22/16/1
f 3/4/40 10/24/40 9/18/40
f 12/8/41 11/7/41 13/20/41
f 70/22/1 71/129/1 13/23/1
f 14/21/42 18/137/42 10/24/42
f 15/25/8 16/138/8 8/26/8
f 21/27/9 29/77/9 27/28/9
f 10/24/42 18/137/42 17/30/42
f 5/31/11 6/128/11 76/32/11
f 76/34/1 6/11/1 11/10/1
f 19/36/12 20/139/12 22/37/12
f 48/39/9 50/76/9 36/40/9
f 74/42/43 17/132/43 13/43/43
f 27/45/14 31/81/14 20/46/14
f 45/48/15 33/114/15 37/49/15
f 21/38/16 22/37/16 24/51/16
f 75/35/1 11/10/1 13/23/1
f 56/54/44 55/83/44 53/55/44
f 58/57/9 60/90/9 41/58/9
f 38/60/45 34/134/45 46/61/45
f 57/63/9 58/57/9 43/59/9
f 42/65/19 39/121/19 62/66/19
f 62/68/1 39/123/1 40/69/1
f 61/70/1 40/69/1 44/71/1
f 32/73/20 45/48/20 49/50/20
f 28/75/9 49/140/9 50/76/9
f 47/1/1 45/3/1 32/78/1
f 29/77/9 50/76/9 48/39/9
f 46/80/1 47/1/1 30/79/1
f 48/62/46 46/61/46 31/81/46
f 52/82/22 51/87/22 55/83/22
f 54/56/47 53/55/47 25/84/47
f 17/86/48 13/141/48 51/87/48
f 23/88/9 28/75/9 29/77/9
f 7/89/9 1/142/9 60/90/9
f 24/91/25 32/73/25 28/74/25
f 57/67/26 62/66/26 16/93/26
f 64/95/1 66/130/1 44/71/1
f 8/96/1 61/70/1 59/72/1
f 50/76/9 49/140/9 37/98/9
f 44/99/27 66/105/27 65/100/27
f 41/58/9 65/107/9 67/102/9
f 43/59/9 67/102/9 68/103/9
f 46/80/1 34/133/1 35/104/1
f 66/105/28 72/143/28 69/106/28
f 65/107/9 69/126/9 73/108/9
f 67/102/9 73/108/9 74/109/9
f 74/42/49 71/44/49 63/110/49
f 15/112/9 7/89/9 58/57/9
f 16/113/1 62/68/1 61/70/1
f 33/114/50 77/144/50 79/115/50
f 36/40/9 37/98/9 79/116/9
f 35/104/1 75/35/1 77/53/1
f 2/118/31 59/135/31 60/119/31
f 68/111/32 63/110/32 39/121/32
f 63/122/1 64/95/1 40/69/1
f 17/124/9 74/109/9 73/108/9
f 9/125/9 73/108/9 69/126/9
f 69/106/33 72/143/33 6/128/33
f 71/129/1 70/22/1 64/95/1
f 70/22/1 72/9/1 66/130/1
f 38/41/9 36/40/9 78/117/9
f 17/124/9 9/125/9 78/117/9
f 79/115/51 77/144/51 13/43/51
f 9/125/9 5/127/9 80/131/9
f 34/133/1 76/34/1 75/35/1
f 80/33/35 76/32/35 34/134/35
f 59/135/36 44/99/36 41/101/36
f 30/79/1 32/78/1 24/136/1
