{
    "asset" : {
        "generator" : "Khronos glTF Blender I/O v1.6.16",
        "version" : "2.0"
    },
    "scene" : 0,
    "scenes" : [
        {
            "name" : "Scene",
            "nodes" : [
                0,
                1,
                2
            ]
        }
    ],
    "nodes" : [
        {
            "mesh" : 0,
            "name" : "Cube",
            "scale" : [
                0.4156690835952759,
                0.6487441062927246,
                0.4156690835952759
            ],
            "translation" : [
                0.005388110876083374,
                1.66472589969635,
                -0.07542867213487625
            ]
        },
        {
            "name" : "Camera",
            "rotation" : [
                0.483536034822464,
                0.33687159419059753,
                -0.20870360732078552,
                0.7804827094078064
            ],
            "translation" : [
                7.358891487121582,
                4.958309173583984,
                6.925790786743164
            ]
        },
        {
            "name" : "Point",
            "rotation" : [
                -0.4045032262802124,
                -0.21388490498065948,
                -0.10380486398935318,
                0.8830939531326294
            ],
            "translation" : [
                5.030266761779785,
                11.224494934082031,
                -10.0252685546875
            ]
        }
    ],
    "materials" : [
        {
            "doubleSided" : true,
            "name" : "Material",
            "pbrMetallicRoughness" : {
                "baseColorTexture" : {
                    "index" : 0
                },
                "metallicFactor" : 0.75,
                "roughnessFactor" : 0.4000000059604645
            }
        },
        {
            "doubleSided" : true,
            "name" : "Material.001",
            "pbrMetallicRoughness" : {
                "baseColorTexture" : {
                    "index" : 1
                },
                "metallicFactor" : 0.6323529481887817,
                "roughnessFactor" : 0.5
            }
        },
        {
            "doubleSided" : true,
            "name" : "Material.005",
            "pbrMetallicRoughness" : {
                "baseColorTexture" : {
                    "index" : 2
                },
                "metallicFactor" : 0,
                "roughnessFactor" : 0.5
            }
        },
        {
            "doubleSided" : true,
            "name" : "Material.004",
            "pbrMetallicRoughness" : {
                "baseColorTexture" : {
                    "index" : 3
                },
                "metallicFactor" : 0,
                "roughnessFactor" : 0.5
            }
        },
        {
            "doubleSided" : true,
            "name" : "Material.003",
            "pbrMetallicRoughness" : {
                "baseColorTexture" : {
                    "index" : 4
                },
                "metallicFactor" : 0,
                "roughnessFactor" : 0.5
            }
        },
        {
            "doubleSided" : true,
            "name" : "Material.002",
            "pbrMetallicRoughness" : {
                "baseColorTexture" : {
                    "index" : 5
                },
                "metallicFactor" : 0,
                "roughnessFactor" : 0.5
            }
        }
    ],
    "meshes" : [
        {
            "name" : "Cube",
            "primitives" : [
                {
                    "attributes" : {
                        "POSITION" : 0,
                        "NORMAL" : 1,
                        "TEXCOORD_0" : 2
                    },
                    "indices" : 3,
                    "material" : 0
                },
                {
                    "attributes" : {
                        "POSITION" : 4,
                        "NORMAL" : 5,
                        "TEXCOORD_0" : 6
                    },
                    "indices" : 7,
                    "material" : 1
                },
                {
                    "attributes" : {
                        "POSITION" : 8,
                        "NORMAL" : 9,
                        "TEXCOORD_0" : 10
                    },
                    "indices" : 11,
                    "material" : 2
                },
                {
                    "attributes" : {
                        "POSITION" : 12,
                        "NORMAL" : 13,
                        "TEXCOORD_0" : 14
                    },
                    "indices" : 11,
                    "material" : 3
                },
                {
                    "attributes" : {
                        "POSITION" : 15,
                        "NORMAL" : 16,
                        "TEXCOORD_0" : 17
                    },
                    "indices" : 18,
                    "material" : 4
                },
                {
                    "attributes" : {
                        "POSITION" : 19,
                        "NORMAL" : 20,
                        "TEXCOORD_0" : 21
                    },
                    "indices" : 18,
                    "material" : 5
                }
            ]
        }
    ],
    "textures" : [
        {
            "sampler" : 0,
            "source" : 0
        },
        {
            "sampler" : 0,
            "source" : 0
        },
        {
            "sampler" : 0,
            "source" : 0
        },
        {
            "sampler" : 0,
            "source" : 0
        },
        {
            "sampler" : 0,
            "source" : 0
        },
        {
            "sampler" : 0,
            "source" : 0
        }
    ],
    "images" : [
        {
            "bufferView" : 4,
            "mimeType" : "image/png",
            "name" : "trashy new tex2 WORD"
        }
    ],
    "accessors" : [
        {
            "bufferView" : 0,
            "componentType" : 5126,
            "count" : 96,
            "max" : [
                1,
                1,
                1
            ],
            "min" : [
                -1,
                -1,
                -1
            ],
            "type" : "VEC3"
        },
        {
            "bufferView" : 1,
            "componentType" : 5126,
            "count" : 96,
            "type" : "VEC3"
        },
        {
            "bufferView" : 2,
            "componentType" : 5126,
            "count" : 96,
            "type" : "VEC2"
        },
        {
            "bufferView" : 3,
            "componentType" : 5123,
            "count" : 132,
            "type" : "SCALAR"
        },
        {
            "bufferView" : 5,
            "componentType" : 5126,
            "count" : 151,
            "max" : [
                0.9290083050727844,
                1.4879341125488281,
                0.9768653512001038
            ],
            "min" : [
                -0.9377290606498718,
                0.8898972272872925,
                -0.9542871713638306
            ],
            "type" : "VEC3"
        },
        {
            "bufferView" : 6,
            "componentType" : 5126,
            "count" : 151,
            "type" : "VEC3"
        },
        {
            "bufferView" : 7,
            "componentType" : 5126,
            "count" : 151,
            "type" : "VEC2"
        },
        {
            "bufferView" : 8,
            "componentType" : 5123,
            "count" : 390,
            "type" : "SCALAR"
        },
        {
            "bufferView" : 9,
            "componentType" : 5126,
            "count" : 908,
            "max" : [
                -0.9299043416976929,
                0.7340630888938904,
                0.009231939911842346
            ],
            "min" : [
                -3.010079860687256,
                0.6152007579803467,
                -0.18257133662700653
            ],
            "type" : "VEC3"
        },
        {
            "bufferView" : 10,
            "componentType" : 5126,
            "count" : 908,
            "type" : "VEC3"
        },
        {
            "bufferView" : 11,
            "componentType" : 5126,
            "count" : 908,
            "type" : "VEC2"
        },
        {
            "bufferView" : 12,
            "componentType" : 5123,
            "count" : 2130,
            "type" : "SCALAR"
        },
        {
            "bufferView" : 13,
            "componentType" : 5126,
            "count" : 908,
            "max" : [
                2.966982841491699,
                0.7340630888938904,
                0.009231939911842346
            ],
            "min" : [
                0.8868071436882019,
                0.6152007579803467,
                -0.18257133662700653
            ],
            "type" : "VEC3"
        },
        {
            "bufferView" : 14,
            "componentType" : 5126,
            "count" : 908,
            "type" : "VEC3"
        },
        {
            "bufferView" : 15,
            "componentType" : 5126,
            "count" : 908,
            "type" : "VEC2"
        },
        {
            "bufferView" : 16,
            "componentType" : 5126,
            "count" : 1570,
            "max" : [
                -0.5382731556892395,
                -0.938988447189331,
                0.05389587581157684
            ],
            "min" : [
                -0.763911783695221,
                -2.6404495239257812,
                -0.53659987449646
            ],
            "type" : "VEC3"
        },
        {
            "bufferView" : 17,
            "componentType" : 5126,
            "count" : 1570,
            "type" : "VEC3"
        },
        {
            "bufferView" : 18,
            "componentType" : 5126,
            "count" : 1570,
            "type" : "VEC2"
        },
        {
            "bufferView" : 19,
            "componentType" : 5123,
            "count" : 3798,
            "type" : "SCALAR"
        },
        {
            "bufferView" : 20,
            "componentType" : 5126,
            "count" : 1570,
            "max" : [
                0.6800679564476013,
                -0.938988447189331,
                0.05389587581157684
            ],
            "min" : [
                0.4544293284416199,
                -2.6404495239257812,
                -0.53659987449646
            ],
            "type" : "VEC3"
        },
        {
            "bufferView" : 21,
            "componentType" : 5126,
            "count" : 1570,
            "type" : "VEC3"
        },
        {
            "bufferView" : 22,
            "componentType" : 5126,
            "count" : 1570,
            "type" : "VEC2"
        }
    ],
    "bufferViews" : [
        {
            "buffer" : 0,
            "byteLength" : 1152,
            "byteOffset" : 0
        },
        {
            "buffer" : 0,
            "byteLength" : 1152,
            "byteOffset" : 1152
        },
        {
            "buffer" : 0,
            "byteLength" : 768,
            "byteOffset" : 2304
        },
        {
            "buffer" : 0,
            "byteLength" : 264,
            "byteOffset" : 3072
        },
        {
            "buffer" : 0,
            "byteLength" : 24474,
            "byteOffset" : 3336
        },
        {
            "buffer" : 0,
            "byteLength" : 1812,
            "byteOffset" : 27812
        },
        {
            "buffer" : 0,
            "byteLength" : 1812,
            "byteOffset" : 29624
        },
        {
            "buffer" : 0,
            "byteLength" : 1208,
            "byteOffset" : 31436
        },
        {
            "buffer" : 0,
            "byteLength" : 780,
            "byteOffset" : 32644
        },
        {
            "buffer" : 0,
            "byteLength" : 10896,
            "byteOffset" : 33424
        },
        {
            "buffer" : 0,
            "byteLength" : 10896,
            "byteOffset" : 44320
        },
        {
            "buffer" : 0,
            "byteLength" : 7264,
            "byteOffset" : 55216
        },
        {
            "buffer" : 0,
            "byteLength" : 4260,
            "byteOffset" : 62480
        },
        {
            "buffer" : 0,
            "byteLength" : 10896,
            "byteOffset" : 66740
        },
        {
            "buffer" : 0,
            "byteLength" : 10896,
            "byteOffset" : 77636
        },
        {
            "buffer" : 0,
            "byteLength" : 7264,
            "byteOffset" : 88532
        },
        {
            "buffer" : 0,
            "byteLength" : 18840,
            "byteOffset" : 95796
        },
        {
            "buffer" : 0,
            "byteLength" : 18840,
            "byteOffset" : 114636
        },
        {
            "buffer" : 0,
            "byteLength" : 12560,
            "byteOffset" : 133476
        },
        {
            "buffer" : 0,
            "byteLength" : 7596,
            "byteOffset" : 146036
        },
        {
            "buffer" : 0,
            "byteLength" : 18840,
            "byteOffset" : 153632
        },
        {
            "buffer" : 0,
            "byteLength" : 18840,
            "byteOffset" : 172472
        },
        {
            "buffer" : 0,
            "byteLength" : 12560,
            "byteOffset" : 191312
        }
    ],
    "samplers" : [
        {
            "magFilter" : 9729,
            "minFilter" : 9987
        }
    ],
    "buffers" : [
        {
            "byteLength" : 203872,
            "uri" : "data:application/octet-stream;base64,"
        }
    ]
}
