# Blender 3.1.0
# www.blender.org
o Cube
v 0.551046 0.265071 -4.705678
v 0.438075 0.244805 4.688596
v -0.551046 0.265071 -4.705678
v -0.438075 0.244805 4.688596
v 1.000000 0.345610 -4.304454
v -1.000000 0.345610 -4.304454
v 0.892002 0.326236 -4.450143
v -0.892002 0.326236 -4.450143
v 0.751700 0.301067 -4.582139
v -0.751700 0.301067 -4.582139
v -1.000000 0.345610 4.304454
v 1.000000 0.345610 4.304454
v -0.784285 0.306912 4.461966
v 0.784285 0.306912 4.461966
v -0.625761 0.278474 4.586666
v 0.625761 0.278474 4.586666
v 1.000000 0.166218 -4.304454
v -1.000000 0.166218 4.304454
v 1.000000 0.166218 4.304454
v -1.000000 0.166218 -4.304454
v 0.892002 0.166218 -4.450143
v -0.892002 0.166218 -4.450143
v 0.751700 0.166218 -4.582139
v -0.751700 0.166218 -4.582139
v 0.551046 0.166218 -4.705678
v -0.551046 0.166218 -4.705678
v -0.784285 0.166218 4.461966
v 0.784285 0.166218 4.461966
v -0.625761 0.166218 4.586666
v 0.625761 0.166218 4.586666
v -0.438075 0.166218 4.688596
v 0.438075 0.166218 4.688596
vn -0.0000 1.0000 -0.0000
vn -0.0000 -0.0000 1.0000
vn -1.0000 -0.0000 -0.0000
vn 1.0000 -0.0000 -0.0000
vn -0.0000 -0.0000 -1.0000
vn 0.8033 -0.0000 -0.5955
vn -0.0000 0.9913 -0.1318
vn 0.6852 -0.0000 -0.7283
vn -0.0000 0.9823 -0.1873
vn 0.5243 -0.0000 -0.8515
vn -0.0000 0.9601 -0.2797
vn -0.5897 -0.0000 0.8076
vn -0.0000 0.9711 0.2386
vn -0.6183 -0.0000 0.7860
vn -0.0000 0.9750 0.2223
vn -0.4773 -0.0000 0.8788
vn -0.0000 0.9495 0.3136
vn 0.4772 -0.0000 0.8788
vn 0.6183 -0.0000 0.7860
vn 0.5897 -0.0000 0.8076
vn -0.5243 -0.0000 -0.8515
vn -0.6852 -0.0000 -0.7283
vn -0.8033 -0.0000 -0.5955
vn -0.4772 -0.0000 0.8788
vt 0.792281 0.204779
vt 0.706519 0.189640
vt 0.745336 0.096443
vt 0.809551 0.190345
vt 0.706520 0.085798
vt 0.792281 0.100937
vt 0.745336 0.178996
vt 0.809551 0.107792
vt 0.587041 0.960108
vt 0.692367 0.039156
vt 0.799870 0.262219
vt 0.745153 0.231942
vt 0.799870 0.043497
vt 0.370484 0.960108
vt 0.669439 0.851603
vt 0.745153 0.043497
vt 0.731305 0.221766
vt 0.798044 0.245132
vt 0.731305 0.053673
vt 0.798044 0.060585
vt 0.718644 0.208546
vt 0.795673 0.226981
vt 0.718644 0.066892
vt 0.795673 0.078735
vt 0.370485 0.027950
vt 0.669441 0.040414
vt 0.800053 0.043497
vt 0.782784 0.231942
vt 0.800053 0.254639
vt 0.587041 0.027950
vt 0.692364 0.850345
vt 0.782784 0.043497
vt 0.803699 0.068664
vt 0.767501 0.211617
vt 0.767501 0.063822
vt 0.803699 0.229472
vt 0.806379 0.087668
vt 0.755450 0.196680
vt 0.755450 0.078759
vt 0.806378 0.210469
vt 0.675464 0.039156
vt 0.782967 0.262219
vt 0.652538 0.040414
vt 0.816956 0.043497
vt 0.675464 0.850345
vt 0.816955 0.254639
vt 0.652539 0.851603
vt 0.782967 0.043497
vt 0.782967 0.245132
vt 0.782967 0.060585
vt 0.782967 0.226981
vt 0.782967 0.078735
vt 0.782967 0.204779
vt 0.782967 0.100937
vt 0.816956 0.068664
vt 0.816956 0.229472
vt 0.816956 0.087668
vt 0.816956 0.210469
vt 0.816956 0.107792
vt 0.816956 0.190345
s 0
f 6/14/1 12/30/1 5/9/1
f 2/4/2 31/59/2 32/60/2
f 11/26/3 20/47/3 18/43/3
f 5/10/4 19/45/4 17/41/4
f 3/6/5 25/53/5 26/54/5
f 7/18/6 17/42/6 21/49/6
f 8/19/7 5/12/7 7/17/7
f 9/22/8 21/49/8 23/51/8
f 9/21/9 8/19/9 7/17/9
f 1/1/10 23/51/10 25/53/10
f 1/2/11 10/23/11 9/21/11
f 13/33/12 18/44/12 27/55/12
f 14/35/13 11/28/13 13/34/13
f 15/37/14 27/55/14 29/57/14
f 16/39/15 13/34/15 15/38/15
f 4/8/16 29/57/16 31/59/16
f 2/3/17 15/38/17 4/7/17
f 2/4/18 30/58/18 16/40/18
f 16/40/19 28/56/19 14/36/19
f 14/36/20 19/46/20 12/29/20
f 3/6/21 24/52/21 10/24/21
f 10/24/22 22/50/22 8/20/22
f 8/20/23 20/48/23 6/13/23
f 6/14/1 11/25/1 12/30/1
f 2/4/2 4/8/2 31/59/2
f 11/26/3 6/15/3 20/47/3
f 5/10/4 12/31/4 19/45/4
f 3/6/5 1/1/5 25/53/5
f 7/18/6 5/11/6 17/42/6
f 8/19/7 6/16/7 5/12/7
f 9/22/8 7/18/8 21/49/8
f 9/21/9 10/23/9 8/19/9
f 1/1/10 9/22/10 23/51/10
f 1/2/11 3/5/11 10/23/11
f 13/33/12 11/27/12 18/44/12
f 14/35/13 12/32/13 11/28/13
f 15/37/14 13/33/14 27/55/14
f 16/39/15 14/35/15 13/34/15
f 4/8/24 15/37/24 29/57/24
f 2/3/17 16/39/17 15/38/17
f 2/4/18 32/60/18 30/58/18
f 16/40/19 30/58/19 28/56/19
f 14/36/20 28/56/20 19/46/20
f 3/6/21 26/54/21 24/52/21
f 10/24/22 24/52/22 22/50/22
f 8/20/23 22/50/23 20/48/23
