# Blender v3.0.1 OBJ File: 'library shelf.blend'
# www.blender.org
o Cube
v -1.000000 -0.000000 3.028378
v -1.000000 6.171564 3.028378
v -1.000000 -0.000000 2.571622
v -1.000000 6.171564 2.571622
v 1.000000 -0.000000 3.028378
v 1.000000 6.171564 3.028378
v 1.000000 -0.000000 2.571622
v 1.000000 6.171564 2.571622
vt 0.251354 0.873895
vt 0.444284 0.859616
vt 0.444284 0.873895
vt 0.251354 0.859616
vt 0.444284 0.797094
vt 0.251354 0.950696
vt 0.444284 0.936417
vt 0.444284 0.950696
vt 0.251354 0.936417
vt 0.458563 0.936417
vt 0.458563 0.873895
vt 0.237075 0.873895
vt 0.237075 0.936417
vt 0.251354 0.797094
vn -1.0000 0.0000 0.0000
vn 0.0000 0.0000 -1.0000
vn 1.0000 0.0000 0.0000
vn 0.0000 0.0000 1.0000
vn 0.0000 -1.0000 0.0000
vn 0.0000 1.0000 0.0000
s off
f 2/1/1 3/2/1 1/3/1
f 4/4/2 7/5/2 3/2/2
f 8/6/3 5/7/3 7/8/3
f 6/9/4 1/3/4 5/7/4
f 7/10/5 1/3/5 3/11/5
f 4/12/6 6/9/6 8/13/6
f 2/1/1 4/4/1 3/2/1
f 4/4/2 8/14/2 7/5/2
f 8/6/3 6/9/3 5/7/3
f 6/9/4 2/1/4 1/3/4
f 7/10/5 5/7/5 1/3/5
f 4/12/6 2/1/6 6/9/6
o Cube.001
v -1.000000 -0.000000 -2.571622
v -1.000000 6.171564 -2.571622
v -1.000000 -0.000000 -3.028378
v -1.000000 6.171564 -3.028378
v 1.000000 -0.000000 -2.571622
v 1.000000 6.171564 -2.571622
v 1.000000 -0.000000 -3.028378
v 1.000000 6.171564 -3.028378
vt 0.444284 0.705748
vt 0.251354 0.720026
vt 0.251354 0.705748
vt 0.444284 0.720026
vt 0.251354 0.782549
vt 0.444284 0.782549
vt 0.251354 0.796827
vt 0.444284 0.643226
vt 0.251354 0.643225
vt 0.237076 0.720026
vt 0.458563 0.782549
vt 0.444284 0.796828
vt 0.237076 0.782549
vt 0.458563 0.720026
vn -1.0000 0.0000 0.0000
vn 0.0000 0.0000 -1.0000
vn 1.0000 0.0000 0.0000
vn 0.0000 0.0000 1.0000
vn 0.0000 -1.0000 0.0000
vn 0.0000 1.0000 0.0000
s off
f 10/15/7 11/16/7 9/17/7
f 12/18/8 15/19/8 11/16/8
f 16/20/9 13/21/9 15/19/9
f 14/22/10 9/17/10 13/23/10
f 15/19/11 9/24/11 11/16/11
f 12/18/12 14/25/12 16/20/12
f 10/15/7 12/18/7 11/16/7
f 12/18/8 16/20/8 15/19/8
f 16/20/9 14/26/9 13/21/9
f 14/22/10 10/15/10 9/17/10
f 15/19/11 13/27/11 9/24/11
f 12/18/12 10/28/12 14/25/12
o Cube.002
v -0.900000 1.638198 2.748401
v -0.900000 1.961803 2.748401
v -0.900000 1.638198 -2.748401
v -0.900000 1.961803 -2.748401
v 0.900000 1.638198 2.748401
v 0.900000 1.961803 2.748401
v 0.900000 1.638198 -2.748401
v 0.900000 1.961803 -2.748401
vt 0.032022 0.463371
vt 0.203858 0.473487
vt 0.032022 0.473488
vt 0.213974 0.473487
vt 0.203858 0.529757
vt 0.203858 0.539874
vt 0.032022 0.529758
vt 0.021906 0.529758
vt 0.203858 0.463371
vt 0.032022 0.407101
vt 0.203858 0.407101
vt 0.213974 0.529757
vt 0.032022 0.539874
vt 0.021906 0.473488
vn -1.0000 0.0000 0.0000
vn 0.0000 0.0000 -1.0000
vn 1.0000 0.0000 0.0000
vn 0.0000 0.0000 1.0000
vn 0.0000 -1.0000 0.0000
vn 0.0000 1.0000 0.0000
s off
f 18/29/13 19/30/13 17/31/13
f 20/32/14 23/33/14 19/30/14
f 24/34/15 21/35/15 23/33/15
f 22/36/16 17/31/16 21/35/16
f 23/33/17 17/31/17 19/30/17
f 20/37/18 22/38/18 24/39/18
f 18/29/13 20/37/13 19/30/13
f 20/32/14 24/40/14 23/33/14
f 24/34/15 22/41/15 21/35/15
f 22/36/16 18/42/16 17/31/16
f 23/33/17 21/35/17 17/31/17
f 20/37/18 18/29/18 22/38/18
o Cube.003_Cube.005
v -0.900000 3.538197 2.748401
v -0.900000 3.861802 2.748401
v -0.900000 3.538197 -2.748401
v -0.900000 3.861802 -2.748401
v 0.900000 3.538197 2.748401
v 0.900000 3.861802 2.748401
v 0.900000 3.538197 -2.748401
v 0.900000 3.861802 -2.748401
vt 0.247192 0.566457
vt 0.419028 0.576573
vt 0.247192 0.576573
vt 0.429144 0.576573
vt 0.419028 0.632843
vt 0.419028 0.642959
vt 0.247192 0.632843
vt 0.237076 0.632843
vt 0.419028 0.566457
vt 0.247192 0.510187
vt 0.419028 0.510187
vt 0.429144 0.632843
vt 0.247192 0.642959
vt 0.237076 0.576573
vn -1.0000 0.0000 0.0000
vn 0.0000 0.0000 -1.0000
vn 1.0000 0.0000 0.0000
vn 0.0000 0.0000 1.0000
vn 0.0000 -1.0000 0.0000
vn 0.0000 1.0000 0.0000
s off
f 26/43/19 27/44/19 25/45/19
f 28/46/20 31/47/20 27/44/20
f 32/48/21 29/49/21 31/47/21
f 30/50/22 25/45/22 29/49/22
f 31/47/23 25/45/23 27/44/23
f 28/51/24 30/52/24 32/53/24
f 26/43/19 28/51/19 27/44/19
f 28/46/20 32/54/20 31/47/20
f 32/48/21 30/55/21 29/49/21
f 30/50/22 26/56/22 25/45/22
f 31/47/23 29/49/23 25/45/23
f 28/51/24 26/43/24 30/52/24
o Cube.005_Cube.006
v -0.900000 5.738197 2.748401
v -0.900000 6.061802 2.748401
v -0.900000 5.738197 -2.748401
v -0.900000 6.061802 -2.748401
v 0.900000 5.738197 2.748401
v 0.900000 6.061802 2.748401
v 0.900000 5.738197 -2.748401
v 0.900000 6.061802 -2.748401
vt 0.247192 0.433418
vt 0.419028 0.443534
vt 0.247192 0.443534
vt 0.429144 0.443534
vt 0.419028 0.499804
vt 0.419028 0.509920
vt 0.247192 0.499804
vt 0.237076 0.499804
vt 0.419028 0.433418
vt 0.247192 0.377148
vt 0.419028 0.377148
vt 0.429144 0.499804
vt 0.247192 0.509920
vt 0.237076 0.443534
vn -1.0000 0.0000 0.0000
vn 0.0000 0.0000 -1.0000
vn 1.0000 0.0000 0.0000
vn 0.0000 0.0000 1.0000
vn 0.0000 -1.0000 0.0000
vn 0.0000 1.0000 0.0000
s off
f 34/57/25 35/58/25 33/59/25
f 36/60/26 39/61/26 35/58/26
f 40/62/27 37/63/27 39/61/27
f 38/64/28 33/59/28 37/63/28
f 39/61/29 33/59/29 35/58/29
f 36/65/30 38/66/30 40/67/30
f 34/57/25 36/65/25 35/58/25
f 36/60/26 40/68/26 39/61/26
f 40/62/27 38/69/27 37/63/27
f 38/64/28 34/70/28 33/59/28
f 39/61/29 37/63/29 33/59/29
f 36/65/30 34/57/30 38/66/30
o Cube.006_Cube.007
v 0.792962 0.023764 3.023153
v 0.792962 6.176236 3.023153
v 0.792962 0.023764 -3.023153
v 0.792962 6.176236 -3.023153
v 1.207038 0.023764 3.023153
v 1.207038 6.176236 3.023153
v 1.207038 0.023764 -3.023153
v 1.207038 6.176236 -3.023153
vt 0.223864 0.937751
vt 0.034850 0.745418
vt 0.223865 0.745418
vt 0.021906 0.540140
vt 0.034850 0.732473
vt 0.021906 0.732473
vt 0.034850 0.540140
vt 0.223865 0.732473
vt 0.223865 0.540140
vt 0.236809 0.732473
vt 0.034850 0.937751
vt 0.223864 0.950696
vt 0.034850 0.950696
vt 0.236809 0.540140
vn -1.0000 0.0000 0.0000
vn 0.0000 0.0000 -1.0000
vn 1.0000 0.0000 0.0000
vn 0.0000 0.0000 1.0000
vn 0.0000 -1.0000 0.0000
vn 0.0000 1.0000 0.0000
s off
f 42/71/31 43/72/31 41/73/31
f 44/74/32 47/75/32 43/76/32
f 48/77/33 45/78/33 47/75/33
f 46/79/34 41/80/34 45/78/34
f 47/75/35 41/73/35 43/72/35
f 44/81/36 46/82/36 48/83/36
f 42/71/31 44/81/31 43/72/31
f 44/74/32 48/77/32 47/75/32
f 48/77/33 46/79/33 45/78/33
f 46/79/34 42/84/34 41/80/34
f 47/75/35 45/78/35 41/73/35
f 44/81/36 42/71/36 46/82/36
o Cube.007_Cube.008
v -0.680483 3.837113 2.414625
v -0.680483 5.200622 2.414625
v -0.680483 3.837113 -1.400059
v -0.680483 5.200622 -1.400059
v 0.680921 3.837113 2.414625
v 0.680921 5.200622 2.414625
v 0.680921 3.837113 -1.400059
v 0.680921 5.200622 -1.400059
vt 0.733516 0.176289
vt 0.288203 0.017117
vt 0.733516 0.017117
vt 0.288203 0.176289
vt 0.129277 0.017117
vt 0.892442 0.176289
vt 0.892442 0.017117
vt 0.733516 0.335214
vt 0.288203 0.335214
vt 0.129277 0.176289
vn -1.0000 0.0000 0.0000
vn 0.0000 0.0000 -1.0000
vn 0.0000 0.0000 1.0000
vn 0.0000 1.0000 0.0000
s off
f 50/85/37 51/86/37 49/87/37
f 52/88/38 55/89/38 51/86/38
f 54/90/39 49/87/39 53/91/39
f 52/88/40 54/92/40 56/93/40
f 50/85/37 52/88/37 51/86/37
f 52/88/38 56/94/38 55/89/38
f 54/90/39 50/85/39 49/87/39
f 52/88/40 50/85/40 54/92/40
o Cube.009_Cube.010
v -0.680483 1.940076 -1.092500
v -0.680483 3.303584 -1.092500
v -0.680483 1.940076 -2.085382
v -0.680483 3.303584 -2.085382
v 0.680921 1.940076 -1.092500
v 0.680921 3.303584 -1.092500
v 0.680921 1.940076 -2.085382
v 0.680921 3.303584 -2.085382
vt 0.768896 0.694527
vt 0.959856 0.555473
vt 0.959856 0.694527
vt 0.768896 0.555473
vt 0.959856 0.364807
vt 0.768896 0.885193
vt 0.959856 0.885193
vt 0.578230 0.694527
vt 0.578230 0.555473
vt 0.768896 0.364807
vn -1.0000 0.0000 0.0000
vn 0.0000 0.0000 -1.0000
vn 0.0000 0.0000 1.0000
vn 0.0000 1.0000 0.0000
s off
f 58/95/41 59/96/41 57/97/41
f 60/98/42 63/99/42 59/96/42
f 62/100/43 57/97/43 61/101/43
f 60/98/44 62/102/44 64/103/44
f 58/95/41 60/98/41 59/96/41
f 60/98/42 64/104/42 63/99/42
f 62/100/43 58/95/43 57/97/43
f 60/98/44 58/95/44 62/102/44
