# Blender 3.1.0
# www.blender.org
o Cube
v 0.724827 2.000000 -9.532434
v 0.724827 2.000000 9.532434
v -0.724827 2.000000 -9.532434
v -0.724827 2.000000 9.532434
v 0.724827 1.719593 9.532434
v -0.724827 1.719593 9.532434
v 0.724827 1.719593 -9.532434
v -0.724827 1.719593 -9.532434
v 1.203465 0.000000 -8.632993
v 1.203465 0.051758 -10.177513
v 1.418776 0.151758 -8.632993
v 1.418776 0.151758 8.632993
v 1.203465 0.051758 10.177513
v 1.203465 0.000000 8.632993
v -1.418776 0.151758 -8.632993
v -1.203465 0.051758 -10.177513
v -1.203465 0.000000 -8.632993
v -1.203465 0.000000 8.632993
v -1.203465 0.051758 10.177513
v -1.418776 0.151758 8.632993
v 1.418776 1.848242 8.632993
v 1.179580 2.000000 9.955162
v 1.203465 1.848242 10.177513
v -1.418776 1.848242 8.632993
v -1.203465 1.848242 10.177513
v -1.179580 2.000000 9.955162
v 1.203465 1.848242 -10.177513
v 1.179580 2.000000 -9.955162
v 1.418776 1.848242 -8.632993
v -1.203465 1.848242 -10.177513
v -1.418776 1.848242 -8.632993
v -1.179580 2.000000 -9.955162
vn -0.0000 -0.0000 1.0000
vn -0.8853 0.4631 0.0428
vn -0.9975 -0.0000 -0.0706
vn -0.9975 -0.0000 0.0706
vn -0.0000 1.0000 -0.0000
vn 0.4934 0.8290 0.2631
vn 0.8853 0.4631 -0.0428
vn 0.9975 -0.0000 0.0706
vn 0.9975 -0.0000 -0.0706
vn 0.4934 0.8290 -0.2631
vn -0.4934 0.8290 0.2631
vn -0.4934 0.8290 -0.2631
vn -1.0000 -0.0000 -0.0000
vn 1.0000 -0.0000 -0.0000
vn -0.0000 -0.0000 -1.0000
vn 0.5761 -0.8173 -0.0136
vn 0.5759 -0.8171 -0.0274
vn 0.5761 -0.8173 -0.0130
vn 0.5761 -0.8173 0.0130
vn 0.5759 -0.8171 0.0274
vn 0.5761 -0.8173 0.0136
vn -0.5761 -0.8173 -0.0130
vn -0.5759 -0.8171 -0.0274
vn -0.5761 -0.8173 -0.0136
vn -0.5761 -0.8173 0.0136
vn -0.5759 -0.8171 0.0274
vn -0.5761 -0.8173 0.0130
vn 0.8853 0.4631 0.0428
vn 0.9856 0.0987 0.1374
vn -0.9856 0.0987 0.1374
vn 0.9856 0.0987 -0.1374
vn -0.9856 0.0987 -0.1374
vn -0.8853 0.4631 -0.0428
vn -0.9904 -0.0000 0.1381
vn -0.0000 0.8260 0.5637
vn -0.0000 0.8260 -0.5637
vn -0.0000 -1.0000 -0.0000
vn 0.9904 -0.0000 -0.1381
vn 0.9904 -0.0000 0.1381
vn -0.9904 -0.0000 -0.1381
vt 0.520059 0.155556
vt 0.339986 0.034893
vt 0.339986 0.941092
vt 0.520059 0.128072
vt 0.449843 0.155556
vt 0.190800 0.941092
vt 0.449843 0.128072
vt 0.190800 0.034893
vt 0.426340 0.007542
vt 0.355803 0.941070
vt 0.520059 0.141654
vt 0.356123 0.007542
vt 0.206617 0.034871
vt 0.449843 0.141654
vt 0.426340 0.930976
vt 0.520059 0.141974
vt 0.355803 0.034871
vt 0.449843 0.141974
vt 0.356123 0.930976
vt 0.206617 0.941070
vt 0.206937 0.088058
vt 0.211421 0.009981
vt 0.543243 0.276086
vt 0.680577 0.007491
vt 0.220633 0.088265
vt 0.221750 0.888922
vt 0.543243 0.007542
vt 0.213095 0.966164
vt 0.680577 0.993418
vt 0.208250 0.889206
vt 0.072564 0.888922
vt 0.426660 0.276086
vt 0.563994 0.007491
vt 0.063908 0.966165
vt 0.059063 0.889206
vt 0.057751 0.088058
vt 0.062235 0.009981
vt 0.426660 0.007542
vt 0.563994 0.993418
vt 0.071446 0.088265
vt 0.303096 0.890652
vt 0.310009 0.957464
vt 0.542086 0.107596
vt 0.318370 0.961185
vt 0.543243 0.094557
vt 0.301826 0.968107
vt 0.153910 0.086098
vt 0.152221 0.007542
vt 0.426660 0.094557
vt 0.160576 0.018294
vt 0.169185 0.014800
vt 0.427816 0.107596
vt 0.301407 0.007542
vt 0.543243 0.189070
vt 0.309762 0.018294
vt 0.318371 0.014800
vt 0.542086 0.176031
vt 0.303096 0.086097
vt 0.152639 0.968107
vt 0.426660 0.189070
vt 0.153909 0.890652
vt 0.160822 0.957464
vt 0.169184 0.961185
vt 0.427816 0.176031
s 1
f 3/5/1 7/16/1 1/1/1
f 24/47/2 15/31/3 20/40/4
f 4/7/5 22/43/6 2/4/5
f 23/45/1 19/38/1 13/27/1
f 29/58/7 12/26/8 11/25/9
f 2/3/5 28/56/10 1/2/5
f 3/6/5 26/51/11 4/8/5
f 1/1/5 32/64/12 3/5/5
f 8/19/5 5/9/5 7/15/5
f 1/2/13 5/10/13 2/3/13
f 4/8/14 8/20/14 3/6/14
f 2/4/15 6/14/15 4/7/15
f 9/21/16 10/22/17 11/25/18
f 12/26/19 13/28/20 14/30/21
f 15/31/22 16/34/23 17/35/24
f 18/36/25 19/37/26 20/40/27
f 21/41/28 22/42/6 23/46/29
f 24/47/2 25/48/30 26/50/11
f 27/53/31 28/55/10 29/58/7
f 30/59/32 31/61/33 32/62/12
f 18/36/25 15/31/22 17/35/24
f 11/25/9 27/53/31 29/58/7
f 25/48/30 20/40/4 19/37/34
f 23/46/29 12/26/8 21/41/28
f 30/59/32 15/31/3 31/61/33
f 22/43/6 25/49/35 23/45/35
f 22/44/6 29/58/7 28/56/10
f 32/63/12 24/47/2 26/51/11
f 32/64/12 27/54/36 30/60/36
f 9/21/16 12/26/19 14/30/21
f 30/60/15 10/23/15 16/32/15
f 10/24/37 19/39/37 16/33/37
f 3/5/1 8/18/1 7/16/1
f 24/47/2 31/61/33 15/31/3
f 4/7/5 26/52/11 22/43/6
f 23/45/1 25/49/1 19/38/1
f 29/58/7 21/41/28 12/26/8
f 2/3/5 22/44/6 28/56/10
f 3/6/5 32/63/12 26/51/11
f 1/1/5 28/57/10 32/64/12
f 8/19/5 6/12/5 5/9/5
f 1/2/13 7/17/13 5/10/13
f 4/8/14 6/13/14 8/20/14
f 2/4/15 5/11/15 6/14/15
f 18/36/25 20/40/27 15/31/22
f 11/25/9 10/22/38 27/53/31
f 25/48/30 24/47/2 20/40/4
f 23/46/29 13/28/39 12/26/8
f 30/59/32 16/34/40 15/31/3
f 22/43/6 26/52/11 25/49/35
f 22/44/6 21/41/28 29/58/7
f 32/63/12 31/61/33 24/47/2
f 32/64/12 28/57/10 27/54/36
f 9/21/16 11/25/18 12/26/19
f 30/60/15 27/54/15 10/23/15
f 10/24/37 13/29/37 19/39/37
