# Blender v3.1.2 OBJ File: 'Trashbag.blend'
# www.blender.org
o Quad_Sphere
v -0.584589 0.299804 0.179396
v -0.534271 0.529970 0.100113
v -0.632135 0.446760 -0.106443
v -0.633111 0.248575 -0.146488
v -0.410444 0.255569 0.327569
v -0.188429 0.136846 0.367458
v -0.066114 0.270765 0.393099
v -0.487445 0.118179 0.109674
v -0.373192 0.126662 0.303412
v -0.322872 0.072411 0.088660
v -0.539964 0.371072 0.231070
v -0.301357 0.458087 0.268575
v -0.069176 0.417156 0.268901
v -0.191897 0.077016 -0.603546
v 0.025294 0.557900 0.405913
v -0.338638 0.557283 0.236624
v -0.448841 0.685095 0.049176
v -0.313013 0.737280 0.192958
v -0.337078 0.834462 0.042943
v -0.374436 0.782695 -0.137063
v -0.207657 0.824475 -0.241087
v 0.002289 0.674229 0.362276
v -0.097696 0.832047 0.267809
v -0.129112 0.893506 -0.098057
v 0.049361 0.878313 -0.006678
v -0.511509 0.183700 -0.466613
v -0.320365 0.140340 -0.651091
v -0.387787 0.412015 -0.568572
v -0.204034 0.347679 -0.697693
v -0.085209 0.138225 -0.718502
v -0.610503 0.437287 -0.230268
v -0.404698 0.554480 -0.434201
v -0.239809 0.598509 -0.530726
v 0.059766 0.591131 -0.557251
v 0.285288 0.206492 0.381461
v 0.201688 0.353680 0.421438
v 0.457616 0.183513 0.254708
v 0.335427 0.310708 0.364941
v 0.044268 0.085154 0.224216
v 0.087204 0.446688 0.234707
v 0.361548 0.073808 0.185147
v 0.266261 0.018030 -0.042626
v 0.451826 0.505063 0.018781
v 0.526254 0.102355 0.045276
v 0.566414 0.312254 0.011968
v 0.551962 0.171778 -0.115630
v 0.526929 0.379891 -0.214945
v 0.176188 0.707534 0.205887
v 0.079241 0.552204 0.290627
v 0.274547 0.522104 0.136293
v 0.103223 0.782586 0.283886
v 0.211644 0.757148 -0.092766
v 0.291924 0.619252 0.027534
v 0.365184 0.101509 -0.521966
v 0.292088 0.427187 -0.552147
v 0.203278 0.190877 -0.662775
v 0.085329 0.405685 -0.684839
v 0.468446 0.067009 -0.319940
v 0.408686 0.215155 -0.530052
v 0.128832 0.761251 -0.249582
v 0.393408 0.553984 -0.318681
v -0.031458 0.447254 0.446829
v -0.031105 0.452447 0.452941
v -0.028475 0.457801 0.458995
v -0.023478 0.461329 0.465524
v -0.015598 0.462180 0.472468
v -0.004659 0.461923 0.478740
v 0.008824 0.461885 0.483121
v 0.023999 0.461701 0.484990
v 0.039838 0.460597 0.484327
v 0.055178 0.458447 0.481870
v 0.069080 0.456248 0.478872
v 0.081014 0.455387 0.475706
v 0.090595 0.456256 0.472055
v 0.097517 0.458543 0.467643
v 0.101645 0.461699 0.462319
v 0.103361 0.464612 0.456079
v 0.103641 0.466294 0.448986
v 0.103433 0.466403 0.441275
v 0.102441 0.465303 0.433472
v 0.099332 0.463834 0.426221
v 0.093264 0.462717 0.419988
v 0.084326 0.462240 0.415020
v 0.073113 0.462242 0.411417
v 0.060304 0.462217 0.409183
v 0.046433 0.461577 0.408278
v 0.031944 0.459911 0.408728
v 0.017482 0.457052 0.410727
v 0.003928 0.453210 0.414438
v -0.007910 0.449003 0.419735
v -0.017521 0.445312 0.426209
v -0.024686 0.443254 0.433266
v -0.029342 0.443860 0.440273
v 0.025578 0.581815 0.384871
v 0.037063 0.458274 0.446640
vt 0.380582 0.661706
vt 0.288530 0.688496
vt 0.292996 0.628844
vt 0.379323 0.597154
vt 0.550479 0.551434
vt 0.454478 0.646508
vt 0.450558 0.598299
vt 0.648102 0.629135
vt 0.395247 0.547010
vt 0.624827 0.762575
vt 0.485056 0.751798
vt 0.399248 0.685269
vt 0.352463 0.737105
vt 0.323148 0.805991
vt 0.443476 0.790031
vt 0.394292 0.868623
vt 0.308061 0.890718
vt 0.228369 0.842202
vt 0.597516 0.949085
vt 0.464377 0.999278
vt 0.667129 0.901619
vt 0.655390 0.208759
vt 0.587529 0.175823
vt 0.640225 0.093547
vt 0.211136 0.564894
vt 0.188482 0.441692
vt 0.157652 0.487382
vt 0.248079 0.674491
vt 0.106308 0.602149
vt 0.237519 0.250167
vt 0.146593 0.379329
vt 0.097112 0.225924
vt 0.127424 0.689448
vt 0.000093 0.706977
vt 0.134675 0.912152
vt 0.481568 0.376913
vt 0.576325 0.460051
vt 0.447477 0.273811
vt 0.501430 0.275653
vt 0.522373 0.361773
vt 0.485319 0.353001
vt 0.454322 0.450846
vt 0.388362 0.392609
vt 0.434579 0.377602
vt 0.449062 0.355223
vt 0.424411 0.315064
vt 0.391313 0.289290
vt 0.360867 0.338022
vt 0.414802 0.348203
vt 0.575899 0.318306
vt 0.634346 0.369252
vt 0.607062 0.274626
vt 0.667129 0.267757
vt 0.552502 0.208238
vt 0.452716 0.174948
vt 0.494555 0.105229
vt 0.472958 0.233635
vt 0.322155 0.332267
vt 0.309897 0.257221
vt 0.326297 0.308245
vt 0.396462 0.328416
vt 0.399533 0.146407
vt 0.457562 0.006017
vt 0.272949 0.175133
vt 0.214793 0.999907
vt 0.027423 0.487415
vt 0.373175 0.000093
vt 0.191099 0.072220
vt 0.269151 0.316984
vt 0.375650 0.241789
vt 0.955915 0.201436
vt 0.752274 0.350669
vt 0.945891 0.193526
vt 0.934444 0.186337
vt 0.923326 0.177455
vt 0.911931 0.165166
vt 0.897636 0.151093
vt 0.879460 0.137753
vt 0.858332 0.125709
vt 0.835654 0.114553
vt 0.813030 0.104046
vt 0.901731 0.556039
vt 0.922261 0.545925
vt 0.939022 0.535604
vt 0.951136 0.524598
vt 0.958348 0.513126
vt 0.960914 0.501576
vt 0.960556 0.490294
vt 0.960062 0.478703
vt 0.961221 0.466488
vt 0.963391 0.454045
vt 0.964580 0.441336
vt 0.963692 0.427416
vt 0.960866 0.411381
vt 0.956885 0.393077
vt 0.952866 0.372792
vt 0.949899 0.350861
vt 0.948752 0.327683
vt 0.949903 0.304050
vt 0.953264 0.281124
vt 0.957942 0.259950
vt 0.962405 0.241129
vt 0.964580 0.224949
vt 0.962556 0.211688
vt 0.801378 0.556824
vt 0.814138 0.557302
vt 0.813172 0.666572
vt 0.827017 0.561405
vt 0.839071 0.568970
vt 0.850767 0.580972
vt 0.861469 0.597938
vt 0.869374 0.619054
vt 0.873402 0.643037
vt 0.873362 0.668311
vt 0.870334 0.693071
vt 0.873402 0.685065
vt 0.872504 0.707934
vt 0.870843 0.727548
vt 0.867590 0.743588
vt 0.861948 0.755909
vt 0.853663 0.764357
vt 0.843457 0.769179
vt 0.832110 0.771596
vt 0.819926 0.773046
vt 0.807294 0.773065
vt 0.795014 0.769582
vt 0.783792 0.761298
vt 0.773966 0.748316
vt 0.765729 0.731492
vt 0.759275 0.711846
vt 0.754738 0.690185
vt 0.752274 0.667110
vt 0.752332 0.643450
vt 0.755375 0.620479
vt 0.761361 0.599638
vt 0.769662 0.582167
vt 0.779309 0.568995
vt 0.789756 0.560581
vn -0.8865 -0.1534 0.4365
vn -0.9505 0.3104 0.0125
vn -0.9171 -0.3919 -0.0725
vn -0.5681 -0.8034 0.1785
vn -0.1102 -0.6135 0.7820
vn -0.4384 0.0076 0.8988
vn -0.3748 -0.7016 0.6060
vn -0.1018 0.1934 0.9758
vn -0.1628 -0.9825 0.0902
vn -0.0134 0.2406 0.9705
vn -0.2176 0.2401 0.9460
vn -0.6658 0.2610 0.6989
vn -0.7803 0.4585 0.4254
vn -0.7776 0.5805 0.2415
vn -0.4384 0.2730 0.8563
vn -0.5545 0.4772 0.6817
vn -0.5415 0.8216 0.1783
vn -0.6111 0.7550 -0.2379
vn 0.0277 0.2725 0.9618
vn -0.1703 0.7551 0.6330
vn 0.0737 -0.2515 0.9650
vn 0.5522 0.5468 0.6294
vn -0.7622 -0.4752 -0.4395
vn -0.1461 -0.9418 -0.3026
vn -0.5086 -0.5007 -0.7004
vn -0.8906 0.3055 -0.3369
vn -0.6269 0.3156 -0.7124
vn 0.2188 0.3470 -0.9120
vn 0.0092 -0.4893 -0.8720
vn -0.2509 0.2595 -0.9326
vn -0.6307 0.5737 -0.5226
vn -0.2777 0.6632 -0.6950
vn -0.2033 0.8646 -0.4595
vn 0.2693 -0.4653 0.8432
vn 0.7240 0.6236 0.2948
vn 0.5532 0.5332 0.6401
vn 0.1126 0.4063 0.9068
vn 0.5853 0.2964 0.7547
vn 0.0167 -0.9341 0.3567
vn 0.0834 -0.9952 0.0513
vn 0.2447 -0.8821 0.4025
vn 0.7348 -0.2735 0.6207
vn 0.9582 0.2051 0.1993
vn 0.9216 0.3012 -0.2446
vn 0.6333 -0.7241 -0.2731
vn 0.7468 -0.6326 0.2051
vn 0.2144 0.3817 0.8991
vn 0.6806 -0.3976 0.6154
vn 0.8096 0.3279 0.4869
vn 0.6395 0.7679 -0.0365
vn 0.3366 0.9416 -0.0030
vn 0.6604 0.6132 0.4335
vn 0.4588 -0.7156 -0.5268
vn 0.5903 0.4308 -0.6826
vn 0.7700 0.0031 -0.6381
vn 0.9639 -0.2308 -0.1331
vn 0.3648 0.8372 -0.4073
vn -0.0561 0.9813 -0.1844
vn 0.1957 0.6991 -0.6877
vn 0.3844 -0.2359 -0.8925
vn 0.7089 0.6056 -0.3616
vn 0.9317 -0.3016 0.2025
vn 0.9098 -0.4140 -0.0291
vn 0.7866 -0.5311 -0.3150
vn 0.5618 -0.6058 -0.5633
vn 0.3758 -0.6282 -0.6813
vn 0.2371 -0.6353 -0.7350
vn 0.0864 -0.6385 -0.7647
vn -0.0765 -0.6378 -0.7664
vn -0.2082 -0.6349 -0.7440
vn -0.2575 -0.6347 -0.7286
vn -0.2408 -0.6337 -0.7351
vn -0.2253 -0.6317 -0.7417
vn -0.2537 -0.6369 -0.7280
vn -0.3572 -0.6553 -0.6655
vn -0.5762 -0.6683 -0.4705
vn -0.7674 -0.6165 -0.1764
vn -0.8322 -0.5543 0.0146
vn -0.8539 -0.4892 0.1776
vn -0.8261 -0.3663 0.4284
vn -0.6877 -0.1837 0.7024
vn -0.4850 -0.0178 0.8743
vn -0.3047 0.0894 0.9483
vn -0.1701 0.1486 0.9741
vn -0.0723 0.1785 0.9813
vn 0.0083 0.1925 0.9813
vn 0.0961 0.1960 0.9759
vn 0.2103 0.1853 0.9599
vn 0.3583 0.1515 0.9212
vn 0.5336 0.0863 0.8413
vn 0.7026 -0.0064 0.7116
vn 0.8241 -0.1045 0.5567
vn 0.8976 -0.1995 0.3930
vn -0.1239 0.7597 -0.6383
vn -0.1237 0.7694 -0.6267
vn -0.0860 0.9026 -0.4219
vn 0.0090 0.9913 -0.1316
vn 0.0507 0.9976 -0.0475
vn 0.0278 0.9966 -0.0771
vn 0.0221 0.9964 -0.0815
vn 0.0666 0.9956 -0.0663
vn 0.1274 0.9894 -0.0704
vn 0.1396 0.9872 -0.0766
vn 0.0701 0.9975 -0.0070
vn -0.0331 0.9884 0.1483
vn -0.1127 0.9433 0.3122
vn -0.1487 0.8969 0.4165
vn -0.1421 0.9113 0.3863
vn -0.1243 0.9665 0.2243
vn -0.1202 0.9926 0.0172
vn -0.1304 0.9839 -0.1221
vn -0.1339 0.9809 -0.1413
vn -0.1113 0.9914 -0.0693
vn -0.0670 0.9974 0.0249
vn -0.0270 0.9960 0.0846
vn -0.0182 0.9955 0.0935
vn -0.0508 0.9960 0.0734
vn -0.1122 0.9920 0.0580
vn -0.1845 0.9805 0.0673
vn -0.2456 0.9641 0.1011
vn -0.2773 0.9512 0.1357
vn -0.2759 0.9519 0.1332
vn -0.2434 0.9693 0.0354
vn -0.1884 0.9598 -0.2081
vn -0.1397 0.8602 -0.4904
s 1
f 1/1/1 3/2/2 4/3/3
f 1/1/1 4/3/3 8/4/4
f 6/5/5 5/6/6 9/7/7
f 6/5/5 7/8/8 5/6/6
f 1/1/1 8/4/4 9/7/7
f 8/4/4 10/9/9 9/7/7
f 9/7/7 10/9/9 6/5/5
f 13/10/10 12/11/11 7/8/8
f 5/6/6 11/12/12 1/1/1
f 3/2/2 2/13/13 17/14/14
f 16/15/15 18/16/16 2/13/13
f 17/14/14 19/17/17 20/18/18
f 22/19/19 16/15/15 12/11/11
f 16/15/15 23/20/20 18/16/16
f 13/10/10 15/21/21 22/19/19
f 22/22/19 51/23/22 23/24/20
f 20/18/18 3/2/2 17/14/14
f 8/4/4 26/25/23 14/26/24
f 27/27/25 14/26/24 26/25/23
f 31/28/26 28/29/27 26/25/23
f 57/30/28 30/31/29 29/32/30
f 26/25/23 8/4/4 4/3/3
f 32/33/31 31/28/26 20/18/18
f 20/18/18 33/34/32 32/33/31
f 33/34/32 28/29/27 32/33/31
f 21/35/33 33/34/32 20/18/18
f 35/36/34 7/37/8 6/5/5
f 43/38/35 50/39/36 36/40/37
f 36/40/37 38/41/38 43/38/35
f 39/42/39 42/43/40 41/44/41
f 37/45/42 45/46/43 38/41/38
f 43/38/35 45/46/43 47/47/44
f 58/48/45 44/49/46 42/43/40
f 6/5/5 39/42/39 35/36/34
f 36/40/37 40/50/47 13/51/10
f 13/51/10 49/52/48 15/53/21
f 50/39/36 48/54/49 49/52/48
f 52/55/50 25/56/51 51/23/22
f 43/38/35 53/57/52 50/39/36
f 53/57/52 52/55/50 48/54/49
f 43/38/35 52/55/50 53/57/52
f 48/54/49 15/53/21 49/52/48
f 10/9/9 14/26/24 42/43/40
f 42/43/40 14/26/24 54/58/53
f 54/58/53 58/48/45 42/43/40
f 55/59/54 47/47/44 59/60/55
f 59/60/55 46/61/56 58/48/45
f 54/58/53 59/60/55 58/48/45
f 59/60/55 47/47/44 46/61/56
f 60/62/57 24/63/58 25/56/51
f 52/55/50 60/62/57 25/56/51
f 34/64/59 24/63/58 60/62/57
f 55/59/54 57/30/28 34/64/59
f 14/26/24 30/31/29 54/58/53
f 57/30/28 29/32/30 34/64/59
f 46/61/56 44/49/46 58/48/45
f 12/11/11 16/15/15 11/12/12
f 13/10/10 22/19/19 12/11/11
f 36/40/37 50/39/36 40/50/47
f 11/12/12 2/13/13 1/1/1
f 2/13/13 3/2/2 1/1/1
f 5/6/6 7/8/8 12/11/11
f 5/6/6 1/1/1 9/7/7
f 5/6/6 12/11/11 11/12/12
f 6/5/5 10/9/9 39/42/39
f 16/15/15 2/13/13 11/12/12
f 18/16/16 19/17/17 17/14/14
f 19/17/17 24/65/58 21/35/33
f 19/17/17 21/35/33 20/18/18
f 16/15/15 22/19/19 23/20/20
f 24/65/58 19/17/17 23/20/20
f 18/16/16 23/20/20 19/17/17
f 2/13/13 18/16/16 17/14/14
f 4/3/3 31/28/26 26/25/23
f 4/3/3 3/2/2 31/28/26
f 8/4/4 14/26/24 10/9/9
f 26/25/23 28/29/27 27/27/25
f 29/66/30 30/31/29 27/27/25
f 14/26/24 27/27/25 30/31/29
f 28/29/27 29/66/30 27/27/25
f 3/2/2 20/18/18 31/28/26
f 24/63/58 34/64/59 21/67/33
f 21/67/33 34/64/59 33/68/32
f 33/68/32 34/64/59 29/32/30
f 36/40/37 13/51/10 7/37/8
f 35/36/34 38/41/38 36/40/37
f 35/36/34 36/40/37 7/37/8
f 37/45/42 38/41/38 35/36/34
f 41/44/41 37/45/42 35/36/34
f 44/49/46 37/45/42 41/44/41
f 39/42/39 41/44/41 35/36/34
f 10/9/9 42/43/40 39/42/39
f 44/49/46 45/46/43 37/45/42
f 44/49/46 46/61/56 45/46/43
f 47/47/44 45/46/43 46/61/56
f 38/41/38 45/46/43 43/38/35
f 42/43/40 44/49/46 41/44/41
f 15/53/21 48/54/49 22/22/19
f 50/39/36 49/52/48 40/50/47
f 22/22/19 48/54/49 51/23/22
f 51/23/22 25/56/51 23/24/20
f 50/39/36 53/57/52 48/54/49
f 48/54/49 52/55/50 51/23/22
f 59/60/55 54/58/53 56/69/60
f 55/59/54 59/60/55 56/69/60
f 47/47/44 55/59/54 61/70/61
f 30/31/29 56/69/60 54/58/53
f 57/30/28 55/59/54 56/69/60
f 30/31/29 57/30/28 56/69/60
f 61/70/61 60/62/57 52/55/50
f 34/64/59 60/62/57 61/70/61
f 43/38/35 61/70/61 52/55/50
f 55/59/54 34/64/59 61/70/61
f 25/56/51 24/63/58 23/24/20
f 31/28/26 32/33/31 28/29/27
f 28/29/27 33/34/32 29/66/30
f 40/50/47 49/52/48 13/51/10
f 61/70/61 43/38/35 47/47/44
s off
f 62/71/62 94/72/62 63/73/62
f 63/73/63 94/72/63 64/74/63
f 64/74/64 94/72/64 65/75/64
f 65/75/65 94/72/65 66/76/65
f 66/76/66 94/72/66 67/77/66
f 67/77/67 94/72/67 68/78/67
f 68/78/68 94/72/68 69/79/68
f 69/79/69 94/72/69 70/80/69
f 70/80/70 94/72/70 71/81/70
f 71/82/71 94/72/71 72/83/71
f 72/83/72 94/72/72 73/84/72
f 73/84/73 94/72/73 74/85/73
f 74/85/74 94/72/74 75/86/74
f 75/86/75 94/72/75 76/87/75
f 76/87/76 94/72/76 77/88/76
f 77/88/77 94/72/77 78/89/77
f 78/89/78 94/72/78 79/90/78
f 79/90/79 94/72/79 80/91/79
f 80/91/80 94/72/80 81/92/80
f 81/92/81 94/72/81 82/93/81
f 82/93/82 94/72/82 83/94/82
f 83/94/83 94/72/83 84/95/83
f 84/95/84 94/72/84 85/96/84
f 85/96/85 94/72/85 86/97/85
f 86/97/86 94/72/86 87/98/86
f 87/98/87 94/72/87 88/99/87
f 88/99/88 94/72/88 89/100/88
f 89/100/89 94/72/89 90/101/89
f 90/101/90 94/72/90 91/102/90
f 91/102/91 94/72/91 92/103/91
f 92/103/92 94/72/92 93/104/92
f 93/104/93 94/72/93 62/71/93
f 62/105/94 63/106/94 95/107/94
f 63/106/95 64/108/95 95/107/95
f 64/108/96 65/109/96 95/107/96
f 65/109/97 66/110/97 95/107/97
f 66/110/98 67/111/98 95/107/98
f 67/111/99 68/112/99 95/107/99
f 68/112/100 69/113/100 95/107/100
f 69/113/101 70/114/101 95/107/101
f 70/114/102 71/115/102 95/107/102
f 71/116/103 72/117/103 95/107/103
f 72/117/104 73/118/104 95/107/104
f 73/118/105 74/119/105 95/107/105
f 74/119/106 75/120/106 95/107/106
f 75/120/107 76/121/107 95/107/107
f 76/121/108 77/122/108 95/107/108
f 77/122/109 78/123/109 95/107/109
f 78/123/110 79/124/110 95/107/110
f 79/124/111 80/125/111 95/107/111
f 80/125/112 81/126/112 95/107/112
f 81/126/113 82/127/113 95/107/113
f 82/127/114 83/128/114 95/107/114
f 83/128/115 84/129/115 95/107/115
f 84/129/116 85/130/116 95/107/116
f 85/130/117 86/131/117 95/107/117
f 86/131/118 87/132/118 95/107/118
f 87/132/119 88/133/119 95/107/119
f 88/133/120 89/134/120 95/107/120
f 89/134/121 90/135/121 95/107/121
f 90/135/122 91/136/122 95/107/122
f 91/136/123 92/137/123 95/107/123
f 92/137/124 93/138/124 95/107/124
f 93/138/125 62/105/125 95/107/125
