# Blender 3.1.0
# www.blender.org
o Cube
v 0.960544 1.791934 -0.311113
v 0.960544 0.173456 -0.311113
v 0.960544 1.791934 0.287463
v 0.960544 0.173456 0.287463
v -0.995276 2.026126 -0.440360
v -0.995276 -0.060737 -0.440360
v -0.995276 2.026126 0.416710
v -0.995276 -0.060737 0.416710
v 0.960544 2.026126 -0.440360
v 0.960544 -0.060737 -0.440360
v 0.960544 2.026126 0.416710
v 0.960544 -0.060737 0.416710
v 0.932741 1.647696 -0.272130
v 0.932741 1.517475 -0.272130
v 0.932741 1.647696 0.238530
v 0.932741 1.517475 0.238530
v 0.932741 1.791934 -0.311113
v 0.932741 0.173456 -0.311113
v 0.932741 1.791934 0.287463
v 0.932741 0.173456 0.287463
v 0.831111 1.647696 -0.272130
v 0.831111 1.517475 -0.272130
v 0.831111 1.647696 0.238530
v 0.831111 1.517475 0.238530
vn -0.0000 1.0000 -0.0000
vn -0.0000 -0.0000 1.0000
vn -1.0000 -0.0000 -0.0000
vn -0.0000 -1.0000 -0.0000
vn -0.0000 -0.0000 -1.0000
vn 1.0000 -0.0000 -0.0000
vt 0.536957 0.121745
vt 0.182312 0.405850
vt 0.452023 0.405850
vt 0.580919 0.221502
vt 0.182312 0.347615
vt 0.536957 0.221502
vt 0.580919 0.121745
vt 0.452022 0.347615
vt 0.000149 0.673897
vt 0.143285 0.753317
vt 0.491050 0.753317
vt 0.000149 0.326103
vt 0.143285 0.000149
vt 0.142987 0.673897
vt 0.491050 0.000149
vt 0.142987 0.326103
vt 0.000149 0.999851
vt 0.143285 0.427389
vt 0.575987 0.100204
vt 0.619949 0.243042
vt 0.000149 0.000149
vt 0.491050 0.427389
vt 0.575987 0.243042
vt 0.142987 0.999851
vt 0.143285 0.326076
vt 0.491050 0.326076
vt 0.142987 0.000149
vt 0.619949 0.100204
vt 0.508285 0.128241
vt 0.206346 0.394647
vt 0.967328 0.653563
vt 0.228046 0.394647
vt 0.206350 0.360477
vt 0.508285 0.213347
vt 0.726057 0.653563
vt 0.228051 0.360477
vt 0.182311 0.401143
vt 0.532323 0.121745
vt 0.576285 0.221502
vt 0.452022 0.401143
vt 0.985746 0.018554
vt 0.532324 0.221502
vt 0.182313 0.352323
vt 0.576285 0.121745
vt 0.452024 0.352323
vt 0.702937 0.018554
vt 0.966587 0.782388
vt 0.491348 0.128241
vt 0.206346 0.377711
vt 0.966587 0.722088
vt 0.967328 0.701580
vt 0.228046 0.377711
vt 0.730121 0.782388
vt 0.206350 0.377413
vt 0.491348 0.213347
vt 0.726057 0.701580
vt 0.730121 0.722088
vt 0.228051 0.377413
s 0
f 5/9/1 11/24/1 9/17/1
f 11/25/2 8/15/2 12/26/2
f 7/14/3 6/12/3 8/16/3
f 10/21/4 8/16/4 6/12/4
f 2/4/1 20/44/1 4/7/1
f 5/10/5 10/22/5 6/11/5
f 2/3/6 9/18/6 1/2/6
f 4/8/6 11/25/6 12/26/6
f 3/6/6 9/19/6 11/23/6
f 2/4/6 12/28/6 10/20/6
f 14/31/1 24/56/1 16/35/1
f 4/8/5 19/43/5 3/5/5
f 3/6/4 17/38/4 1/1/4
f 1/2/2 18/40/2 2/3/2
f 14/32/6 17/37/6 13/30/6
f 16/36/6 19/43/6 20/45/6
f 15/34/6 17/38/6 19/42/6
f 16/35/6 18/41/6 14/31/6
f 21/47/6 24/57/6 22/50/6
f 16/36/5 23/54/5 15/33/5
f 15/34/4 21/48/4 13/29/4
f 13/30/2 22/52/2 14/32/2
f 5/9/1 7/14/1 11/24/1
f 11/25/2 7/13/2 8/15/2
f 7/14/3 5/9/3 6/12/3
f 10/21/4 12/27/4 8/16/4
f 2/4/1 18/39/1 20/44/1
f 5/10/5 9/18/5 10/22/5
f 2/3/6 10/22/6 9/18/6
f 4/8/6 3/5/6 11/25/6
f 3/6/6 1/1/6 9/19/6
f 2/4/6 4/7/6 12/28/6
f 14/31/1 22/51/1 24/56/1
f 4/8/5 20/45/5 19/43/5
f 3/6/4 19/42/4 17/38/4
f 1/2/2 17/37/2 18/40/2
f 14/32/6 18/40/6 17/37/6
f 16/36/6 15/33/6 19/43/6
f 15/34/6 13/29/6 17/38/6
f 16/35/6 20/46/6 18/41/6
f 21/47/6 23/53/6 24/57/6
f 16/36/5 24/58/5 23/54/5
f 15/34/4 23/55/4 21/48/4
f 13/30/2 21/49/2 22/52/2
