# Blender v3.0.0 OBJ File: 'Computer.blend'
# www.blender.org
o Cube
v 0.960544 1.791934 -0.311113
v 0.960544 0.173456 -0.311113
v 0.960544 1.791934 0.287463
v 0.960544 0.173456 0.287463
v -0.995276 2.026126 -0.440360
v -0.995276 -0.060737 -0.440360
v -0.995276 2.026126 0.416710
v -0.995276 -0.060737 0.416710
v 0.960544 2.026126 -0.440360
v 0.960544 -0.060737 -0.440360
v 0.960544 2.026126 0.416710
v 0.960544 -0.060737 0.416710
v 0.932741 1.647696 -0.272130
v 0.932741 1.517475 -0.272130
v 0.932741 1.647696 0.238530
v 0.932741 1.517475 0.238530
v 0.932741 1.791934 -0.311113
v 0.932741 0.173456 -0.311113
v 0.932741 1.791934 0.287463
v 0.932741 0.173456 0.287463
v 0.831111 1.647696 -0.272130
v 0.831111 1.517475 -0.272130
v 0.831111 1.647696 0.238530
v 0.831111 1.517475 0.238530
vt 0.579290 0.592316
vt 0.720030 0.913482
vt 0.579290 0.913482
vt 0.972738 0.579675
vt 0.741721 0.987167
vt 0.735083 0.583584
vt 0.720030 0.592316
vt 0.579290 0.403193
vt 0.720030 0.403193
vt 0.579290 0.082027
vt 0.766207 0.425062
vt 0.767515 0.552217
vt 0.761962 0.559298
vt 0.979376 0.024736
vt 0.743231 0.399474
vt 0.754722 0.017969
vt 0.967885 0.406240
vt 0.943459 0.428556
vt 0.948521 0.554921
vt 0.464337 0.584811
vt 0.097498 0.657818
vt 0.097498 0.584811
vt 0.941439 0.549940
vt 0.938583 0.434858
vt 0.773042 0.430174
vt 0.906621 0.443090
vt 0.924529 0.442961
vt 0.901384 0.538361
vt 0.922571 0.537373
vt 0.492341 0.051968
vt 0.482569 0.821747
vt 0.122427 0.771063
vt 0.482569 0.771063
vt 0.905416 0.513287
vt 0.910479 0.465598
vt 0.902345 0.463094
vt 0.979376 0.983258
vt 0.720030 0.082027
vt 0.464337 0.657818
vt 0.062347 0.051968
vt 0.122427 0.821747
vt 0.896590 0.515767
vt 0.906103 0.513244
vt 0.909996 0.465467
vn 0.0000 1.0000 0.0000
vn 0.0000 0.0000 1.0000
vn -1.0000 0.0000 0.0000
vn 0.0000 -1.0000 0.0000
vn 0.0000 0.0000 -1.0000
vn 1.0000 0.0000 0.0000
s off
f 5/1/1 11/2/1 9/3/1
f 11/4/2 8/5/2 12/6/2
f 7/7/3 6/8/3 8/9/3
f 10/10/4 8/9/4 6/8/4
f 2/11/1 20/12/1 4/13/1
f 5/14/5 10/15/5 6/16/5
f 2/11/6 9/17/6 1/18/6
f 3/19/6 12/6/6 4/13/6
f 1/18/6 11/4/6 3/19/6
f 4/13/6 10/15/6 2/11/6
f 14/20/1 24/21/1 16/22/1
f 4/13/5 19/23/5 3/19/5
f 3/19/4 17/24/4 1/18/4
f 1/18/2 18/25/2 2/11/2
f 14/26/6 17/24/6 13/27/6
f 16/28/6 19/23/6 20/12/6
f 15/29/6 17/24/6 19/23/6
f 16/22/6 18/30/6 14/20/6
f 21/31/6 24/32/6 22/33/6
f 16/28/5 23/34/5 15/29/5
f 15/29/4 21/35/4 13/27/4
f 13/27/2 22/36/2 14/26/2
f 5/1/1 7/7/1 11/2/1
f 11/4/2 7/37/2 8/5/2
f 7/7/3 5/1/3 6/8/3
f 10/10/4 12/38/4 8/9/4
f 2/11/1 18/25/1 20/12/1
f 5/14/5 9/17/5 10/15/5
f 2/11/6 10/15/6 9/17/6
f 3/19/6 11/4/6 12/6/6
f 1/18/6 9/17/6 11/4/6
f 4/13/6 12/6/6 10/15/6
f 14/20/1 22/39/1 24/21/1
f 4/13/5 20/12/5 19/23/5
f 3/19/4 19/23/4 17/24/4
f 1/18/2 17/24/2 18/25/2
f 14/26/6 18/25/6 17/24/6
f 16/28/6 15/29/6 19/23/6
f 15/29/6 13/27/6 17/24/6
f 16/22/6 20/40/6 18/30/6
f 21/31/6 23/41/6 24/32/6
f 16/28/5 24/42/5 23/34/5
f 15/29/4 23/43/4 21/35/4
f 13/27/2 21/44/2 22/36/2
