# Blender v3.0.1 OBJ File: 'diner chair.blend'
# www.blender.org
o Cube
v 0.308000 0.656543 -0.400000
v 0.308000 0.647343 -0.308000
v 0.400000 0.656543 -0.308000
v 0.308000 0.727343 -0.308000
v 0.308000 0.718143 -0.400000
v 0.400000 0.718143 -0.308000
v 0.400000 0.656543 0.308000
v 0.308000 0.647343 0.308000
v 0.308000 0.656543 0.400000
v 0.400000 0.718143 0.308000
v 0.308000 0.718143 0.400000
v 0.308000 0.727343 0.308000
v -0.308000 0.656543 -0.400000
v -0.400000 0.656543 -0.308000
v -0.308000 0.647343 -0.308000
v -0.400000 0.718143 -0.308000
v -0.308000 0.718143 -0.400000
v -0.308000 0.727343 -0.308000
v -0.400000 0.656543 0.308000
v -0.308000 0.656543 0.400000
v -0.308000 0.647343 0.308000
v -0.308000 0.727343 0.308000
v -0.308000 0.718143 0.400000
v -0.400000 0.718143 0.308000
vt 0.509872 0.548865
vt 0.902921 0.156110
vt 0.902882 0.549115
vt 0.786239 0.791073
vt 0.652927 0.777741
vt 0.786239 0.777741
vt 0.947710 0.791073
vt 0.814397 0.777741
vt 0.947710 0.777741
vt 0.653447 0.810966
vt 0.777271 0.941230
vt 0.661434 0.940431
vt 0.663700 0.956881
vt 0.777532 0.972777
vt 0.659908 0.968286
vt 0.642119 0.944244
vt 0.509641 0.607949
vt 0.450829 0.549071
vt 0.774513 0.959774
vt 0.798171 0.945469
vt 0.450829 0.155637
vt 0.509712 0.096819
vt 0.509911 0.155859
vt 0.633567 0.811677
vt 0.652927 0.791073
vt 0.961964 0.549337
vt 0.903081 0.608155
vt 0.805745 0.811720
vt 0.785748 0.811069
vt 0.903151 0.097025
vt 0.961964 0.155903
vt 0.814397 0.791073
vt 0.805623 0.959289
vt 0.624770 0.777741
vt 0.624770 0.791073
vt 0.491457 0.777741
vt 0.636078 0.955527
vt 0.491457 0.791073
vn 0.0000 -1.0000 0.0000
vn 1.0000 0.0000 0.0000
vn 0.0000 0.0000 -1.0000
vn 0.0000 1.0000 0.0000
vn -1.0000 0.0000 0.0000
vn -0.0990 0.9901 0.0990
vn -0.0990 -0.9901 0.0990
vn -0.0990 0.9901 -0.0990
vn -0.0990 -0.9901 -0.0990
vn 0.0990 0.9901 0.0990
vn 0.0990 -0.9901 0.0990
vn 0.0990 0.9901 -0.0990
vn 0.0990 -0.9901 -0.0990
vn 0.0995 -0.9950 0.0000
vn 0.0000 -0.9950 0.0995
vn -0.7071 0.0000 0.7071
vn 0.7071 0.0000 -0.7071
vn -0.7071 0.0000 -0.7071
vn 0.7071 0.0000 0.7071
vn 0.0000 0.9950 -0.0995
vn -0.0995 0.9950 0.0000
vn 0.0000 -0.9950 -0.0995
vn 0.0995 0.9950 0.0000
vn 0.0000 0.9950 0.0995
vn -0.0995 -0.9950 0.0000
vn 0.0000 0.0000 1.0000
s off
f 4/1/1 22/2/1 18/3/1
f 19/4/2 16/5/2 24/6/2
f 9/7/3 23/8/3 11/9/3
f 15/10/4 8/11/4 2/12/4
f 3/13/5 10/14/5 6/15/5
f 1/16/6 2/12/6 3/13/6
f 4/1/7 5/17/7 6/18/7
f 7/19/8 8/11/8 9/20/8
f 10/21/9 11/22/9 12/23/9
f 13/24/10 14/25/10 15/10/10
f 16/26/11 17/27/11 18/3/11
f 19/4/12 20/28/12 21/29/12
f 22/2/13 23/30/13 24/31/13
f 22/2/14 16/26/14 18/3/14
f 18/3/15 5/17/15 4/1/15
f 6/15/16 1/16/16 3/13/16
f 20/32/17 24/6/17 23/8/17
f 11/33/18 7/19/18 9/20/18
f 17/34/19 14/25/19 13/35/19
f 21/29/20 9/20/20 8/11/20
f 8/11/21 3/13/21 2/12/21
f 12/23/22 23/30/22 22/2/22
f 15/10/23 19/4/23 21/29/23
f 2/12/24 13/24/24 15/10/24
f 4/1/25 10/21/25 12/23/25
f 13/35/26 5/36/26 17/34/26
f 4/1/1 12/23/1 22/2/1
f 19/4/2 14/25/2 16/5/2
f 9/7/3 20/32/3 23/8/3
f 15/10/4 21/29/4 8/11/4
f 3/13/5 7/19/5 10/14/5
f 22/2/14 24/31/14 16/26/14
f 18/3/15 17/27/15 5/17/15
f 6/15/16 5/37/16 1/16/16
f 20/32/17 19/4/17 24/6/17
f 11/33/18 10/14/18 7/19/18
f 17/34/19 16/5/19 14/25/19
f 21/29/20 20/28/20 9/20/20
f 8/11/21 7/19/21 3/13/21
f 12/23/22 11/22/22 23/30/22
f 15/10/23 14/25/23 19/4/23
f 2/12/24 1/16/24 13/24/24
f 4/1/25 6/18/25 10/21/25
f 13/35/26 1/38/26 5/36/26
o Plane.003
v -0.205955 0.000000 0.307690
v -0.311792 0.000000 0.307690
v -0.311792 0.000000 0.201853
v -0.205955 0.000000 0.201853
v -0.205955 0.676739 0.307690
v -0.311792 0.676739 0.307690
v -0.311792 0.676739 0.201853
v -0.205955 0.676739 0.201853
vt 0.839654 0.898640
vt 0.850155 0.888139
vt 0.850155 0.898640
vt 0.839654 0.976285
vt 0.850155 0.965784
vt 0.850155 0.976285
vt 0.839654 0.965784
vt 0.839654 0.888139
vt 0.850155 0.820995
vt 0.829153 0.888139
vt 0.839654 0.820995
vt 0.860656 0.820995
vt 0.860656 0.888139
vt 0.829153 0.820995
vn 0.0000 -1.0000 0.0000
vn 0.0000 1.0000 0.0000
vn 0.0000 0.0000 1.0000
vn 0.0000 0.0000 -1.0000
vn -1.0000 0.0000 0.0000
vn 1.0000 0.0000 0.0000
s off
f 26/39/27 28/40/27 25/41/27
f 31/42/28 29/43/28 32/44/28
f 25/41/29 30/45/29 26/39/29
f 27/46/30 32/47/30 28/40/30
f 26/48/31 31/49/31 27/46/31
f 28/40/32 29/50/32 25/51/32
f 26/39/27 27/46/27 28/40/27
f 31/42/28 30/45/28 29/43/28
f 25/41/29 29/43/29 30/45/29
f 27/46/30 31/49/30 32/47/30
f 26/48/31 30/52/31 31/49/31
f 28/40/32 32/47/32 29/50/32
o Cube.001
v -0.289799 0.723134 0.317691
v -0.490565 1.738644 0.317691
v -0.289799 0.723134 -0.317691
v -0.490565 1.738644 -0.317691
v -0.390500 0.713642 0.317691
v -0.591266 1.729151 0.317691
v -0.390500 0.713642 -0.317691
v -0.591266 1.729151 -0.317691
v -0.380202 1.231707 0.317691
v -0.380202 1.231707 -0.317691
v -0.480904 1.222215 -0.317691
v -0.480904 1.222215 0.317691
v -0.313880 0.978594 -0.317691
v -0.414581 0.969102 -0.317691
v -0.414581 0.969102 0.317691
v -0.313880 0.978594 0.317691
v -0.335639 1.087663 0.317691
v -0.335639 1.087663 -0.317691
v -0.436340 1.078171 -0.317691
v -0.436341 1.078171 0.317691
v -0.301839 0.850864 -0.317691
v -0.402540 0.841372 -0.317691
v -0.402540 0.841372 0.317691
v -0.301839 0.850864 0.317691
v -0.454212 1.484002 0.317691
v -0.454212 1.484002 -0.317691
v -0.554914 1.474510 -0.317691
v -0.554914 1.474510 0.317691
v -0.419350 1.357793 -0.317691
v -0.520051 1.348301 -0.317691
v -0.520051 1.348301 0.317691
v -0.419350 1.357793 0.317691
v -0.478525 1.610914 0.317691
v -0.478525 1.610914 -0.317691
v -0.579226 1.601421 -0.317691
v -0.579226 1.601421 0.317691
vt 0.082537 0.068358
vt 0.349250 0.122205
vt 0.080807 0.121472
vt 0.347257 0.068359
vt 0.391413 0.119464
vt 0.346489 0.970876
vt 0.083392 0.917710
vt 0.346497 0.917750
vt 0.041651 0.066477
vt 0.038864 0.118434
vt 0.346555 0.540609
vt 0.083455 0.498685
vt 0.346561 0.498725
vt 0.082537 0.026217
vt 0.347257 0.026217
vt 0.044926 0.342288
vt 0.083833 0.285952
vt 0.086247 0.347908
vt 0.346522 0.755353
vt 0.083426 0.692876
vt 0.346531 0.692916
vt 0.346199 0.285885
vt 0.384821 0.341548
vt 0.343702 0.347101
vt 0.086313 0.393030
vt 0.345404 0.445108
vt 0.084473 0.445359
vt 0.343497 0.392208
vt 0.388122 0.443485
vt 0.346538 0.646862
vt 0.083441 0.593696
vt 0.346546 0.593736
vt 0.041933 0.443923
vt 0.385338 0.388784
vt 0.083433 0.646822
vt 0.044570 0.389601
vt 0.040914 0.497882
vt 0.083449 0.540569
vt 0.389477 0.497801
vt 0.040697 0.224439
vt 0.080687 0.175908
vt 0.082057 0.231004
vt 0.346505 0.864241
vt 0.083408 0.809983
vt 0.346514 0.810022
vt 0.349334 0.176699
vt 0.388990 0.224957
vt 0.347955 0.231400
vt 0.387143 0.278919
vt 0.083417 0.755313
vt 0.042485 0.278944
vt 0.038975 0.171049
vt 0.083400 0.864201
vt 0.390907 0.171981
vt 0.389030 0.066479
vt 0.083384 0.970836
vn -0.9956 -0.0938 0.0000
vn 0.0000 0.0000 1.0000
vn 0.9956 0.0938 0.0000
vn 0.0000 0.0000 -1.0000
vn -0.0938 0.9956 0.0000
vn 0.0938 -0.9956 0.0000
vn 0.9553 0.2956 0.0000
vn -0.9553 -0.2956 0.0000
vn -0.9807 -0.1956 0.0000
vn 0.9807 0.1956 0.0000
vn 0.9639 0.2663 0.0000
vn -0.9639 -0.2663 0.0000
vn -0.9550 -0.2965 0.0000
vn 0.9550 0.2965 0.0000
vn 0.9821 0.1881 0.0000
vn -0.9821 -0.1881 0.0000
vn -0.9821 -0.1882 0.0000
s off
f 34/53/33 66/54/33 65/55/33
f 36/56/34 67/57/34 66/54/34
f 40/58/35 68/59/35 67/60/35
f 38/61/36 65/55/36 68/62/36
f 39/63/37 33/64/37 35/65/37
f 36/56/38 38/66/38 40/67/38
f 52/68/36 41/69/36 49/70/36
f 43/71/39 52/72/39 51/73/39
f 42/74/34 51/75/34 50/76/34
f 41/69/40 50/76/40 49/70/40
f 48/77/33 53/78/33 56/79/33
f 45/80/34 54/81/34 53/78/34
f 46/82/35 55/83/35 54/84/35
f 55/85/36 48/77/36 56/79/36
f 49/70/41 45/80/41 48/77/41
f 50/76/34 46/86/34 45/80/34
f 51/73/42 47/87/42 46/82/42
f 47/88/36 49/70/36 48/77/36
f 55/85/36 33/64/36 37/89/36
f 54/84/35 37/90/35 39/63/35
f 53/78/34 39/91/34 35/65/34
f 56/79/33 35/65/33 33/64/33
f 63/92/36 57/93/36 64/94/36
f 59/95/43 63/96/43 62/97/43
f 58/98/34 62/99/34 61/100/34
f 57/93/44 61/100/44 64/94/44
f 64/94/45 42/74/45 41/69/45
f 61/100/34 43/101/34 42/74/34
f 62/97/46 44/102/46 43/71/46
f 44/103/36 64/94/36 41/69/36
f 60/104/36 65/55/36 57/93/36
f 67/60/47 60/105/47 59/95/47
f 66/54/34 59/106/34 58/98/34
f 65/55/48 58/98/48 57/93/48
f 34/53/33 36/56/33 66/54/33
f 36/56/34 40/107/34 67/57/34
f 40/58/35 38/108/35 68/59/35
f 38/61/36 34/53/36 65/55/36
f 39/63/37 37/90/37 33/64/37
f 36/56/38 34/53/38 38/66/38
f 52/68/36 44/103/36 41/69/36
f 43/71/39 44/102/39 52/72/39
f 42/74/34 43/101/34 51/75/34
f 41/69/40 42/74/40 50/76/40
f 48/77/33 45/80/33 53/78/33
f 45/80/34 46/86/34 54/81/34
f 46/82/35 47/87/35 55/83/35
f 55/85/36 47/88/36 48/77/36
f 49/70/41 50/76/41 45/80/41
f 50/76/34 51/75/34 46/86/34
f 51/73/42 52/72/42 47/87/42
f 47/88/36 52/68/36 49/70/36
f 55/85/36 56/79/36 33/64/36
f 54/84/35 55/83/35 37/90/35
f 53/78/34 54/81/34 39/91/34
f 56/79/33 53/78/33 35/65/33
f 63/92/36 60/104/36 57/93/36
f 59/95/43 60/105/43 63/96/43
f 58/98/34 59/106/34 62/99/34
f 57/93/44 58/98/44 61/100/44
f 64/94/45 61/100/45 42/74/45
f 61/100/34 62/99/34 43/101/34
f 62/97/46 63/96/46 44/102/46
f 44/103/36 63/92/36 64/94/36
f 60/104/36 68/62/36 65/55/36
f 67/60/47 68/59/47 60/105/47
f 66/54/34 67/57/34 59/106/34
f 65/55/49 66/54/49 58/98/49
o Plane.001_Plane.004
v 0.307602 0.000000 0.307690
v 0.201765 0.000000 0.307690
v 0.201765 0.000000 0.201853
v 0.307602 0.000000 0.201853
v 0.307602 0.676739 0.307690
v 0.201765 0.676739 0.307690
v 0.201765 0.676739 0.201853
v 0.307602 0.676739 0.201853
vt 0.871302 0.898640
vt 0.881803 0.888139
vt 0.881803 0.898640
vt 0.871302 0.976285
vt 0.881803 0.965784
vt 0.881803 0.976285
vt 0.871302 0.965784
vt 0.871302 0.888139
vt 0.881803 0.820995
vt 0.860801 0.888139
vt 0.871302 0.820995
vt 0.892304 0.820995
vt 0.892304 0.888139
vt 0.860801 0.820995
vn 0.0000 -1.0000 0.0000
vn 0.0000 1.0000 0.0000
vn 0.0000 0.0000 1.0000
vn 0.0000 0.0000 -1.0000
vn -1.0000 0.0000 0.0000
vn 1.0000 0.0000 0.0000
s off
f 70/109/50 72/110/50 69/111/50
f 75/112/51 73/113/51 76/114/51
f 69/111/52 74/115/52 70/109/52
f 71/116/53 76/117/53 72/110/53
f 70/118/54 75/119/54 71/116/54
f 72/110/55 73/120/55 69/121/55
f 70/109/50 71/116/50 72/110/50
f 75/112/51 74/115/51 73/113/51
f 69/111/52 73/113/52 74/115/52
f 71/116/53 75/119/53 76/117/53
f 70/118/54 74/122/54 75/119/54
f 72/110/55 76/117/55 73/120/55
o Plane.002_Plane.005
v 0.303647 0.000000 -0.196104
v 0.197810 0.000000 -0.196104
v 0.197810 0.000000 -0.301941
v 0.303647 0.000000 -0.301941
v 0.303647 0.676739 -0.196104
v 0.197810 0.676739 -0.196104
v 0.197810 0.676739 -0.301941
v 0.303647 0.676739 -0.301941
vt 0.540984 0.887688
vt 0.551485 0.877187
vt 0.551485 0.887688
vt 0.540984 0.965333
vt 0.551485 0.954832
vt 0.551485 0.965333
vt 0.540984 0.954832
vt 0.540984 0.877187
vt 0.551485 0.810043
vt 0.530483 0.877187
vt 0.540984 0.810043
vt 0.561985 0.810043
vt 0.561985 0.877187
vt 0.530483 0.810043
vn 0.0000 -1.0000 0.0000
vn 0.0000 1.0000 0.0000
vn 0.0000 0.0000 1.0000
vn 0.0000 0.0000 -1.0000
vn -1.0000 0.0000 0.0000
vn 1.0000 0.0000 0.0000
s off
f 78/123/56 80/124/56 77/125/56
f 83/126/57 81/127/57 84/128/57
f 77/125/58 82/129/58 78/123/58
f 79/130/59 84/131/59 80/124/59
f 78/132/60 83/133/60 79/130/60
f 80/124/61 81/134/61 77/135/61
f 78/123/56 79/130/56 80/124/56
f 83/126/57 82/129/57 81/127/57
f 77/125/58 81/127/58 82/129/58
f 79/130/59 83/133/59 84/131/59
f 78/132/60 82/136/60 83/133/60
f 80/124/61 84/131/61 81/134/61
o Plane.004_Plane.006
v -0.202510 0.000000 -0.199146
v -0.308347 0.000000 -0.199146
v -0.308347 0.000000 -0.304983
v -0.202510 0.000000 -0.304983
v -0.202510 0.676739 -0.199146
v -0.308347 0.676739 -0.199146
v -0.308347 0.676739 -0.304983
v -0.202510 0.676739 -0.304983
vt 0.572632 0.887688
vt 0.583133 0.877187
vt 0.583133 0.887688
vt 0.572632 0.965333
vt 0.583133 0.954832
vt 0.583133 0.965333
vt 0.572632 0.954832
vt 0.572632 0.877187
vt 0.583133 0.810043
vt 0.562131 0.877187
vt 0.572632 0.810043
vt 0.593633 0.810043
vt 0.593633 0.877187
vt 0.562131 0.810043
vn 0.0000 -1.0000 0.0000
vn 0.0000 1.0000 0.0000
vn 0.0000 0.0000 1.0000
vn 0.0000 0.0000 -1.0000
vn -1.0000 0.0000 0.0000
vn 1.0000 0.0000 0.0000
s off
f 86/137/62 88/138/62 85/139/62
f 91/140/63 89/141/63 92/142/63
f 85/139/64 90/143/64 86/137/64
f 87/144/65 92/145/65 88/138/65
f 86/146/66 91/147/66 87/144/66
f 88/138/67 89/148/67 85/149/67
f 86/137/62 87/144/62 88/138/62
f 91/140/63 90/143/63 89/141/63
f 85/139/64 89/141/64 90/143/64
f 87/144/65 91/147/65 92/145/65
f 86/146/66 90/150/66 91/147/66
f 88/138/67 92/145/67 89/148/67
