# Blender 3.1.1
# www.blender.org
o Plane
v 4.537609 -0.000006 9.580078
v -2.301043 0.000009 -17.836357
v -2.301043 -0.000006 9.580078
v 4.537609 0.000009 -17.836357
v -2.301043 0.000014 -26.446428
v -20.009857 0.000009 -17.836357
v 4.537609 0.000014 -26.446428
v -20.009857 0.000014 -26.446428
vn -0.0000 1.0000 -0.0000
vt 0.417214 0.478470
vt 0.855069 0.587687
vt 0.417214 0.587687
vt 0.855069 0.478470
vt 0.992577 0.587687
vt 0.855070 0.870507
vt 0.992577 0.478470
vt 0.992577 0.870507
s 1
f 1/1/1 2/2/1 3/3/1
f 4/4/1 5/5/1 2/2/1
f 5/5/1 6/6/1 2/2/1
f 1/1/1 4/4/1 2/2/1
f 4/4/1 7/7/1 5/5/1
f 5/5/1 8/8/1 6/6/1
