# Blender v3.0.1 OBJ File: 'kitchen range.blend'
# www.blender.org
o Cube
v -0.257182 1.628065 -0.554607
v 0.923238 0.000000 -0.923238
v -0.257182 1.628065 0.554607
v 0.923238 0.000000 0.923238
v -0.682927 1.628065 -0.554607
v -0.923238 0.000000 -0.923238
v -0.682927 1.628065 0.554607
v -0.923238 0.000000 0.923238
v -0.257182 0.628065 -0.554607
v -0.682927 0.628065 0.554607
v -0.257182 0.628065 0.554607
v -0.682927 0.628065 -0.554607
v -1.000000 0.000000 -1.000000
v -1.000000 0.000000 1.000000
v 1.000000 0.000000 -1.000000
v 1.000000 0.000000 1.000000
v -1.071829 -0.176544 -1.071829
v -1.071829 -0.176544 1.071829
v 1.071829 -0.176544 -1.071829
v 1.071829 -0.176544 1.071829
v -0.989553 -0.176544 -0.989553
v -0.989553 -0.176544 0.989553
v 0.989553 -0.176544 -0.989553
v 0.989553 -0.176544 0.989553
vt 0.011904 0.072790
vt 0.202150 0.145810
vt 0.011905 0.145811
vt 0.373664 0.072789
vt 0.373664 0.145810
vt 0.922518 0.484250
vt 0.858911 0.667692
vt 0.802769 0.534864
vt 0.609405 0.984604
vt 0.015607 0.390805
vt 0.609405 0.390805
vt 0.874802 0.476173
vt 0.702504 0.320840
vt 0.874802 0.320840
vt 0.644263 0.934724
vt 0.799596 0.868591
vt 0.799596 0.934723
vt 0.919197 0.983975
vt 0.919196 0.673308
vt 0.633319 0.102545
vt 0.943986 0.102544
vt 0.797202 0.756638
vt 0.695974 0.517139
vt 0.505723 0.018406
vt 0.505724 0.361434
vt 0.644600 0.549688
vt 0.763997 0.769197
vt 0.738057 0.770801
vt 0.955143 0.072939
vt 0.669515 0.518184
vt 0.584870 0.348267
vt 0.552524 0.020198
vt 0.584870 0.031572
vt 0.663827 0.532201
vt 0.778014 0.774886
vt 0.961583 0.982352
vt 0.948802 0.662151
vt 0.961583 0.674932
vt 0.552525 0.359641
vt 0.538413 0.006086
vt 0.942363 0.060158
vt 0.622162 0.072939
vt 0.634942 0.060159
vt 0.932062 0.030864
vt 0.645243 0.030864
vt 0.948802 0.995132
vt 0.990877 0.972051
vt 0.990877 0.685233
vt 0.538413 0.373753
vt 0.202150 0.072789
vt 0.978660 0.617078
vt 0.015607 0.984604
vt 0.702504 0.476173
vt 0.644263 0.868591
vn 0.0000 1.0000 0.0000
vn 0.0000 0.0000 1.0000
vn -1.0000 0.0000 0.0000
vn 0.0000 -1.0000 0.0000
vn 1.0000 0.0000 0.0000
vn 0.0000 0.0000 -1.0000
vn 0.0000 0.5785 -0.8157
vn 0.4469 0.8946 0.0000
vn -0.8927 0.4507 0.0000
vn 0.0000 0.5785 0.8157
vn 0.9361 -0.3516 0.0000
vn 0.9263 0.3769 0.0000
vn -0.9263 0.3769 0.0000
vn 0.0000 -0.3516 -0.9361
vn -0.9361 -0.3516 0.0000
vn 0.0000 0.3769 -0.9263
vn 0.0000 -0.3516 0.9361
vn 0.0000 0.3769 0.9263
s off
f 5/1/1 3/2/1 1/3/1
f 3/2/2 10/4/2 11/5/2
f 7/6/3 12/7/3 10/8/3
f 2/9/4 8/10/4 6/11/4
f 1/12/5 11/13/5 9/14/5
f 5/15/6 9/16/6 12/17/6
f 13/18/7 9/16/7 15/19/7
f 9/14/8 16/20/8 15/21/8
f 10/8/9 13/22/9 14/23/9
f 11/5/10 14/24/10 16/25/10
f 8/26/11 21/27/11 6/28/11
f 16/20/12 19/29/12 15/21/12
f 13/22/13 18/30/13 14/23/13
f 4/31/14 22/32/14 8/33/14
f 22/34/4 17/35/4 21/27/4
f 21/36/4 19/37/4 23/38/4
f 24/39/4 18/40/4 22/32/4
f 23/41/4 20/42/4 24/43/4
f 2/44/15 24/43/15 4/45/15
f 15/19/16 17/46/16 13/18/16
f 6/47/17 23/38/17 2/48/17
f 14/24/18 20/49/18 16/25/18
f 5/1/1 7/50/1 3/2/1
f 3/2/2 7/50/2 10/4/2
f 7/6/3 5/51/3 12/7/3
f 2/9/4 4/52/4 8/10/4
f 1/12/5 3/53/5 11/13/5
f 5/15/6 1/54/6 9/16/6
f 13/18/7 12/17/7 9/16/7
f 9/14/8 11/13/8 16/20/8
f 10/8/9 12/7/9 13/22/9
f 11/5/10 10/4/10 14/24/10
f 8/26/11 22/34/11 21/27/11
f 16/20/12 20/42/12 19/29/12
f 13/22/13 17/35/13 18/30/13
f 4/31/14 24/39/14 22/32/14
f 22/34/4 18/30/4 17/35/4
f 21/36/4 17/46/4 19/37/4
f 24/39/4 20/49/4 18/40/4
f 23/41/4 19/29/4 20/42/4
f 2/44/15 23/41/15 24/43/15
f 15/19/16 19/37/16 17/46/16
f 6/47/17 21/36/17 23/38/17
f 14/24/18 18/40/18 20/49/18
