# Blender 3.1.0
# www.blender.org
o Plane
v 10.316730 0.000000 -26.103756
v -9.316730 0.000000 -26.103756
v 10.316730 0.000000 -5.617487
v -10.044765 0.000000 15.706388
v 10.316730 0.000000 2.878999
v -9.316730 0.000000 2.878999
v -10.044765 0.000000 11.254073
v 10.316730 0.000000 -8.672878
v -9.316730 0.000000 -8.672878
v 0.000000 0.000000 -26.103756
v -0.728036 0.000000 15.706388
v 0.000000 0.000000 2.878999
v -0.728036 0.000000 11.254073
v 0.000000 0.000000 -8.672878
v 4.430329 0.000000 15.706388
v 5.158365 0.000000 2.878999
v 4.430329 0.000000 11.254073
v 5.158365 0.000000 -8.672878
v 5.158365 0.000000 -26.103756
v -4.158365 0.000000 -26.103756
v -4.886401 0.000000 15.706388
v -4.158365 0.000000 2.878999
v -4.886401 0.000000 11.254073
v -4.158365 0.000000 -8.672878
v 15.936797 0.000000 2.878999
v 14.462188 0.000000 13.430878
v 15.936797 0.000000 -8.672878
v -9.316730 0.000000 -2.396940
v 10.316730 0.000000 -2.396940
v 0.000000 0.000000 -2.396940
v 5.158365 0.000000 -2.396940
v -4.158365 0.000000 -2.396940
v 15.936797 0.000000 -2.396940
v 32.778973 0.000000 -8.672878
v 32.778973 0.000000 -2.396940
v 42.048409 0.000000 -8.672878
v 42.048409 0.000000 -2.396940
v 32.778973 0.000000 -25.993513
v 42.048409 0.000000 -25.993513
v 12.048405 0.000000 -10.283289
v 12.048405 0.000000 -25.993513
v 32.778973 0.000000 -10.283289
v 42.048409 0.000000 -10.283289
v 10.316730 0.000000 6.085517
v -10.044765 0.000000 6.085517
v -0.728036 0.000000 6.085517
v 4.430329 0.000000 6.085517
v -4.886401 0.000000 6.085517
v 14.462188 0.000000 6.085517
v 11.126764 0.000000 2.878999
v 11.126764 0.000000 -8.672878
v 11.126764 0.000000 -2.396940
v 11.126764 0.000000 6.085517
v 14.462188 0.000000 27.631010
v 5.694193 0.000000 27.643629
v 5.694022 0.000000 15.734272
v 14.462188 0.000000 17.911077
v 41.936798 0.000000 27.631010
v 41.936798 0.000000 17.911077
v 33.936798 0.000000 27.631010
v 33.936798 0.000000 17.911077
v 41.936798 0.000000 7.911077
v 33.936798 0.000000 7.911077
v 41.936798 0.000000 -1.088923
v 33.936798 0.000000 -1.088923
v 22.813284 0.000000 7.911077
v 22.813284 0.000000 -1.088923
v 32.686798 0.000000 -1.088923
v 32.686798 0.000000 7.911077
v 22.813284 0.000000 15.911077
v 32.686798 0.000000 15.911077
v 15.462189 0.000000 7.911077
v 15.462189 0.000000 15.911077
v 20.936796 0.000000 2.878999
v 20.936796 0.000000 -2.396940
v 20.936796 0.000000 6.085517
v 15.936797 0.000000 -5.617487
v -9.316730 0.000000 -5.617487
v 0.000000 0.000000 -5.617487
v 5.158365 0.000000 -5.617487
v -4.158365 0.000000 -5.617487
v 32.778973 0.000000 -5.617487
v 42.048409 0.000000 -5.617487
v 11.126764 0.000000 -5.617487
v -42.316734 0.000000 2.878999
v -42.316734 0.000000 -2.396940
v -42.316734 0.000000 6.085517
v -42.316734 0.000000 -5.617487
v -27.719414 0.000000 2.878999
v -27.719414 0.000000 6.085517
v -27.719414 0.000000 -5.617487
v -27.719414 0.000000 -2.396940
v -35.018074 0.000000 2.878999
v -35.018074 0.000000 -5.617487
v -35.018074 0.000000 6.085517
v -35.018074 0.000000 -2.396940
v -20.018072 0.000000 6.085517
v -20.018072 0.000000 -2.396940
v -20.018072 0.000000 2.878999
v -20.018072 0.000000 -5.617487
v -42.316734 0.000000 -9.845397
v -35.018074 0.000000 -9.845397
v -42.316734 0.000000 -26.058844
v -35.018074 0.000000 -26.058844
v -17.508301 0.000000 -9.845397
v -17.508301 0.000000 -26.058844
v -33.208492 0.000000 -9.845397
v -33.208492 0.000000 -26.058844
v -17.508301 0.000000 -6.845397
v -33.208492 0.000000 -6.845397
v -17.511295 0.000000 -15.911448
v -17.471573 0.000000 -11.936244
v -16.755852 0.000000 -16.998297
v -35.018074 0.000000 -15.925833
v -42.316734 0.000000 -15.925833
v -33.208492 0.000000 -15.925833
v -15.692536 0.000000 -18.150562
v -42.316734 0.000000 -13.698341
v -35.018074 0.000000 -13.698341
v -17.514982 0.000000 -13.690959
v -33.208492 0.000000 -13.698341
v -14.547722 0.000000 -18.830317
v -10.522577 0.000000 -18.926039
v -35.018074 0.000000 -21.404228
v -17.508301 0.000000 -21.404228
v -33.208492 0.000000 -21.404228
v -42.316734 0.000000 -21.404228
v -42.316734 0.000000 -11.771869
v -35.018074 0.000000 -11.771869
v -33.208492 0.000000 -11.771869
v -12.985483 0.000000 -18.926039
v -10.522577 0.000000 -26.058844
v -16.393240 0.000000 -8.585672
v -16.393959 0.000000 -5.601580
v -16.396235 0.000000 -14.651723
v -16.356514 0.000000 -10.676519
v -15.640791 0.000000 -15.738573
v -14.577476 0.000000 -16.890839
v -16.399921 0.000000 -12.431234
v -13.432661 0.000000 -17.570593
v -9.362123 0.000000 -17.615055
v -11.870422 0.000000 -17.666315
v -16.394678 0.000000 6.085517
v -16.394678 0.000000 -2.396940
v -16.394678 0.000000 2.878999
v 10.316730 0.000000 -17.563795
v 0.000000 0.000000 -17.563795
v 5.158365 0.000000 -17.563795
v -4.158365 0.000000 -17.563795
v -11.961066 0.000000 6.085517
v -11.961066 0.000000 -2.396940
v -11.961066 0.000000 2.878999
v -11.960707 0.000000 -5.609534
v -20.018072 0.000000 7.894645
v -16.394678 0.000000 7.894645
v -11.961066 0.000000 7.894645
v -20.018072 0.000000 18.698103
v -16.394678 0.000000 18.698103
v -11.961066 0.000000 17.717840
v -42.260326 0.000000 8.153958
v -42.260326 0.000000 18.957418
v -19.985210 0.000000 27.638027
v -16.394678 0.000000 27.656246
v -11.961066 0.000000 27.656246
v 5.694193 0.000000 17.605078
v -34.701256 0.000000 8.024302
v 14.462188 0.000000 19.768599
v 41.936798 0.000000 19.768599
v 33.936798 0.000000 19.768599
v -34.701252 0.000000 18.827761
v -34.701252 0.000000 27.619806
v 3.732498 0.000000 17.617607
v 3.732498 0.000000 27.645031
v 34.197716 0.000000 -8.672878
v 34.197716 0.000000 -2.396940
v 34.197716 0.000000 -25.993513
v 34.197716 0.000000 -10.283289
v 34.197716 0.000000 -5.617487
v 12.048405 0.000000 -18.244150
v 42.048409 0.000000 -18.244150
v 32.778973 0.000000 -18.244150
v 34.197716 0.000000 -18.244150
vn -0.0000 1.0000 -0.0000
vt 0.618281 0.635625
vt 0.392902 0.635625
vt 0.618281 0.400457
vt 0.384545 0.155673
vt 0.618281 0.302923
vt 0.392902 0.302923
vt 0.384545 0.206783
vt 0.618281 0.435530
vt 0.392902 0.435530
vt 0.499852 0.635625
vt 0.491495 0.155673
vt 0.499852 0.302923
vt 0.491495 0.206783
vt 0.499852 0.435530
vt 0.550709 0.155673
vt 0.559066 0.302923
vt 0.550709 0.206783
vt 0.559066 0.435530
vt 0.559066 0.635625
vt 0.452117 0.635625
vt 0.443760 0.155673
vt 0.452117 0.302923
vt 0.443760 0.206783
vt 0.452117 0.435530
vt 0.682795 0.302923
vt 0.665868 0.181795
vt 0.682795 0.435531
vt 0.392902 0.363487
vt 0.618281 0.363487
vt 0.499852 0.363487
vt 0.559066 0.363487
vt 0.452117 0.363487
vt 0.682795 0.363487
vt 0.876132 0.435531
vt 0.876132 0.363487
vt 0.982539 0.435531
vt 0.982539 0.363487
vt 0.211824 0.786171
vt 0.876132 0.634359
vt 0.982539 0.634359
vt 0.008116 0.631796
vt 0.008116 0.786171
vt 0.211824 0.631796
vt 0.876132 0.454017
vt 0.982539 0.454017
vt 0.618281 0.266114
vt 0.384545 0.266114
vt 0.491495 0.266114
vt 0.550709 0.266114
vt 0.443759 0.266114
vt 0.665868 0.266114
vt 0.627580 0.302923
vt 0.627579 0.435530
vt 0.627580 0.363487
vt 0.627580 0.266114
vt 0.665868 0.018787
vt 0.565218 0.018642
vt 0.565216 0.155353
vt 0.665868 0.130365
vt 0.981257 0.018788
vt 0.981257 0.130366
vt 0.889423 0.018788
vt 0.889423 0.130366
vt 0.981257 0.245159
vt 0.537144 0.894336
vt 0.458532 0.894336
vt 0.889422 0.245159
vt 0.537144 0.982774
vt 0.458532 0.982774
vt 0.349416 0.894336
vt 0.349416 0.982774
vt 0.446249 0.982774
vt 0.446249 0.894336
vt 0.349416 0.815725
vt 0.446249 0.815725
vt 0.276992 0.894336
vt 0.276992 0.815725
vt 0.740192 0.302923
vt 0.740192 0.363487
vt 0.740192 0.266114
vt 0.682795 0.400457
vt 0.392902 0.400457
vt 0.499852 0.400457
vt 0.559066 0.400457
vt 0.452117 0.400457
vt 0.876132 0.400457
vt 0.982539 0.400457
vt 0.627580 0.400457
vt 0.014085 0.302922
vt 0.014085 0.363487
vt 0.014085 0.266114
vt 0.014085 0.400456
vt 0.181652 0.302923
vt 0.181652 0.266114
vt 0.181652 0.400456
vt 0.181652 0.363487
vt 0.097869 0.302922
vt 0.097869 0.400456
vt 0.097869 0.266114
vt 0.097869 0.363487
vt 0.270058 0.266114
vt 0.270058 0.363487
vt 0.270058 0.302923
vt 0.270058 0.400456
vt 0.007849 0.830848
vt 0.014085 0.448990
vt 0.097869 0.448990
vt 0.079569 0.830848
vt 0.007849 0.990169
vt 0.079569 0.990169
vt 0.251627 0.830848
vt 0.251627 0.990169
vt 0.097350 0.830848
vt 0.097350 0.990169
vt 0.251627 0.801369
vt 0.097350 0.801369
vt 0.251598 0.890456
vt 0.251988 0.851394
vt 0.259021 0.901136
vt 0.079569 0.890597
vt 0.007849 0.890597
vt 0.097350 0.890597
vt 0.269470 0.912458
vt 0.007849 0.868709
vt 0.079569 0.868709
vt 0.251562 0.868636
vt 0.097350 0.868709
vt 0.280719 0.919138
vt 0.320272 0.920079
vt 0.079569 0.944430
vt 0.251627 0.944430
vt 0.097350 0.944430
vt 0.007849 0.944430
vt 0.007849 0.849779
vt 0.079569 0.849779
vt 0.097350 0.849779
vt 0.296071 0.920079
vt 0.320272 0.990169
vt 0.311669 0.434529
vt 0.311660 0.400274
vt 0.311634 0.504163
vt 0.312090 0.458531
vt 0.320306 0.516640
vt 0.332512 0.529867
vt 0.311592 0.478674
vt 0.345654 0.537670
vt 0.392381 0.538180
vt 0.363587 0.538769
vt 0.311652 0.266114
vt 0.311652 0.363487
vt 0.311652 0.302923
vt 0.618281 0.537592
vt 0.499852 0.537592
vt 0.559066 0.537592
vt 0.452117 0.537592
vt 0.362547 0.266114
vt 0.362547 0.363487
vt 0.362547 0.302923
vt 0.362551 0.400365
vt 0.270058 0.245346
vt 0.730540 0.686669
vt 0.311652 0.245346
vt 0.694935 0.686669
vt 0.651368 0.686669
vt 0.362547 0.245347
vt 0.730540 0.792828
vt 0.694935 0.792828
vt 0.651368 0.783196
vt 0.949102 0.689217
vt 0.949102 0.795377
vt 0.730217 0.880676
vt 0.694935 0.880855
vt 0.651368 0.880855
vt 0.565218 0.133878
vt 0.874823 0.687943
vt 0.665868 0.109042
vt 0.981257 0.109043
vt 0.889423 0.109043
vt 0.874823 0.794102
vt 0.874823 0.880497
vt 0.497156 0.782211
vt 0.497156 0.880745
vt 0.892418 0.435531
vt 0.892418 0.363487
vt 0.892418 0.634359
vt 0.892418 0.454017
vt 0.892418 0.400457
vt 0.008116 0.710023
vt 0.982539 0.545402
vt 0.876132 0.545402
vt 0.211824 0.710023
vt 0.892418 0.545402
s 0
f 7/7/1 21/21/1 23/23/1
f 28/28/1 22/22/1 32/32/1
f 45/47/1 23/23/1 48/50/1
f 149/155/1 9/9/1 24/24/1
f 147/153/1 18/18/1 148/154/1
f 46/48/1 17/17/1 47/49/1
f 30/30/1 16/16/1 31/31/1
f 13/13/1 15/15/1 17/17/1
f 31/31/1 5/5/1 29/29/1
f 148/154/1 8/8/1 146/152/1
f 149/155/1 14/14/1 147/153/1
f 48/50/1 13/13/1 46/48/1
f 32/32/1 12/12/1 30/30/1
f 23/23/1 11/11/1 13/13/1
f 50/52/1 33/33/1 52/54/1
f 26/26/1 44/46/1 17/17/1
f 52/54/1 77/81/1 84/88/1
f 81/85/1 30/30/1 79/83/1
f 80/84/1 29/29/1 3/3/1
f 79/83/1 31/31/1 80/84/1
f 78/82/1 32/32/1 81/85/1
f 33/33/1 82/86/1 77/81/1
f 175/184/1 83/87/1 178/187/1
f 38/38/1 179/188/1 181/191/1
f 36/36/1 177/186/1 174/183/1
f 180/189/1 176/185/1 182/192/1
f 50/52/1 49/51/1 25/25/1
f 22/22/1 46/48/1 12/12/1
f 16/16/1 44/46/1 5/5/1
f 12/12/1 47/49/1 16/16/1
f 6/6/1 48/50/1 22/22/1
f 44/46/1 50/52/1 5/5/1
f 29/29/1 84/88/1 3/3/1
f 5/5/1 52/54/1 29/29/1
f 167/176/1 55/57/1 54/56/1
f 60/62/1 168/177/1 169/178/1
f 54/56/1 169/178/1 167/176/1
f 59/61/1 63/67/1 61/63/1
f 62/65/1 65/69/1 63/66/1
f 68/72/1 66/70/1 69/73/1
f 65/69/1 69/73/1 63/66/1
f 66/70/1 71/75/1 69/73/1
f 66/70/1 73/77/1 70/74/1
f 25/25/1 75/79/1 33/33/1
f 25/25/1 76/80/1 74/78/1
f 3/3/1 51/53/1 8/8/1
f 178/187/1 36/36/1 174/183/1
f 77/81/1 34/34/1 27/27/1
f 9/9/1 81/85/1 24/24/1
f 14/14/1 80/84/1 18/18/1
f 18/18/1 3/3/1 8/8/1
f 24/24/1 79/83/1 14/14/1
f 84/88/1 27/27/1 51/53/1
f 93/97/1 87/91/1 95/99/1
f 94/98/1 86/90/1 96/100/1
f 96/100/1 85/89/1 93/97/1
f 98/102/1 89/93/1 99/103/1
f 100/104/1 92/96/1 98/102/1
f 99/103/1 90/94/1 97/101/1
f 92/96/1 93/97/1 89/93/1
f 91/95/1 96/100/1 92/96/1
f 89/93/1 95/99/1 90/94/1
f 145/151/1 97/101/1 143/149/1
f 134/140/1 98/102/1 144/150/1
f 144/150/1 99/103/1 145/151/1
f 94/98/1 101/106/1 88/92/1
f 124/130/1 103/109/1 127/133/1
f 130/136/1 105/111/1 112/118/1
f 102/108/1 130/136/1 129/135/1
f 107/113/1 109/115/1 105/111/1
f 114/120/1 126/132/1 124/130/1
f 116/122/1 125/131/1 126/132/1
f 119/125/1 115/121/1 118/124/1
f 129/135/1 118/124/1 128/134/1
f 119/125/1 116/122/1 114/120/1
f 116/122/1 120/126/1 111/117/1
f 126/132/1 106/112/1 108/114/1
f 124/130/1 108/114/1 104/110/1
f 114/120/1 127/133/1 115/121/1
f 102/108/1 128/134/1 101/105/1
f 129/135/1 121/127/1 119/125/1
f 130/136/1 120/126/1 121/127/1
f 122/128/1 131/137/1 125/131/1
f 153/159/1 142/148/1 135/141/1
f 151/157/1 145/151/1 152/158/1
f 151/157/1 134/140/1 144/150/1
f 152/158/1 143/149/1 150/156/1
f 20/20/1 147/153/1 10/10/1
f 19/19/1 146/152/1 1/1/1
f 10/10/1 148/154/1 19/19/1
f 20/20/1 141/147/1 149/155/1
f 45/47/1 152/158/1 150/156/1
f 28/28/1 153/159/1 151/157/1
f 28/28/1 152/158/1 6/6/1
f 143/149/1 156/165/1 150/156/1
f 97/101/1 155/162/1 143/149/1
f 155/163/1 159/168/1 156/164/1
f 154/161/1 158/167/1 155/163/1
f 170/179/1 160/169/1 161/170/1
f 158/167/1 164/173/1 159/168/1
f 158/167/1 162/171/1 163/172/1
f 167/176/1 61/63/1 57/59/1
f 169/178/1 59/61/1 61/63/1
f 57/59/1 165/174/1 167/176/1
f 157/166/1 166/175/1 170/179/1
f 162/171/1 170/179/1 171/180/1
f 159/168/1 173/182/1 172/181/1
f 82/86/1 174/183/1 34/34/1
f 182/192/1 38/39/1 181/190/1
f 174/183/1 42/44/1 34/34/1
f 35/35/1 178/187/1 82/86/1
f 177/186/1 181/190/1 42/44/1
f 43/45/1 182/192/1 177/186/1
f 181/191/1 40/41/1 42/43/1
f 7/7/1 4/4/1 21/21/1
f 28/28/1 6/6/1 22/22/1
f 45/47/1 7/7/1 23/23/1
f 149/155/1 141/147/1 9/9/1
f 147/153/1 14/14/1 18/18/1
f 46/48/1 13/13/1 17/17/1
f 30/30/1 12/12/1 16/16/1
f 13/13/1 11/11/1 15/15/1
f 31/31/1 16/16/1 5/5/1
f 148/154/1 18/18/1 8/8/1
f 149/155/1 24/24/1 14/14/1
f 48/50/1 23/23/1 13/13/1
f 32/32/1 22/22/1 12/12/1
f 23/23/1 21/21/1 11/11/1
f 50/52/1 25/25/1 33/33/1
f 17/17/1 15/15/1 56/58/1
f 56/58/1 57/59/1 26/26/1
f 26/26/1 49/51/1 53/55/1
f 44/46/1 47/49/1 17/17/1
f 26/26/1 53/55/1 44/46/1
f 17/17/1 56/58/1 26/26/1
f 52/54/1 33/33/1 77/81/1
f 81/85/1 32/32/1 30/30/1
f 80/84/1 31/31/1 29/29/1
f 79/83/1 30/30/1 31/31/1
f 78/82/1 28/28/1 32/32/1
f 33/33/1 35/35/1 82/86/1
f 175/184/1 37/37/1 83/87/1
f 38/38/1 41/42/1 179/188/1
f 36/36/1 43/45/1 177/186/1
f 180/189/1 39/40/1 176/185/1
f 50/52/1 53/55/1 49/51/1
f 22/22/1 48/50/1 46/48/1
f 16/16/1 47/49/1 44/46/1
f 12/12/1 46/48/1 47/49/1
f 6/6/1 45/47/1 48/50/1
f 44/46/1 53/55/1 50/52/1
f 29/29/1 52/54/1 84/88/1
f 5/5/1 50/52/1 52/54/1
f 167/176/1 165/174/1 55/57/1
f 60/62/1 58/60/1 168/177/1
f 54/56/1 60/62/1 169/178/1
f 59/61/1 62/64/1 63/67/1
f 62/65/1 64/68/1 65/69/1
f 68/72/1 67/71/1 66/70/1
f 65/69/1 68/72/1 69/73/1
f 66/70/1 70/74/1 71/75/1
f 66/70/1 72/76/1 73/77/1
f 25/25/1 74/78/1 75/79/1
f 25/25/1 49/51/1 76/80/1
f 3/3/1 84/88/1 51/53/1
f 178/187/1 83/87/1 36/36/1
f 77/81/1 82/86/1 34/34/1
f 9/9/1 78/82/1 81/85/1
f 14/14/1 79/83/1 80/84/1
f 18/18/1 80/84/1 3/3/1
f 24/24/1 81/85/1 79/83/1
f 84/88/1 77/81/1 27/27/1
f 93/97/1 85/89/1 87/91/1
f 94/98/1 88/92/1 86/90/1
f 96/100/1 86/90/1 85/89/1
f 98/102/1 92/96/1 89/93/1
f 100/104/1 91/95/1 92/96/1
f 99/103/1 89/93/1 90/94/1
f 92/96/1 96/100/1 93/97/1
f 91/95/1 94/98/1 96/100/1
f 89/93/1 93/97/1 95/99/1
f 145/151/1 99/103/1 97/101/1
f 134/140/1 100/104/1 98/102/1
f 144/150/1 98/102/1 99/103/1
f 94/98/1 102/107/1 101/106/1
f 124/130/1 104/110/1 103/109/1
f 130/136/1 107/113/1 105/111/1
f 102/108/1 107/113/1 130/136/1
f 107/113/1 110/116/1 109/115/1
f 114/120/1 116/122/1 126/132/1
f 116/122/1 111/117/1 125/131/1
f 119/125/1 114/120/1 115/121/1
f 129/135/1 119/125/1 118/124/1
f 119/125/1 121/127/1 116/122/1
f 116/122/1 121/127/1 120/126/1
f 126/132/1 125/131/1 106/112/1
f 124/130/1 126/132/1 108/114/1
f 114/120/1 124/130/1 127/133/1
f 102/108/1 129/135/1 128/134/1
f 129/135/1 130/136/1 121/127/1
f 130/136/1 112/118/1 120/126/1
f 131/137/1 123/129/1 132/138/1
f 132/138/1 106/112/1 125/131/1
f 125/131/1 111/117/1 113/119/1
f 125/131/1 113/119/1 117/123/1
f 131/137/1 132/138/1 125/131/1
f 125/131/1 117/123/1 122/128/1
f 133/139/1 134/140/1 153/159/1
f 153/159/1 78/82/1 9/9/1
f 9/9/1 141/147/1 142/148/1
f 142/148/1 140/146/1 138/144/1
f 138/144/1 137/143/1 135/141/1
f 135/141/1 139/145/1 136/142/1
f 136/142/1 133/139/1 153/159/1
f 153/159/1 9/9/1 142/148/1
f 142/148/1 138/144/1 135/141/1
f 135/141/1 136/142/1 153/159/1
f 151/157/1 144/150/1 145/151/1
f 151/157/1 153/159/1 134/140/1
f 152/158/1 145/151/1 143/149/1
f 20/20/1 149/155/1 147/153/1
f 19/19/1 148/154/1 146/152/1
f 10/10/1 147/153/1 148/154/1
f 20/20/1 2/2/1 141/147/1
f 45/47/1 6/6/1 152/158/1
f 28/28/1 78/82/1 153/159/1
f 28/28/1 151/157/1 152/158/1
f 143/149/1 155/162/1 156/165/1
f 97/101/1 154/160/1 155/162/1
f 155/163/1 158/167/1 159/168/1
f 154/161/1 157/166/1 158/167/1
f 170/179/1 166/175/1 160/169/1
f 158/167/1 163/172/1 164/173/1
f 158/167/1 157/166/1 162/171/1
f 167/176/1 169/178/1 61/63/1
f 169/178/1 168/177/1 59/61/1
f 57/59/1 56/58/1 165/174/1
f 157/166/1 154/161/1 166/175/1
f 162/171/1 157/166/1 170/179/1
f 159/168/1 164/173/1 173/182/1
f 82/86/1 178/187/1 174/183/1
f 182/192/1 176/185/1 38/39/1
f 174/183/1 177/186/1 42/44/1
f 35/35/1 175/184/1 178/187/1
f 177/186/1 182/192/1 181/190/1
f 43/45/1 180/189/1 182/192/1
f 181/191/1 179/188/1 40/41/1
