# Blender v3.0.0 OBJ File: 'Mirror.blend'
# www.blender.org
o Cube.001
v 0.073600 3.399765 -0.775555
v 0.073600 0.589203 -0.775555
v 0.073600 3.399765 0.775555
v 0.073600 0.589203 0.775555
v 0.107997 3.399765 -0.775555
v 0.107997 0.589203 -0.775555
v 0.107997 3.399765 0.775555
v 0.107997 0.589203 0.775555
v -0.023460 3.806451 -1.000000
v -0.023460 0.182517 -1.000000
v -0.023460 3.806451 1.000000
v -0.023460 0.182517 1.000000
v 0.107997 3.806451 -1.000000
v 0.107997 0.182517 -1.000000
v 0.107997 3.806451 1.000000
v 0.107997 0.182517 1.000000
v 0.059715 3.399765 -0.775555
v 0.059715 0.589203 -0.775555
v 0.059715 3.399765 0.775555
v 0.059715 0.589203 0.775555
vt 0.500704 0.950278
vt 0.937500 0.312500
vt 0.937500 0.950278
vt 0.257486 0.158873
vt 0.757488 0.195862
vt 0.257488 0.195892
vt 0.757481 0.084806
vt 0.257484 0.121855
vt 0.257481 0.084836
vt 0.064611 0.618083
vt 0.415824 0.306284
vt 0.415824 0.618083
vt 0.257484 0.121855
vt 0.757486 0.158843
vt 0.257486 0.158873
vt 0.369713 0.236674
vt 0.757490 0.223054
vt 0.757491 0.236650
vt 0.257481 0.084836
vt 0.757479 0.047787
vt 0.757481 0.084806
vt 0.376410 0.653073
vt 0.415824 0.929881
vt 0.376410 0.894890
vt 0.104025 0.894890
vt 0.064611 0.618083
vt 0.104025 0.653073
vt 0.064611 0.929881
vt 0.415824 0.618083
vt 0.369712 0.223078
vt 0.757489 0.209458
vt 0.757490 0.223054
vt 0.369714 0.250270
vt 0.757491 0.236650
vt 0.757491 0.250246
vt 0.757488 0.195862
vt 0.369711 0.209481
vt 0.369710 0.195885
vt 0.500704 0.312500
vt 0.757486 0.158843
vt 0.757484 0.121825
vt 0.064611 0.306284
vt 0.757484 0.121825
vt 0.369712 0.223078
vt 0.257479 0.047818
vt 0.369711 0.209481
vt 0.369713 0.236674
vt 0.757489 0.209458
vn 1.0000 0.0000 0.0000
vn 0.0000 1.0000 0.0000
vn 0.0000 0.0000 1.0000
vn -1.0000 0.0000 0.0000
vn 0.0000 -1.0000 0.0000
vn 0.0000 0.0000 -1.0000
s off
f 1/1/1 4/2/1 2/3/1
f 9/4/2 15/5/2 13/6/2
f 15/7/3 12/8/3 16/9/3
f 11/10/4 10/11/4 12/12/4
f 14/13/5 12/14/5 10/15/5
f 6/16/2 20/17/2 8/18/2
f 9/19/6 14/20/6 10/21/6
f 6/22/1 13/23/1 5/24/1
f 7/25/1 16/26/1 8/27/1
f 5/24/1 15/28/1 7/25/1
f 8/27/1 14/29/1 6/22/1
f 8/30/6 19/31/6 7/32/6
f 7/33/5 17/34/5 5/35/5
f 5/36/3 18/37/3 6/38/3
f 1/1/1 3/39/1 4/2/1
f 9/4/2 11/40/2 15/5/2
f 15/7/3 11/41/3 12/8/3
f 11/10/4 9/42/4 10/11/4
f 14/13/5 16/43/5 12/14/5
f 6/16/2 18/44/2 20/17/2
f 9/19/6 13/45/6 14/20/6
f 6/22/1 14/29/1 13/23/1
f 7/25/1 15/28/1 16/26/1
f 5/24/1 13/23/1 15/28/1
f 8/27/1 16/26/1 14/29/1
f 8/30/6 20/46/6 19/31/6
f 7/33/5 19/47/5 17/34/5
f 5/36/3 17/48/3 18/37/3
