# Blender v3.0.1 OBJ File: 'Poster.blend'
# www.blender.org
o Cube
v 0.638361 1.854529 -0.100077
v 0.638361 -0.003823 -0.100077
v 0.561293 1.777460 0.000984
v 0.561293 0.073245 0.000984
v -0.644251 1.854529 -0.100077
v -0.644251 -0.003823 -0.100077
v -0.567183 1.777460 0.000984
v -0.567183 0.073245 0.000984
v -0.644251 -0.003823 0.000984
v -0.644251 1.854529 0.000984
v 0.638361 1.854529 0.000984
v 0.638361 -0.003823 0.000984
v -0.588247 0.073245 -0.039307
v -0.588247 1.777460 -0.039307
v 0.540229 1.777460 -0.039307
v 0.540229 0.073245 -0.039307
vt 0.048863 0.762331
vt 0.173467 0.752513
vt 0.173467 0.762331
vt 0.056350 0.745026
vt 0.163933 0.741112
vt 0.165980 0.745026
vt 0.039045 0.762331
vt 0.048862 0.942867
vt 0.039044 0.942867
vt 0.173466 0.942867
vt 0.048862 0.952685
vt 0.183284 0.942867
vt 0.031558 0.769818
vt 0.031557 0.935380
vt 0.190772 0.769818
vt 0.183285 0.762331
vt 0.048863 0.752513
vt 0.056349 0.960172
vt 0.173466 0.952685
vt 0.165979 0.960172
vt 0.928182 0.989823
vt 0.278522 0.008712
vt 0.928182 0.008712
vt 0.027140 0.769818
vt 0.163933 0.964086
vt 0.054303 0.964086
vt 0.195189 0.935380
vt 0.190771 0.935380
vt 0.054304 0.741111
vt 0.278522 0.989823
vt 0.027140 0.935380
vt 0.195189 0.769818
vn 0.0000 1.0000 0.0000
vn 0.0000 -1.0000 -0.0000
vn -1.0000 0.0000 0.0000
vn 1.0000 0.0000 0.0000
vn 0.0000 0.0000 -1.0000
vn -0.0000 0.0000 1.0000
vn 0.8862 0.0000 -0.4633
vn -0.8862 0.0000 0.4633
s off
f 5/1/1 11/2/1 1/3/1
f 7/4/2 15/5/2 3/6/2
f 10/7/3 6/8/3 9/9/3
f 2/10/2 9/11/2 6/8/2
f 1/3/4 12/12/4 2/10/4
f 5/1/5 2/10/5 6/8/5
f 7/13/6 9/9/6 8/14/6
f 3/15/6 12/12/6 11/16/6
f 3/6/6 10/17/6 7/4/6
f 8/18/6 12/19/6 4/20/6
f 15/21/6 13/22/6 16/23/6
f 8/14/7 14/24/7 7/13/7
f 8/18/1 16/25/1 13/26/1
f 3/15/8 16/27/8 4/28/8
f 5/1/1 10/17/1 11/2/1
f 7/4/2 14/29/2 15/5/2
f 10/7/3 5/1/3 6/8/3
f 2/10/2 12/19/2 9/11/2
f 1/3/4 11/16/4 12/12/4
f 5/1/5 1/3/5 2/10/5
f 7/13/6 10/7/6 9/9/6
f 3/15/6 4/28/6 12/12/6
f 3/6/6 11/2/6 10/17/6
f 8/18/6 9/11/6 12/19/6
f 15/21/6 14/30/6 13/22/6
f 8/14/7 13/31/7 14/24/7
f 8/18/1 4/20/1 16/25/1
f 3/15/8 15/32/8 16/27/8
