# Blender 3.1.0
# www.blender.org
o Cube
v 0.875691 0.829767 -0.637212
v 0.896590 0.848113 -0.669285
v 0.939881 0.847952 -0.621705
v 0.907796 0.829766 -0.605107
v 0.875691 0.003215 -0.605107
v 0.875691 0.020779 -0.637212
v 0.907796 0.020779 -0.605107
v 0.907796 0.829766 0.605107
v 0.939881 0.847952 0.621705
v 0.896590 0.848113 0.669285
v 0.875691 0.829767 0.637212
v 0.907796 0.020779 0.605107
v 0.875691 0.020779 0.637212
v 0.875691 0.003215 0.605107
v -0.875691 0.829767 -0.637212
v -0.907796 0.829766 -0.605107
v -0.939881 0.847952 -0.621705
v -0.896590 0.848113 -0.669285
v -0.907796 0.020779 -0.605107
v -0.875691 0.020779 -0.637212
v -0.875691 0.003215 -0.605107
v -0.907796 0.829766 0.605107
v -0.875691 0.829767 0.637212
v -0.896590 0.848113 0.669285
v -0.939881 0.847952 0.621705
v -0.875691 0.003215 0.605107
v -0.875691 0.020779 0.637212
v -0.907796 0.020779 0.605107
v -1.039244 0.849877 0.700615
v -0.979351 0.849716 0.735011
v -1.039224 0.868063 0.767084
v -1.071329 0.868063 0.734979
v 0.979351 0.849716 0.735011
v 1.039244 0.849877 0.700615
v 1.071329 0.868063 0.734979
v 1.039224 0.868063 0.767084
v -1.039244 0.849877 -0.700615
v -1.071329 0.868063 -0.734979
v -1.039224 0.868063 -0.767084
v -0.979351 0.849716 -0.735011
v 1.039244 0.849877 -0.700615
v 0.979351 0.849716 -0.735011
v 1.039224 0.868063 -0.767084
v 1.071329 0.868063 -0.734979
v -1.006796 0.961469 -0.669151
v -0.974691 0.961469 -0.701256
v -0.993310 0.979033 -0.733361
v -1.038900 0.979033 -0.688144
v -1.006796 0.961469 0.669151
v -1.038900 0.979033 0.688144
v -0.993310 0.979033 0.733361
v -0.974691 0.961469 0.701256
v 0.974691 0.961469 0.701256
v 0.993310 0.979033 0.733361
v 1.038900 0.979033 0.688144
v 1.006796 0.961469 0.669151
v 1.006796 0.961469 -0.669151
v 1.038900 0.979033 -0.688144
v 0.993310 0.979033 -0.733361
v 0.974691 0.961469 -0.701256
v -1.039224 0.979033 -0.688474
v -0.994896 0.979033 -0.734979
v -1.039224 0.961469 -0.767084
v -1.071329 0.961469 -0.734979
v -1.039224 0.979033 0.688474
v -1.071329 0.961469 0.734979
v -1.039224 0.961469 0.767084
v -0.994896 0.979033 0.734979
v 0.994896 0.979033 0.734979
v 1.039224 0.961469 0.767084
v 1.071329 0.961469 0.734979
v 1.039224 0.979033 0.688474
v 1.039224 0.979033 -0.688474
v 1.071329 0.961469 -0.734979
v 1.039224 0.961469 -0.767084
v 0.994896 0.979033 -0.734979
v 0.820156 0.316963 -0.500491
v 0.820156 0.299399 -0.468386
v 0.852261 0.316963 -0.468386
v 0.820156 0.316963 0.500491
v 0.852261 0.316963 0.468386
v 0.820156 0.299399 0.468386
v -0.852261 0.316963 0.468386
v -0.820156 0.316963 0.500491
v -0.820156 0.299399 0.468386
v -0.852261 0.316963 -0.468386
v -0.820156 0.299399 -0.468386
v -0.820156 0.316963 -0.500491
v -0.974691 0.910571 -0.606912
v -0.941570 0.910571 -0.669151
v -0.974691 0.928135 -0.701256
v -1.006796 0.928135 -0.669151
v -0.974691 0.910571 0.606912
v -1.006796 0.928135 0.669151
v -0.974691 0.928135 0.701256
v -0.941570 0.910571 0.669151
v 0.941570 0.910571 0.669151
v 0.974691 0.928135 0.701256
v 1.006796 0.928135 0.669151
v 0.974691 0.910571 0.606912
v 0.974691 0.910571 -0.606912
v 1.006796 0.928135 -0.669151
v 0.974691 0.928135 -0.701256
v 0.941570 0.910571 -0.669151
v -0.820156 0.893007 -0.500491
v -0.836459 0.910571 -0.532596
v -0.884366 0.910571 -0.489566
v -0.852261 0.893007 -0.468386
v -0.820156 0.893007 0.500491
v -0.852261 0.893007 0.468386
v -0.884366 0.910571 0.489566
v -0.836459 0.910571 0.532596
v 0.852261 0.893007 0.468386
v 0.820156 0.893007 0.500491
v 0.836459 0.910571 0.532596
v 0.884366 0.910571 0.489566
v 0.820156 0.893007 -0.500491
v 0.852261 0.893007 -0.468386
v 0.884366 0.910571 -0.489566
v 0.836459 0.910571 -0.532596
vn 0.0291 -0.9644 0.2629
vn -0.0727 -0.9836 0.1650
vn 0.0727 -0.9836 0.1650
vn -0.2526 -0.9643 0.0793
vn -0.1751 -0.9820 -0.0711
vn -0.1751 -0.9820 0.0711
vn 0.3827 -0.0000 0.9239
vn -0.3827 -0.0000 0.9239
vn -0.0291 -0.9644 -0.2629
vn 0.0727 -0.9836 -0.1650
vn -0.0727 -0.9836 -0.1650
vn 0.9239 -0.0000 -0.3827
vn 0.9239 -0.0000 0.3827
vn -0.9239 -0.0000 0.3827
vn -0.9239 -0.0000 -0.3827
vn -0.3827 -0.0000 -0.9239
vn 0.3827 -0.0000 -0.9239
vn -0.1519 0.9861 -0.0673
vn 0.2459 0.9681 -0.0474
vn -0.1519 0.9861 0.0673
vn 0.1519 0.9861 0.0673
vn -0.2459 0.9681 0.0474
vn 0.1519 0.9861 -0.0673
vn 0.0671 0.9859 0.1531
vn 0.0522 0.9681 -0.2453
vn -0.0522 0.9681 -0.2453
vn -0.0671 0.9859 -0.1531
vn -0.0522 0.9681 0.2453
vn 0.0522 0.9681 0.2453
vn -0.1461 0.9869 0.0683
vn -0.2479 0.9685 -0.0222
vn -0.2479 0.9685 0.0222
vn -0.0652 0.9846 -0.1622
vn 0.0779 0.9677 -0.2398
vn -0.0779 0.9677 -0.2398
vn 0.1461 0.9869 -0.0683
vn 0.2479 0.9685 0.0222
vn 0.2479 0.9685 -0.0222
vn -0.2336 0.9438 -0.2336
vn 0.2336 0.9438 0.2336
vn 0.2336 0.9438 -0.2336
vn 0.0779 0.9677 0.2398
vn -0.0652 0.9846 0.1622
vn -0.0779 0.9677 0.2398
vn 0.2336 -0.9438 -0.2336
vn -0.2336 -0.9438 0.2336
vn -0.2336 -0.9438 -0.2336
vn 0.2526 -0.9643 -0.0793
vn 0.1751 -0.9820 0.0711
vn 0.1751 -0.9820 -0.0711
vn 0.4213 -0.8940 -0.1525
vn 0.1447 -0.8966 -0.4186
vn 0.1615 -0.8658 -0.4737
vn 0.4737 -0.8658 -0.1615
vn 0.4213 -0.8940 0.1525
vn 0.1447 -0.8966 0.4186
vn 0.4737 -0.8658 0.1615
vn 0.1615 -0.8658 0.4737
vn 0.2336 -0.9438 0.2336
vn -0.4213 -0.8940 -0.1525
vn -0.1447 -0.8966 -0.4186
vn -0.4737 -0.8658 -0.1615
vn -0.1615 -0.8658 -0.4737
vn -0.4213 -0.8940 0.1525
vn -0.1615 -0.8658 0.4737
vn -0.4737 -0.8658 0.1615
vn -0.1540 -0.9361 0.3162
vn -0.3406 -0.9245 0.1712
vn 0.2526 -0.9643 0.0793
vn 0.1540 -0.9361 0.3162
vn -0.2526 -0.9643 -0.0793
vn -0.1540 -0.9361 -0.3162
vn 0.1540 -0.9361 -0.3162
vn 0.3406 -0.9245 -0.1712
vn 0.1475 0.9014 0.4070
vn 0.4065 0.9018 0.1468
vn 0.1475 0.9014 -0.4070
vn 0.4065 0.9018 -0.1468
vn -0.1475 0.9014 -0.4070
vn -0.4065 0.9018 -0.1468
vn -0.1475 0.9014 0.4070
vn -0.4065 0.9018 0.1468
vn -0.2946 0.9428 -0.1562
vn -0.2459 0.9681 -0.0474
vn -0.2946 0.9428 0.1562
vn 0.2946 0.9428 0.1562
vn 0.2459 0.9681 0.0474
vn 0.2946 0.9428 -0.1562
vn -0.1615 0.8658 0.4737
vn -0.2336 0.9438 0.2336
vn -0.4737 0.8658 0.1615
vn -0.1615 0.8658 -0.4737
vn -0.4737 0.8658 -0.1615
vn 0.4737 0.8658 -0.1615
vn 0.1615 0.8658 -0.4737
vn 0.4737 0.8658 0.1615
vn 0.1615 0.8658 0.4737
vn 0.3075 0.9401 0.1471
vn 0.3075 0.9401 -0.1471
vn -0.3075 0.9401 -0.1471
vn -0.3075 0.9401 0.1471
vn 0.1470 0.9002 0.4099
vn 0.1461 0.9869 0.0683
vn 0.4036 0.9044 0.1383
vn 0.1470 0.9002 -0.4099
vn 0.0652 0.9846 -0.1622
vn -0.1470 0.9002 -0.4099
vn -0.1461 0.9869 -0.0683
vn -0.4036 0.9044 -0.1383
vn -0.1470 0.9002 0.4099
vn -0.3406 -0.9245 -0.1712
vn -0.0291 -0.9644 0.2629
vn 0.3406 -0.9245 0.1712
vn 0.0291 -0.9644 -0.2629
vn 0.1580 0.9417 0.2971
vn -0.1580 0.9417 0.2971
vn -0.1580 0.9417 -0.2971
vn 0.1580 0.9417 -0.2971
vn 0.0671 0.9859 -0.1531
vn -0.0671 0.9859 0.1531
vn 0.1671 0.9273 -0.3350
vn -0.1671 0.9273 0.3350
vn 0.0652 0.9846 0.1622
vn -0.1447 -0.8966 0.4186
vn 0.1671 0.9273 0.3350
vn -0.1671 0.9273 -0.3350
vn 0.4036 0.9044 -0.1383
vn -0.4036 0.9044 0.1383
vt 0.952099 0.628989
vt 0.360740 0.222911
vt 0.950310 0.621181
vt 0.364674 0.215955
vt 0.210355 0.640074
vt 0.962448 0.621243
vt 0.960660 0.628662
vt 0.217355 0.636924
vt 0.962400 0.786778
vt 0.360739 0.382101
vt 0.330751 0.662052
vt 0.377844 0.636924
vt 0.957913 0.781529
vt 0.360740 0.375211
vt 0.966475 0.781203
vt 0.370898 0.636924
vt 0.993947 0.540700
vt 0.217355 0.407229
vt 0.210355 0.404079
vt 0.995735 0.548119
vt 0.418811 0.215580
vt 0.983596 0.548181
vt 0.985386 0.540373
vt 0.661741 0.821626
vt 0.422738 0.222524
vt 0.999761 0.388154
vt 0.370898 0.407229
vt 0.991199 0.387828
vt 0.661741 0.668958
vt 0.995686 0.382579
vt 0.377844 0.407229
vt 0.330751 0.890437
vt 0.661741 0.662052
vt 0.968743 0.540373
vt 0.031026 0.222911
vt 0.977304 0.540700
vt 0.595438 0.407229
vt 0.588438 0.404079
vt 0.979091 0.548119
vt 0.027092 0.215955
vt 0.966953 0.548181
vt 0.748981 0.407229
vt 0.983118 0.388154
vt 0.031026 0.375210
vt 0.974556 0.387828
vt 0.000239 0.662052
vt 0.979043 0.382579
vt 0.755927 0.407229
vt 0.031026 0.382100
vt 0.944017 0.628662
vt 0.595438 0.636924
vt 0.331229 0.821626
vt 0.935456 0.628988
vt 0.751880 0.222525
vt 0.933666 0.621180
vt 0.755807 0.215581
vt 0.588438 0.640074
vt 0.945804 0.621242
vt 0.945757 0.786778
vt 0.331229 0.662052
vt 0.000239 0.890437
vt 0.755927 0.636924
vt 0.941270 0.781529
vt 0.331229 0.668958
vt 0.949831 0.781203
vt 0.748981 0.636924
vt 0.569576 0.655051
vt 0.947530 0.597359
vt 0.771361 0.203224
vt 0.935104 0.601287
vt 0.938141 0.588364
vt 0.782613 0.196280
vt 0.562576 0.661573
vt 0.946695 0.587884
vt 0.403257 0.203224
vt 0.985034 0.568075
vt 0.191493 0.389102
vt 0.997461 0.572003
vt 0.184492 0.382579
vt 0.996625 0.581479
vt 0.392005 0.196280
vt 0.988071 0.580999
vt 0.569576 0.389102
vt 0.980817 0.572003
vt 0.562575 0.382579
vt 0.979982 0.581478
vt 0.000239 0.196621
vt 0.971428 0.580999
vt 0.011511 0.203578
vt 0.968391 0.568075
vt 0.191493 0.655051
vt 0.964174 0.597360
vt 0.380255 0.203577
vt 0.951747 0.601288
vt 0.954784 0.588364
vt 0.391527 0.196621
vt 0.184493 0.661573
vt 0.963338 0.587885
vt 0.526638 0.399540
vt 0.978051 0.617830
vt 0.012302 0.158942
vt 0.969502 0.617276
vt 0.008856 0.165720
vt 0.968194 0.609640
vt 0.533342 0.396056
vt 0.980287 0.610378
vt 0.526790 0.644784
vt 0.944765 0.551533
vt 0.533498 0.648260
vt 0.947001 0.558985
vt 0.767888 0.165325
vt 0.934907 0.559724
vt 0.936215 0.552087
vt 0.764443 0.158561
vt 0.404047 0.158666
vt 0.986145 0.617276
vt 0.400607 0.165433
vt 0.984837 0.609640
vt 0.155259 0.396056
vt 0.996930 0.610379
vt 0.148555 0.399540
vt 0.994694 0.617830
vt 0.148707 0.644784
vt 0.961408 0.551534
vt 0.155415 0.648260
vt 0.963644 0.558986
vt 0.376775 0.165613
vt 0.951550 0.559724
vt 0.952859 0.552088
vt 0.373325 0.158836
vt 0.537902 0.391405
vt 0.980299 0.610167
vt 0.008584 0.172147
vt 0.968213 0.609213
vt 0.970441 0.598597
vt 0.000239 0.179037
vt 0.544847 0.382579
vt 0.978996 0.599077
vt 0.537902 0.652747
vt 0.947012 0.559196
vt 0.544848 0.661573
vt 0.945708 0.570286
vt 0.782613 0.178726
vt 0.937154 0.570766
vt 0.934926 0.560151
vt 0.774280 0.171846
vt 0.984856 0.609213
vt 0.400336 0.171849
vt 0.987085 0.598597
vt 0.392005 0.178726
vt 0.166764 0.382579
vt 0.995639 0.599077
vt 0.159819 0.391405
vt 0.996942 0.610167
vt 0.159819 0.652747
vt 0.963655 0.559197
vt 0.166765 0.661573
vt 0.962352 0.570287
vt 0.391527 0.179036
vt 0.953798 0.570766
vt 0.951569 0.560151
vt 0.383179 0.172145
vt 0.344659 0.007016
vt 0.951367 0.388177
vt 0.955410 0.382579
vt 0.756405 0.692130
vt 0.000345 0.608085
vt 0.344658 0.000239
vt 0.959927 0.387803
vt 0.007051 0.608081
vt 0.984655 0.781181
vt 0.432571 0.007092
vt 0.006945 0.436418
vt 0.993213 0.781555
vt 0.988697 0.786778
vt 0.933188 0.692130
vt 0.000239 0.436422
vt 0.432569 0.000327
vt 0.943283 0.387803
vt 0.385134 0.608081
vt 0.735827 0.007004
vt 0.934724 0.388177
vt 0.933188 0.382579
vt 0.938767 0.382579
vt 0.735825 0.000239
vt 0.378428 0.608085
vt 0.385028 0.436418
vt 0.976571 0.781555
vt 0.972055 0.786778
vt 0.756405 0.382579
vt 0.040874 0.000327
vt 0.378322 0.436422
vt 0.968012 0.781180
vt 0.040876 0.007104
vt 0.513830 0.410954
vt 0.980876 0.637341
vt 0.968358 0.632837
vt 0.018430 0.145861
vt 0.969096 0.623553
vt 0.012298 0.152640
vt 0.520529 0.399544
vt 0.977645 0.624106
vt 0.513968 0.633386
vt 0.947589 0.532021
vt 0.520681 0.644788
vt 0.944358 0.545257
vt 0.764439 0.152270
vt 0.935809 0.545810
vt 0.758314 0.145507
vt 0.935071 0.536526
vt 0.985002 0.632837
vt 0.410165 0.145608
vt 0.985739 0.623553
vt 0.404043 0.152376
vt 0.142446 0.399544
vt 0.994288 0.624107
vt 0.135747 0.410954
vt 0.997519 0.637341
vt 0.135885 0.633386
vt 0.964233 0.532022
vt 0.142598 0.644788
vt 0.961002 0.545257
vt 0.373321 0.152534
vt 0.952452 0.545811
vt 0.367186 0.145759
vt 0.951715 0.536526
vt 0.972760 0.672591
vt 0.040907 0.113787
vt 0.037889 0.120565
vt 0.970967 0.665248
vt 0.497291 0.432468
vt 0.983118 0.665193
vt 0.981319 0.672966
vt 0.490588 0.436353
vt 0.939473 0.496770
vt 0.735858 0.113501
vt 0.948032 0.496396
vt 0.490694 0.608016
vt 0.949831 0.504169
vt 0.497403 0.611893
vt 0.738874 0.120266
vt 0.937680 0.504114
vt 0.997962 0.672966
vt 0.112505 0.436353
vt 0.989403 0.672591
vt 0.432602 0.113590
vt 0.429590 0.120356
vt 0.987610 0.665248
vt 0.119208 0.432468
vt 0.999761 0.665193
vt 0.956116 0.496770
vt 0.344691 0.113698
vt 0.964675 0.496396
vt 0.112611 0.608016
vt 0.966475 0.504169
vt 0.119320 0.611893
vt 0.347712 0.120475
vt 0.954324 0.504114
s 1
f 33/75/1 24/56/2 10/21/3
f 29/67/4 17/38/5 25/57/6
f 11/24/7 27/64/8 13/29/7
f 40/89/9 2/4/10 18/40/11
f 4/8/12 12/27/13 7/16/12
f 118/254/14 81/173/15 113/244/15
f 39/87/16 75/159/17 43/96/17
f 36/81/7 67/143/8 31/72/8
f 49/107/12 92/201/13 45/99/13
f 44/97/12 71/151/13 35/79/13
f 46/101/7 103/223/8 60/130/8
f 55/119/18 73/155/19 58/125/20
f 57/123/14 99/215/15 56/121/15
f 48/105/21 65/139/22 50/109/23
f 105/228/7 77/163/8 117/252/8
f 47/103/24 76/162/25 62/133/26
f 53/115/16 95/207/17 52/114/17
f 54/117/27 68/146/28 69/148/29
f 119/256/30 100/217/31 101/219/32
f 115/247/33 96/209/34 97/212/35
f 114/246/16 84/181/17 109/236/17
f 111/240/36 89/195/37 93/203/38
f 82/176/39 87/190/40 85/183/41
f 110/238/12 86/187/13 108/234/13
f 32/73/14 64/137/15 38/85/15
f 90/198/42 120/257/43 104/225/44
f 5/11/45 26/61/46 21/46/47
f 41/91/48 9/19/49 3/5/50
f 22/51/14 19/42/15 28/66/14
f 2/3/10 4/7/51 1/1/52
f 5/9/45 6/13/53 7/15/54
f 8/17/55 10/22/3 11/23/56
f 12/26/57 13/28/58 14/30/59
f 16/36/60 18/41/11 15/34/61
f 19/43/62 20/45/63 21/47/47
f 22/50/64 24/55/2 25/58/6
f 26/59/46 27/63/65 28/65/66
f 29/68/4 31/71/67 32/74/68
f 34/78/69 36/82/70 33/76/1
f 37/84/71 39/88/72 40/90/9
f 41/92/48 43/95/73 44/98/74
f 46/102/75 48/106/21 45/100/76
f 50/110/23 52/113/77 49/108/78
f 53/116/79 55/120/18 56/122/80
f 58/126/20 60/129/81 57/124/82
f 62/134/26 64/138/83 61/132/84
f 66/142/85 68/145/28 65/140/22
f 69/147/29 71/152/86 72/154/87
f 74/158/88 76/161/25 73/156/19
f 77/164/89 78/165/90 79/169/91
f 80/171/92 81/174/93 82/175/39
f 83/179/94 84/182/95 85/184/41
f 86/188/96 87/189/40 88/193/97
f 90/197/42 92/202/98 89/196/37
f 94/206/99 96/210/34 93/204/38
f 97/211/35 99/216/100 100/218/31
f 102/222/101 104/226/44 101/220/32
f 105/227/102 107/232/103 108/233/104
f 109/235/105 111/239/36 112/242/106
f 114/245/107 116/250/108 113/243/109
f 117/251/110 119/255/30 120/258/43
f 26/62/46 19/42/62 21/48/47
f 21/49/47 6/14/53 5/10/45
f 4/7/12 6/13/17 1/1/17
f 27/63/8 22/50/14 28/65/14
f 13/28/7 8/17/13 11/23/7
f 20/45/16 16/36/15 15/34/16
f 24/56/2 11/25/56 10/21/3
f 9/19/49 4/8/51 3/5/50
f 14/33/59 27/64/65 26/60/46
f 17/38/5 22/51/64 25/57/6
f 2/4/10 15/35/61 18/40/11
f 5/12/45 12/27/57 14/31/59
f 37/83/71 32/73/68 38/85/111
f 33/75/1 31/72/67 30/69/112
f 34/77/69 44/97/74 35/79/113
f 40/89/9 43/96/73 42/93/114
f 66/141/85 61/131/84 64/137/83
f 70/150/115 68/146/28 67/143/116
f 74/157/88 72/153/87 71/151/86
f 63/136/117 76/162/25 75/159/118
f 75/160/17 44/98/12 43/95/17
f 36/82/7 71/152/13 70/149/7
f 67/144/8 32/74/14 31/71/8
f 39/88/16 64/138/15 63/135/16
f 50/109/23 45/99/76 48/105/21
f 54/117/27 52/114/77 51/111/119
f 58/125/20 56/121/80 55/119/18
f 47/103/24 60/130/81 59/127/120
f 51/112/119 65/140/22 68/145/28
f 47/104/24 61/132/84 48/106/21
f 72/154/87 54/118/27 69/147/29
f 59/128/120 73/156/19 76/161/25
f 92/201/98 93/203/38 89/195/37
f 95/207/121 97/212/35 96/209/34
f 99/215/100 101/219/32 100/217/31
f 103/223/122 90/198/42 104/225/44
f 103/224/8 57/124/14 60/129/8
f 53/116/16 99/216/15 98/213/16
f 95/208/17 49/108/12 52/113/17
f 46/102/7 92/202/13 91/199/7
f 81/174/15 114/245/16 113/243/15
f 118/253/14 77/164/8 79/169/14
f 105/227/7 86/188/13 88/193/7
f 84/182/17 110/237/12 109/235/17
f 79/170/91 82/177/39 81/173/93
f 88/194/97 78/168/90 77/163/89
f 80/172/92 85/185/41 84/181/95
f 83/180/94 87/192/40 86/187/96
f 111/240/36 108/234/104 107/231/103
f 115/247/33 109/236/105 112/241/106
f 119/256/30 113/244/109 116/249/108
f 106/229/123 117/252/110 120/257/43
f 89/196/37 106/230/123 90/197/42
f 101/220/32 120/258/43 119/255/30
f 100/218/31 115/248/33 97/211/35
f 93/204/38 112/242/106 111/239/36
f 9/20/49 33/76/1 10/22/3
f 30/70/112 25/58/6 24/55/2
f 17/39/5 40/90/9 18/41/11
f 42/94/114 3/6/50 2/3/10
f 15/35/16 6/14/17 20/44/16
f 33/75/1 30/69/112 24/56/2
f 29/67/4 37/83/71 17/38/5
f 11/24/7 23/52/8 27/64/8
f 40/89/9 42/93/114 2/4/10
f 4/8/12 8/18/13 12/27/13
f 118/254/14 79/170/14 81/173/15
f 39/87/16 63/136/16 75/159/17
f 36/81/7 70/150/7 67/143/8
f 49/107/12 94/205/12 92/201/13
f 44/97/12 74/157/12 71/151/13
f 46/101/7 91/200/7 103/223/8
f 55/119/18 72/153/87 73/155/19
f 57/123/14 102/221/14 99/215/15
f 48/105/21 61/131/84 65/139/22
f 105/228/7 88/194/7 77/163/8
f 47/103/24 59/127/120 76/162/25
f 53/115/16 98/214/16 95/207/17
f 54/117/27 51/111/119 68/146/28
f 119/256/30 116/249/108 100/217/31
f 115/247/33 112/241/106 96/209/34
f 114/246/16 80/172/16 84/181/17
f 111/240/36 107/231/103 89/195/37
f 82/176/39 78/166/90 87/190/40
f 110/238/12 83/180/12 86/187/13
f 32/73/14 66/141/14 64/137/15
f 90/198/42 106/229/123 120/257/43
f 5/11/45 14/32/59 26/61/46
f 41/91/48 34/77/69 9/19/49
f 22/51/14 16/37/15 19/42/15
f 2/3/10 3/6/50 4/7/51
f 8/17/55 9/20/49 10/22/3
f 16/36/60 17/39/5 18/41/11
f 22/50/64 23/53/124 24/55/2
f 29/68/4 30/70/112 31/71/67
f 34/78/69 35/80/113 36/82/70
f 37/84/71 38/86/111 39/88/72
f 41/92/48 42/94/114 43/95/73
f 46/102/75 47/104/24 48/106/21
f 50/110/23 51/112/119 52/113/77
f 53/116/79 54/118/27 55/120/18
f 58/126/20 59/128/120 60/129/81
f 62/134/26 63/135/117 64/138/83
f 66/142/85 67/144/116 68/145/28
f 69/147/29 70/149/115 71/152/86
f 74/158/88 75/160/118 76/161/25
f 90/197/42 91/199/125 92/202/98
f 94/206/99 95/208/121 96/210/34
f 97/211/35 98/213/126 99/216/100
f 102/222/101 103/224/122 104/226/44
f 105/227/102 106/230/123 107/232/103
f 109/235/105 110/237/127 111/239/36
f 114/245/107 115/248/33 116/250/108
f 117/251/110 118/253/128 119/255/30
f 26/62/46 28/66/66 19/42/62
f 21/49/47 20/44/63 6/14/53
f 4/7/12 7/15/12 6/13/17
f 27/63/8 23/53/8 22/50/14
f 13/28/7 12/26/13 8/17/13
f 20/45/16 19/43/15 16/36/15
f 24/56/2 23/54/124 11/25/56
f 9/19/49 8/18/55 4/8/51
f 14/33/59 13/29/58 27/64/65
f 17/38/5 16/37/60 22/51/64
f 2/4/10 1/2/52 15/35/61
f 5/12/45 7/16/54 12/27/57
f 37/83/71 29/67/4 32/73/68
f 33/75/1 36/81/70 31/72/67
f 34/77/69 41/91/48 44/97/74
f 40/89/9 39/87/72 43/96/73
f 66/141/85 65/139/22 61/131/84
f 70/150/115 69/148/29 68/146/28
f 74/157/88 73/155/19 72/153/87
f 63/136/117 62/133/26 76/162/25
f 75/160/17 74/158/12 44/98/12
f 36/82/7 35/80/13 71/152/13
f 67/144/8 66/142/14 32/74/14
f 39/88/16 38/86/15 64/138/15
f 50/109/23 49/107/78 45/99/76
f 54/117/27 53/115/79 52/114/77
f 58/125/20 57/123/82 56/121/80
f 47/103/24 46/101/75 60/130/81
f 51/112/119 50/110/23 65/140/22
f 47/104/24 62/134/26 61/132/84
f 72/154/87 55/120/18 54/118/27
f 59/128/120 58/126/20 73/156/19
f 92/201/98 94/205/99 93/203/38
f 95/207/121 98/214/126 97/212/35
f 99/215/100 102/221/101 101/219/32
f 103/223/122 91/200/125 90/198/42
f 103/224/8 102/222/14 57/124/14
f 53/116/16 56/122/15 99/216/15
f 95/208/17 94/206/12 49/108/12
f 46/102/7 45/100/13 92/202/13
f 81/174/15 80/171/16 114/245/16
f 118/253/14 117/251/8 77/164/8
f 105/227/7 108/233/13 86/188/13
f 84/182/17 83/179/12 110/237/12
f 79/170/91 78/167/90 82/177/39
f 88/194/97 87/191/40 78/168/90
f 80/172/92 82/178/39 85/185/41
f 83/180/94 85/186/41 87/192/40
f 111/240/36 110/238/127 108/234/104
f 115/247/33 114/246/107 109/236/105
f 119/256/30 118/254/128 113/244/109
f 106/229/123 105/228/102 117/252/110
f 89/196/37 107/232/103 106/230/123
f 101/220/32 104/226/44 120/258/43
f 100/218/31 116/250/108 115/248/33
f 93/204/38 96/210/34 112/242/106
f 9/20/49 34/78/69 33/76/1
f 30/70/112 29/68/4 25/58/6
f 17/39/5 37/84/71 40/90/9
f 42/94/114 41/92/48 3/6/50
f 15/35/16 1/2/17 6/14/17
