# Blender 3.1.0
# www.blender.org
o Cube
v 0.875691 0.829767 -0.637212
v 0.896590 0.848113 -0.669285
v 0.939881 0.847952 -0.621705
v 0.907796 0.829766 -0.605107
v 0.875691 0.003215 -0.605107
v 0.875691 0.020779 -0.637212
v 0.907796 0.020779 -0.605107
v 0.907796 0.829766 0.605107
v 0.939881 0.847952 0.621705
v 0.896590 0.848113 0.669285
v 0.875691 0.829767 0.637212
v 0.907796 0.020779 0.605107
v 0.875691 0.020779 0.637212
v 0.875691 0.003215 0.605107
v -0.875691 0.829767 -0.637212
v -0.907796 0.829766 -0.605107
v -0.939881 0.847952 -0.621705
v -0.896590 0.848113 -0.669285
v -0.907796 0.020779 -0.605107
v -0.875691 0.020779 -0.637212
v -0.875691 0.003215 -0.605107
v -0.907796 0.829766 0.605107
v -0.875691 0.829767 0.637212
v -0.896590 0.848113 0.669285
v -0.939881 0.847952 0.621705
v -0.875691 0.003215 0.605107
v -0.875691 0.020779 0.637212
v -0.907796 0.020779 0.605107
v -1.039244 0.849877 0.700615
v -0.979351 0.849716 0.735011
v -1.039224 0.868063 0.767084
v -1.071329 0.868063 0.734979
v 0.979351 0.849716 0.735011
v 1.039244 0.849877 0.700615
v 1.071329 0.868063 0.734979
v 1.039224 0.868063 0.767084
v -1.039244 0.849877 -0.700615
v -1.071329 0.868063 -0.734979
v -1.039224 0.868063 -0.767084
v -0.979351 0.849716 -0.735011
v 1.039244 0.849877 -0.700615
v 0.979351 0.849716 -0.735011
v 1.039224 0.868063 -0.767084
v 1.071329 0.868063 -0.734979
v -1.006796 0.961469 -0.669151
v -0.974691 0.961469 -0.701256
v -0.993310 0.979033 -0.733361
v -1.038900 0.979033 -0.688144
v -1.006796 0.961469 0.669151
v -1.038900 0.979033 0.688144
v -0.993310 0.979033 0.733361
v -0.974691 0.961469 0.701256
v 0.974691 0.961469 0.701256
v 0.993310 0.979033 0.733361
v 1.038900 0.979033 0.688144
v 1.006796 0.961469 0.669151
v 1.006796 0.961469 -0.669151
v 1.038900 0.979033 -0.688144
v 0.993310 0.979033 -0.733361
v 0.974691 0.961469 -0.701256
v -1.039224 0.979033 -0.688474
v -0.994896 0.979033 -0.734979
v -1.039224 0.961469 -0.767084
v -1.071329 0.961469 -0.734979
v -1.039224 0.979033 0.688474
v -1.071329 0.961469 0.734979
v -1.039224 0.961469 0.767084
v -0.994896 0.979033 0.734979
v 0.994896 0.979033 0.734979
v 1.039224 0.961469 0.767084
v 1.071329 0.961469 0.734979
v 1.039224 0.979033 0.688474
v 1.039224 0.979033 -0.688474
v 1.071329 0.961469 -0.734979
v 1.039224 0.961469 -0.767084
v 0.994896 0.979033 -0.734979
v 0.820156 0.316963 -0.500491
v 0.820156 0.299399 -0.468386
v 0.852261 0.316963 -0.468386
v 0.820156 0.316963 0.500491
v 0.852261 0.316963 0.468386
v 0.820156 0.299399 0.468386
v -0.852261 0.316963 0.468386
v -0.820156 0.316963 0.500491
v -0.820156 0.299399 0.468386
v -0.852261 0.316963 -0.468386
v -0.820156 0.299399 -0.468386
v -0.820156 0.316963 -0.500491
v -0.974691 0.910571 -0.606912
v -0.941570 0.910571 -0.669151
v -0.974691 0.928135 -0.701256
v -1.006796 0.928135 -0.669151
v -0.974691 0.910571 0.606912
v -1.006796 0.928135 0.669151
v -0.974691 0.928135 0.701256
v -0.941570 0.910571 0.669151
v 0.941570 0.910571 0.669151
v 0.974691 0.928135 0.701256
v 1.006796 0.928135 0.669151
v 0.974691 0.910571 0.606912
v 0.974691 0.910571 -0.606912
v 1.006796 0.928135 -0.669151
v 0.974691 0.928135 -0.701256
v 0.941570 0.910571 -0.669151
v -0.820156 0.893007 -0.500491
v -0.836459 0.910571 -0.532596
v -0.884366 0.910571 -0.489566
v -0.852261 0.893007 -0.468386
v -0.820156 0.893007 0.500491
v -0.852261 0.893007 0.468386
v -0.884366 0.910571 0.489566
v -0.836459 0.910571 0.532596
v 0.852261 0.893007 0.468386
v 0.820156 0.893007 0.500491
v 0.836459 0.910571 0.532596
v 0.884366 0.910571 0.489566
v 0.820156 0.893007 -0.500491
v 0.852261 0.893007 -0.468386
v 0.884366 0.910571 -0.489566
v 0.836459 0.910571 -0.532596
vn 0.0531 -0.4995 0.4045
vn -0.1163 -0.5232 0.2681
vn 0.1163 -0.5232 0.2681
vn -0.3896 -0.4982 0.1379
vn -0.2816 -0.5213 -0.1134
vn -0.2816 -0.5213 0.1134
vn 0.3246 -0.2458 0.8324
vn -0.3416 -0.1869 0.8756
vn 0.3416 -0.1869 0.8756
vn -0.0531 -0.4995 -0.4045
vn 0.1163 -0.5232 -0.2681
vn -0.1163 -0.5232 -0.2681
vn 0.8326 -0.2438 -0.3288
vn 0.8756 -0.1869 0.3416
vn 0.8756 -0.1869 -0.3416
vn -0.8267 0.2526 0.3214
vn -0.8756 0.1869 -0.3416
vn -0.8267 0.2526 -0.3214
vn -0.3619 -0.2317 -0.8304
vn 0.3680 0.2368 -0.8229
vn 0.3619 -0.2317 -0.8304
vn 0.3619 -0.2317 0.8304
vn -0.3680 0.2368 0.8229
vn -0.3619 -0.2317 0.8304
vn 0.8271 0.2500 -0.3271
vn 0.8285 0.2352 0.3589
vn 0.8271 0.2500 0.3271
vn 0.8358 -0.2229 -0.3681
vn 0.8223 0.2378 0.3674
vn 0.8358 -0.2229 0.3681
vn 0.3275 0.2497 0.8273
vn -0.3665 0.2250 0.8346
vn -0.3275 0.2497 0.8273
vn -0.2458 0.5270 -0.1081
vn 0.3816 0.5036 -0.0844
vn -0.2458 0.5270 0.1081
vn -0.8271 0.2500 0.3271
vn -0.8285 0.2352 -0.3589
vn -0.8271 0.2500 -0.3271
vn 0.2458 0.5270 0.1081
vn -0.3816 0.5036 0.0844
vn 0.2458 0.5270 -0.1081
vn 0.3260 0.2492 0.8284
vn -0.3416 0.1869 0.8756
vn -0.3260 0.2492 0.8284
vn 0.1076 0.5268 0.2476
vn 0.0925 0.5034 -0.3806
vn -0.0925 0.5034 -0.3806
vn -0.3275 0.2497 -0.8273
vn 0.3665 0.2250 -0.8346
vn 0.3275 0.2497 -0.8273
vn -0.1077 0.5268 -0.2476
vn -0.0925 0.5034 0.3806
vn 0.0925 0.5034 0.3806
vn -0.2374 0.5280 0.1102
vn -0.3841 0.5046 -0.0407
vn -0.3841 0.5046 0.0407
vn -0.1041 0.5251 -0.2606
vn 0.1354 0.5025 -0.3716
vn -0.1354 0.5025 -0.3716
vn -0.3260 0.2492 -0.8284
vn 0.3416 0.1869 -0.8756
vn 0.3260 0.2492 -0.8284
vn 0.2374 0.5280 -0.1102
vn 0.3841 0.5046 0.0407
vn 0.3841 0.5046 -0.0407
vn -0.3416 0.4790 -0.3416
vn 0.3416 0.4790 0.3416
vn 0.3416 0.4790 -0.3416
vn 0.8267 0.2526 -0.3214
vn 0.8756 0.1869 0.3416
vn 0.8267 0.2526 0.3214
vn -0.8358 -0.2229 0.3681
vn -0.8223 0.2378 -0.3674
vn -0.8358 -0.2229 -0.3681
vn 0.1354 0.5025 0.3716
vn -0.1041 0.5251 0.2606
vn -0.1354 0.5025 0.3716
vn 0.3416 -0.4790 -0.3416
vn -0.3416 -0.4790 0.3416
vn -0.3416 -0.4790 -0.3416
vn 0.3896 -0.4982 -0.1379
vn 0.2816 -0.5213 0.1134
vn 0.2816 -0.5213 -0.1134
vn -0.8326 -0.2438 0.3288
vn -0.8756 -0.1869 -0.3416
vn -0.8756 -0.1869 0.3416
vn 0.3246 -0.2458 -0.8324
vn 0.3416 -0.1869 -0.8756
vn 0.8326 -0.2438 0.3288
vn 0.3416 -0.4790 0.3416
vn -0.8326 -0.2438 -0.3288
vn -0.3246 -0.2458 -0.8324
vn -0.3416 -0.1869 -0.8756
vn 0.3896 -0.4982 0.1379
vn -0.3896 -0.4982 -0.1379
vn -0.3816 0.5036 -0.0844
vn -0.8223 0.2378 0.3674
vn 0.3816 0.5036 0.0844
vn 0.8223 0.2378 -0.3674
vn -0.3416 0.4790 0.3416
vn -0.8756 0.1869 0.3416
vn -0.3416 0.1869 -0.8756
vn 0.8756 0.1869 -0.3416
vn 0.3416 0.1869 0.8756
vn 0.8285 0.2352 -0.3589
vn -0.8285 0.2352 0.3589
vn 0.2374 0.5280 0.1102
vn 0.1041 0.5251 -0.2606
vn -0.2374 0.5280 -0.1102
vn -0.0531 -0.4995 0.4045
vn 0.0531 -0.4995 -0.4045
vn 0.3680 0.2368 0.8229
vn -0.3680 0.2368 -0.8229
vn 0.1076 0.5268 -0.2476
vn -0.1076 0.5268 0.2476
vn -0.3665 0.2250 -0.8346
vn 0.3665 0.2250 0.8346
vn 0.1041 0.5251 0.2606
vn -0.3246 -0.2458 0.8324
vt 0.619798 0.495579
vt 0.700076 0.621548
vt 0.698574 0.584888
vt 0.619798 0.506298
vt 0.370579 0.506298
vt 0.370579 0.500000
vt 0.380202 0.495579
vt 0.375000 0.506298
vt 0.380202 0.506298
vt 0.619798 0.750000
vt 0.619798 0.743702
vt 0.625000 0.750000
vt 0.698574 0.616062
vt 0.700076 0.558988
vt 0.625000 0.751543
vt 0.625000 0.754421
vt 0.619798 0.754421
vt 0.380202 0.750000
vt 0.380202 0.743702
vt 0.375000 0.754421
vt 0.380202 0.754421
vt 0.370579 0.750000
vt 0.375000 0.754421
vt 0.370579 0.743702
vt 0.619798 0.254421
vt 0.619798 0.243702
vt 0.502376 0.377689
vt 0.488185 0.437150
vt 0.125000 0.506298
vt 0.380202 0.243702
vt 0.380202 0.250000
vt 0.129421 0.500000
vt 0.380202 0.254421
vt 0.375000 0.243702
vt 0.129421 0.506298
vt 0.619798 0.006298
vt 0.619798 0.000000
vt 0.619798 0.995579
vt 0.488185 0.005793
vt 0.625000 0.000000
vt 0.625000 0.998457
vt 0.625000 0.003042
vt 0.502376 0.019459
vt 0.129421 0.743702
vt 0.380202 0.995579
vt 0.380202 0.000000
vt 0.129421 0.750000
vt 0.380202 0.006298
vt 0.125000 0.743702
vt 0.122624 0.024515
vt 0.176589 0.001627
vt 0.014984 0.000000
vt 0.000000 0.020927
vt 0.885151 0.183591
vt 0.926426 0.169767
vt 1.000000 0.020927
vt 0.985016 0.000000
vt 0.122624 0.828337
vt 0.000000 0.979073
vt 0.014984 1.000000
vt 0.176589 0.815324
vt 0.926426 0.879282
vt 0.885151 0.875978
vt 0.985016 1.000000
vt 1.000000 0.979074
vt 0.030118 0.936166
vt 0.045102 0.957093
vt 0.036412 0.978019
vt 0.015135 0.948546
vt 0.030118 0.063834
vt 0.015135 0.051454
vt 0.036412 0.021981
vt 0.045102 0.042907
vt 0.954898 0.042907
vt 0.963588 0.021981
vt 0.984865 0.051454
vt 0.969882 0.063834
vt 0.969882 0.936166
vt 0.984866 0.948546
vt 0.963588 0.978019
vt 0.954898 0.957093
vt 0.014984 0.948761
vt 0.035672 0.979074
vt 0.014984 1.000000
vt 0.000000 0.979073
vt 0.014984 0.051239
vt 0.000000 0.020927
vt 0.014984 0.000000
vt 0.035672 0.020927
vt 0.964328 0.020927
vt 0.985016 0.000000
vt 1.000000 0.020927
vt 0.985016 0.051239
vt 0.985016 0.948761
vt 1.000000 0.979073
vt 0.985016 1.000000
vt 0.964328 0.979074
vt 0.847474 0.802083
vt 0.847474 0.782705
vt 0.861076 0.782705
vt 0.847474 0.197917
vt 0.861075 0.217295
vt 0.847474 0.217295
vt 0.138924 0.217295
vt 0.152526 0.197917
vt 0.152526 0.217295
vt 0.138924 0.782705
vt 0.152526 0.782705
vt 0.152526 0.802083
vt 0.052723 0.890742
vt 0.066226 0.932305
vt 0.045102 0.957093
vt 0.030118 0.936166
vt 0.052723 0.109258
vt 0.030118 0.063834
vt 0.045102 0.042907
vt 0.066226 0.067695
vt 0.933774 0.067695
vt 0.954898 0.042907
vt 0.969882 0.063834
vt 0.947277 0.109258
vt 0.947277 0.890742
vt 0.969882 0.936166
vt 0.954898 0.957093
vt 0.933774 0.932305
vt 0.152526 0.802083
vt 0.139724 0.826871
vt 0.116320 0.800688
vt 0.138924 0.782705
vt 0.152526 0.197917
vt 0.138924 0.217295
vt 0.116320 0.199312
vt 0.139724 0.173129
vt 0.861075 0.217295
vt 0.847474 0.197917
vt 0.860276 0.173129
vt 0.883680 0.199312
vt 0.847474 0.802083
vt 0.861076 0.782705
vt 0.883680 0.800688
vt 0.860276 0.826871
s 1
f 33/54/1 24/39/2 10/14/3
f 29/50/4 17/27/5 25/43/6
f 11/17/7 27/45/8 13/21/9
f 40/61/10 2/2/11 18/28/12
f 4/4/13 12/19/14 7/9/15
f 118/139/16 81/102/17 113/134/18
f 39/60/19 75/96/20 43/64/21
f 36/57/22 67/88/23 31/52/24
f 49/70/25 92/113/26 45/66/27
f 44/65/28 71/92/29 35/56/30
f 46/67/31 103/124/32 60/81/33
f 55/76/34 73/94/35 58/79/36
f 57/78/37 99/120/38 56/77/39
f 48/69/40 65/86/41 50/71/42
f 105/126/43 77/98/44 117/138/45
f 47/68/46 76/97/47 62/83/48
f 53/74/49 95/116/50 52/73/51
f 54/75/52 68/89/53 69/90/54
f 119/140/55 100/121/56 101/122/57
f 115/136/58 96/117/59 97/118/60
f 114/135/61 84/105/62 109/130/63
f 111/132/64 89/110/65 93/114/66
f 82/103/67 87/108/68 85/106/69
f 110/131/70 86/107/71 108/129/72
f 32/53/73 64/85/74 38/59/75
f 90/111/76 120/141/77 104/125/78
f 5/5/79 26/44/80 21/35/81
f 41/62/82 9/13/83 3/3/84
f 22/36/85 19/30/86 28/48/87
f 2/2/11 4/4/13 1/1/88
f 5/5/79 6/6/89 7/8/15
f 8/10/90 10/15/3 11/16/7
f 12/18/14 13/20/9 14/23/91
f 16/26/92 18/28/12 15/25/93
f 19/30/86 20/31/94 21/34/81
f 22/36/85 24/40/2 25/42/6
f 26/44/80 27/47/8 28/49/87
f 29/50/4 31/52/24 32/53/73
f 34/55/95 36/57/22 33/54/1
f 37/58/96 39/60/19 40/61/10
f 41/62/82 43/64/21 44/65/28
f 46/67/31 48/69/40 45/66/27
f 50/71/42 52/73/51 49/70/25
f 53/74/49 55/76/34 56/77/39
f 58/79/36 60/81/33 57/78/37
f 62/83/48 64/85/74 61/82/97
f 66/87/98 68/89/53 65/86/41
f 69/90/54 71/92/29 72/93/99
f 74/95/100 76/97/47 73/94/35
f 77/98/44 78/99/101 79/100/102
f 80/101/103 81/102/17 82/103/67
f 83/104/104 84/105/62 85/106/69
f 86/107/71 87/108/68 88/109/105
f 90/111/76 92/113/26 89/110/65
f 94/115/106 96/117/59 93/114/66
f 97/118/60 99/120/38 100/121/56
f 102/123/107 104/125/78 101/122/57
f 105/126/43 107/128/108 108/129/72
f 109/130/63 111/132/64 112/133/109
f 114/135/61 116/137/110 113/134/18
f 117/138/45 119/140/55 120/141/77
f 26/44/80 19/29/86 21/35/81
f 21/35/81 6/6/89 5/5/79
f 7/9/15 1/1/88 4/4/13
f 27/46/8 22/36/85 28/48/87
f 11/17/7 12/19/14 8/11/90
f 15/25/93 19/30/86 16/26/92
f 24/41/2 11/17/7 10/15/3
f 9/13/83 4/4/13 3/3/84
f 14/24/91 27/47/8 26/44/80
f 17/27/5 22/36/85 25/43/6
f 2/2/11 15/25/93 18/28/12
f 5/5/79 12/19/14 14/24/91
f 37/58/96 32/53/73 38/59/75
f 33/54/1 31/52/24 30/51/111
f 34/55/95 44/65/28 35/56/30
f 40/61/10 43/64/21 42/63/112
f 66/87/98 61/82/97 64/85/74
f 70/91/113 68/89/53 67/88/23
f 74/95/100 72/93/99 71/92/29
f 63/84/114 76/97/47 75/96/20
f 75/96/20 44/65/28 43/64/21
f 36/57/22 71/92/29 70/91/113
f 67/88/23 32/53/73 31/52/24
f 39/60/19 64/85/74 63/84/114
f 50/71/42 45/66/27 48/69/40
f 51/72/115 53/74/49 52/73/51
f 58/79/36 56/77/39 55/76/34
f 59/80/116 46/67/31 60/81/33
f 51/72/115 65/86/41 68/89/53
f 47/68/46 61/82/97 48/69/40
f 72/93/99 54/75/52 69/90/54
f 59/80/116 73/94/35 76/97/47
f 94/115/106 89/110/65 92/113/26
f 98/119/117 96/117/59 95/116/50
f 102/123/107 100/121/56 99/120/38
f 91/112/118 104/125/78 103/124/32
f 103/124/32 57/78/37 60/81/33
f 53/74/49 99/120/38 98/119/117
f 95/116/50 49/70/25 52/73/51
f 46/67/31 92/113/26 91/112/118
f 81/102/17 114/135/61 113/134/18
f 118/139/16 77/98/44 79/100/102
f 105/126/43 86/107/71 88/109/105
f 84/105/62 110/131/70 109/130/63
f 79/100/102 82/103/67 81/102/17
f 88/109/105 78/99/101 77/98/44
f 80/101/103 85/106/69 84/105/62
f 83/104/104 87/108/68 86/107/71
f 111/132/64 108/129/72 107/128/108
f 115/136/58 109/130/63 112/133/109
f 119/140/55 113/134/18 116/137/110
f 106/127/119 117/138/45 120/141/77
f 89/110/65 106/127/119 90/111/76
f 101/122/57 120/141/77 119/140/55
f 100/121/56 115/136/58 97/118/60
f 93/114/66 112/133/109 111/132/64
f 9/13/83 33/54/1 10/14/3
f 30/51/111 25/43/6 24/39/2
f 17/27/5 40/61/10 18/28/12
f 42/63/112 3/3/84 2/2/11
f 15/25/93 6/7/89 20/33/94
f 33/54/1 30/51/111 24/39/2
f 29/50/4 37/58/96 17/27/5
f 11/17/7 23/38/120 27/45/8
f 40/61/10 42/63/112 2/2/11
f 4/4/13 8/11/90 12/19/14
f 118/139/16 79/100/102 81/102/17
f 39/60/19 63/84/114 75/96/20
f 36/57/22 70/91/113 67/88/23
f 49/70/25 94/115/106 92/113/26
f 44/65/28 74/95/100 71/92/29
f 46/67/31 91/112/118 103/124/32
f 55/76/34 72/93/99 73/94/35
f 57/78/37 102/123/107 99/120/38
f 48/69/40 61/82/97 65/86/41
f 105/126/43 88/109/105 77/98/44
f 47/68/46 59/80/116 76/97/47
f 53/74/49 98/119/117 95/116/50
f 54/75/52 51/72/115 68/89/53
f 119/140/55 116/137/110 100/121/56
f 115/136/58 112/133/109 96/117/59
f 114/135/61 80/101/103 84/105/62
f 111/132/64 107/128/108 89/110/65
f 82/103/67 78/99/101 87/108/68
f 110/131/70 83/104/104 86/107/71
f 32/53/73 66/87/98 64/85/74
f 90/111/76 106/127/119 120/141/77
f 5/5/79 14/24/91 26/44/80
f 41/62/82 34/55/95 9/13/83
f 22/36/85 16/26/92 19/30/86
f 2/2/11 3/3/84 4/4/13
f 8/10/90 9/12/83 10/15/3
f 16/26/92 17/27/5 18/28/12
f 22/36/85 23/37/120 24/40/2
f 29/50/4 30/51/111 31/52/24
f 34/55/95 35/56/30 36/57/22
f 37/58/96 38/59/75 39/60/19
f 41/62/82 42/63/112 43/64/21
f 46/67/31 47/68/46 48/69/40
f 50/71/42 51/72/115 52/73/51
f 53/74/49 54/75/52 55/76/34
f 58/79/36 59/80/116 60/81/33
f 62/83/48 63/84/114 64/85/74
f 66/87/98 67/88/23 68/89/53
f 69/90/54 70/91/113 71/92/29
f 74/95/100 75/96/20 76/97/47
f 90/111/76 91/112/118 92/113/26
f 94/115/106 95/116/50 96/117/59
f 97/118/60 98/119/117 99/120/38
f 102/123/107 103/124/32 104/125/78
f 105/126/43 106/127/119 107/128/108
f 109/130/63 110/131/70 111/132/64
f 114/135/61 115/136/58 116/137/110
f 117/138/45 118/139/16 119/140/55
f 26/44/80 28/49/87 19/29/86
f 21/35/81 20/32/94 6/6/89
f 7/9/15 6/7/89 1/1/88
f 27/46/8 23/37/120 22/36/85
f 11/17/7 13/21/9 12/19/14
f 15/25/93 20/33/94 19/30/86
f 24/41/2 23/38/120 11/17/7
f 9/13/83 8/11/90 4/4/13
f 14/24/91 13/22/9 27/47/8
f 17/27/5 16/26/92 22/36/85
f 2/2/11 1/1/88 15/25/93
f 5/5/79 7/9/15 12/19/14
f 37/58/96 29/50/4 32/53/73
f 33/54/1 36/57/22 31/52/24
f 34/55/95 41/62/82 44/65/28
f 40/61/10 39/60/19 43/64/21
f 66/87/98 65/86/41 61/82/97
f 70/91/113 69/90/54 68/89/53
f 74/95/100 73/94/35 72/93/99
f 63/84/114 62/83/48 76/97/47
f 75/96/20 74/95/100 44/65/28
f 36/57/22 35/56/30 71/92/29
f 67/88/23 66/87/98 32/53/73
f 39/60/19 38/59/75 64/85/74
f 50/71/42 49/70/25 45/66/27
f 51/72/115 54/75/52 53/74/49
f 58/79/36 57/78/37 56/77/39
f 59/80/116 47/68/46 46/67/31
f 51/72/115 50/71/42 65/86/41
f 47/68/46 62/83/48 61/82/97
f 72/93/99 55/76/34 54/75/52
f 59/80/116 58/79/36 73/94/35
f 94/115/106 93/114/66 89/110/65
f 98/119/117 97/118/60 96/117/59
f 102/123/107 101/122/57 100/121/56
f 91/112/118 90/111/76 104/125/78
f 103/124/32 102/123/107 57/78/37
f 53/74/49 56/77/39 99/120/38
f 95/116/50 94/115/106 49/70/25
f 46/67/31 45/66/27 92/113/26
f 81/102/17 80/101/103 114/135/61
f 118/139/16 117/138/45 77/98/44
f 105/126/43 108/129/72 86/107/71
f 84/105/62 83/104/104 110/131/70
f 79/100/102 78/99/101 82/103/67
f 88/109/105 87/108/68 78/99/101
f 80/101/103 82/103/67 85/106/69
f 83/104/104 85/106/69 87/108/68
f 111/132/64 110/131/70 108/129/72
f 115/136/58 114/135/61 109/130/63
f 119/140/55 118/139/16 113/134/18
f 106/127/119 105/126/43 117/138/45
f 89/110/65 107/128/108 106/127/119
f 101/122/57 104/125/78 120/141/77
f 100/121/56 116/137/110 115/136/58
f 93/114/66 96/117/59 112/133/109
f 9/13/83 34/55/95 33/54/1
f 30/51/111 29/50/4 25/43/6
f 17/27/5 37/58/96 40/61/10
f 42/63/112 41/62/82 3/3/84
f 15/25/93 1/1/88 6/7/89
