# Blender v3.0.1 OBJ File: 'Trashbag.blend'
# www.blender.org
o Quad_Sphere
v -0.584589 0.299804 0.179396
v -0.534271 0.529970 0.100113
v -0.632135 0.446760 -0.106443
v -0.633111 0.248575 -0.146488
v -0.410444 0.255569 0.327569
v -0.188429 0.136846 0.367458
v -0.066114 0.270765 0.393099
v -0.487445 0.118179 0.109674
v -0.373192 0.126662 0.303412
v -0.322872 0.072411 0.088660
v -0.539964 0.371072 0.231070
v -0.301357 0.458087 0.268575
v -0.069176 0.417156 0.268901
v -0.191897 0.077016 -0.603546
v 0.025294 0.557900 0.405913
v -0.338638 0.557283 0.236624
v -0.448841 0.685095 0.049176
v -0.313013 0.737280 0.192958
v -0.337078 0.834462 0.042943
v -0.374436 0.782695 -0.137063
v -0.207657 0.824475 -0.241087
v 0.002289 0.674229 0.362276
v -0.097696 0.832047 0.267809
v -0.129112 0.893506 -0.098057
v 0.049361 0.878313 -0.006678
v -0.511509 0.183700 -0.466613
v -0.320365 0.140340 -0.651091
v -0.387787 0.412015 -0.568572
v -0.204034 0.347679 -0.697693
v -0.085209 0.138225 -0.718502
v -0.610503 0.437287 -0.230268
v -0.404698 0.554480 -0.434201
v -0.239809 0.598509 -0.530726
v 0.059766 0.591131 -0.557251
v 0.285288 0.206492 0.381461
v 0.201688 0.353680 0.421438
v 0.457616 0.183513 0.254708
v 0.335427 0.310708 0.364941
v 0.044268 0.085154 0.224216
v 0.087204 0.446688 0.234707
v 0.361548 0.073808 0.185147
v 0.266261 0.018030 -0.042626
v 0.451826 0.505063 0.018781
v 0.526254 0.102355 0.045276
v 0.566414 0.312254 0.011968
v 0.551962 0.171778 -0.115630
v 0.526929 0.379891 -0.214945
v 0.176188 0.707534 0.205887
v 0.079241 0.552204 0.290627
v 0.274547 0.522104 0.136293
v 0.103223 0.782586 0.283886
v 0.211644 0.757148 -0.092766
v 0.319011 0.620522 -0.030604
v 0.365184 0.101509 -0.521966
v 0.292088 0.427187 -0.552147
v 0.203278 0.190877 -0.662775
v 0.085329 0.405685 -0.684839
v 0.468446 0.067009 -0.319940
v 0.408686 0.215155 -0.530052
v 0.128832 0.761251 -0.249582
v 0.393408 0.553984 -0.318681
v -0.031458 0.447254 0.446829
v -0.031105 0.452447 0.452941
v -0.028475 0.457801 0.458995
v -0.023478 0.461329 0.465524
v -0.015598 0.462180 0.472468
v -0.004659 0.461923 0.478740
v 0.008824 0.461885 0.483121
v 0.023999 0.461701 0.484990
v 0.039838 0.460597 0.484327
v 0.055178 0.458447 0.481870
v 0.069080 0.456248 0.478872
v 0.081014 0.455387 0.475706
v 0.090595 0.456256 0.472055
v 0.097517 0.458543 0.467643
v 0.101645 0.461699 0.462319
v 0.103361 0.464612 0.456079
v 0.103641 0.466294 0.448986
v 0.103433 0.466403 0.441275
v 0.102441 0.465303 0.433472
v 0.099332 0.463834 0.426221
v 0.093264 0.462717 0.419988
v 0.084326 0.462240 0.415020
v 0.073113 0.462242 0.411417
v 0.060304 0.462217 0.409183
v 0.046433 0.461577 0.408278
v 0.031944 0.459911 0.408728
v 0.017482 0.457052 0.410727
v 0.003928 0.453210 0.414438
v -0.007910 0.449003 0.419735
v -0.017521 0.445312 0.426209
v -0.024686 0.443254 0.433266
v -0.029342 0.443860 0.440273
v 0.025578 0.581815 0.384871
vt 0.658205 0.679408
vt 0.550542 0.596910
vt 0.519025 0.676203
vt 0.615608 0.749595
vt 0.781105 0.162068
vt 0.724382 0.072228
vt 0.779774 0.083989
vt 0.728455 0.217624
vt 0.696699 0.760626
vt 0.412259 0.445968
vt 0.372773 0.424906
vt 0.364892 0.483877
vt 0.312168 0.482329
vt 0.666743 0.220786
vt 0.642455 0.124302
vt 0.671827 0.021222
vt 0.700468 0.000272
vt 0.642570 0.577870
vt 0.633070 0.509625
vt 0.599568 0.111626
vt 0.524584 0.127885
vt 0.605117 0.028450
vt 0.641702 0.447128
vt 0.563061 0.455104
vt 0.560710 0.258684
vt 0.491241 0.221397
vt 0.049843 0.854831
vt 0.015774 0.930399
vt 0.049843 0.970255
vt 0.518170 0.304463
vt 0.473525 0.302958
vt 0.406049 0.237815
vt 0.442997 0.238131
vt 0.498409 0.591542
vt 0.356022 0.576624
vt 0.381212 0.679097
vt 0.859175 0.246445
vt 0.975936 0.180974
vt 0.890521 0.125910
vt 0.473525 0.395327
vt 0.422524 0.527556
vt 0.204306 0.818521
vt 0.364779 0.747276
vt 0.330340 0.820183
vt 0.785690 0.104850
vt 0.867799 0.046952
vt 0.808176 0.036427
vt 0.241827 0.744541
vt 0.766193 0.363581
vt 0.441676 0.761170
vt 0.448113 0.850697
vt 0.371622 0.948548
vt 0.356022 0.889299
vt 0.267212 0.423921
vt 0.236794 0.335371
vt 0.190949 0.383679
vt 0.697243 0.733529
vt 0.801132 0.682023
vt 0.713702 0.802627
vt 0.865542 0.731827
vt 0.880180 0.620899
vt 0.212373 0.246078
vt 0.162815 0.332634
vt 0.191375 0.440486
vt 0.463526 0.938662
vt 0.492415 0.999728
vt 0.081999 0.890305
vt 0.142616 0.908547
vt 0.142616 0.854831
vt 0.598983 0.794151
vt 0.681195 0.761170
vt 0.670138 0.837645
vt 0.163870 0.573800
vt 0.133722 0.645223
vt 0.009573 0.633396
vt 0.492415 0.792815
vt 0.539144 0.783458
vt 0.598439 0.761170
vt 0.569056 0.885508
vt 0.688708 0.761170
vt 0.688708 0.908109
vt 0.681739 0.835110
vt 0.081455 0.854831
vt 0.081455 0.960251
vt 0.050387 0.922733
vt 0.257762 0.205027
vt 0.979409 0.516964
vt 0.901293 0.472336
vt 0.784397 0.603704
vt 0.798786 0.507881
vt 0.860349 0.447128
vt 0.232873 0.602775
vt 0.178778 0.716846
vt 0.364779 0.620357
vt 0.845180 0.333047
vt 0.781649 0.231249
vt 0.390157 0.198609
vt 0.720987 0.641764
vt 0.685017 0.653694
vt 0.696699 0.498754
vt 0.127246 0.809517
vt 0.023810 0.717258
vt 0.063289 0.804985
vt 0.966949 0.000272
vt 0.980657 0.081843
vt 0.701697 0.332868
vt 0.723851 0.387854
vt 0.781105 0.435418
vt 0.160062 0.392018
vt 0.610374 0.264830
vt 0.551979 0.332893
vt 0.638831 0.869489
vt 0.492959 0.850932
vt 0.598439 0.920484
vt 0.931735 0.387235
vt 0.980657 0.371618
vt 0.946867 0.301268
vt 0.965391 0.628203
vt 0.252073 0.488983
vt 0.979409 0.755655
vt 0.353986 0.522886
vt 0.681195 0.921603
vt 0.091290 0.168622
vt 0.091290 0.088780
vt 0.106866 0.167088
vt 0.121844 0.162544
vt 0.135648 0.155166
vt 0.147747 0.145237
vt 0.157676 0.133138
vt 0.165054 0.119334
vt 0.169598 0.104356
vt 0.171132 0.088780
vt 0.169598 0.073203
vt 0.165054 0.058225
vt 0.157676 0.044422
vt 0.147747 0.032323
vt 0.135648 0.022393
vt 0.121844 0.015015
vt 0.106866 0.010472
vt 0.091290 0.008937
vt 0.075713 0.010472
vt 0.060736 0.015015
vt 0.046932 0.022393
vt 0.034833 0.032323
vt 0.024904 0.044422
vt 0.017525 0.058225
vt 0.012982 0.073203
vt 0.011448 0.088780
vt 0.012982 0.104356
vt 0.017525 0.119334
vt 0.024904 0.133138
vt 0.034833 0.145237
vt 0.046932 0.155166
vt 0.060736 0.162544
vt 0.242051 0.010472
vt 0.191241 0.044422
vt 0.324014 0.044422
vt 0.075713 0.167088
vt 0.242051 0.167088
vt 0.257628 0.168622
vt 0.273204 0.167088
vt 0.288182 0.162544
vt 0.301986 0.155166
vt 0.227073 0.162544
vt 0.314085 0.145237
vt 0.213270 0.155166
vt 0.324014 0.133138
vt 0.201171 0.145237
vt 0.331392 0.119334
vt 0.191241 0.133138
vt 0.335936 0.104356
vt 0.183863 0.119334
vt 0.337470 0.088780
vt 0.179320 0.104356
vt 0.335936 0.073203
vt 0.177786 0.088780
vt 0.331392 0.058225
vt 0.179320 0.073203
vt 0.183863 0.058225
vt 0.314085 0.032323
vt 0.257628 0.008937
vt 0.301986 0.022393
vt 0.273204 0.010472
vt 0.288182 0.015015
vt 0.227073 0.015015
vt 0.201171 0.032323
vt 0.213270 0.022393
vn -0.8865 -0.1534 0.4365
vn -0.9505 0.3104 0.0125
vn -0.9171 -0.3919 -0.0725
vn -0.5681 -0.8034 0.1785
vn -0.1101 -0.6135 0.7820
vn -0.4383 0.0076 0.8988
vn -0.3748 -0.7016 0.6060
vn -0.1018 0.1934 0.9758
vn -0.1628 -0.9825 0.0902
vn -0.0134 0.2406 0.9705
vn -0.2176 0.2401 0.9460
vn -0.6658 0.2610 0.6989
vn -0.7803 0.4585 0.4254
vn -0.7776 0.5805 0.2415
vn -0.4384 0.2730 0.8563
vn -0.5545 0.4772 0.6817
vn -0.5415 0.8216 0.1783
vn -0.6111 0.7550 -0.2379
vn 0.0276 0.2724 0.9618
vn -0.1703 0.7551 0.6330
vn 0.0736 -0.2515 0.9650
vn 0.5522 0.5467 0.6294
vn -0.7622 -0.4752 -0.4395
vn -0.1461 -0.9418 -0.3026
vn -0.5086 -0.5007 -0.7004
vn -0.8906 0.3055 -0.3369
vn -0.6269 0.3155 -0.7123
vn 0.2188 0.3470 -0.9120
vn 0.0092 -0.4893 -0.8720
vn -0.2509 0.2594 -0.9326
vn -0.6307 0.5737 -0.5225
vn -0.2777 0.6632 -0.6950
vn -0.2033 0.8646 -0.4595
vn 0.2693 -0.4653 0.8432
vn 0.7096 0.6385 0.2981
vn 0.5636 0.5421 0.6232
vn 0.1126 0.4063 0.9067
vn 0.5853 0.2964 0.7547
vn 0.0167 -0.9341 0.3566
vn 0.0833 -0.9952 0.0513
vn 0.2447 -0.8821 0.4025
vn 0.7348 -0.2735 0.6207
vn 0.9582 0.2051 0.1993
vn 0.9216 0.3012 -0.2446
vn 0.6333 -0.7241 -0.2731
vn 0.7468 -0.6326 0.2051
vn 0.2144 0.3816 0.8991
vn 0.6806 -0.3976 0.6153
vn 0.8072 0.3284 0.4905
vn 0.6378 0.7691 -0.0414
vn 0.3366 0.9416 -0.0030
vn 0.4272 0.5910 0.6843
vn 0.4588 -0.7155 -0.5268
vn 0.5903 0.4308 -0.6825
vn 0.7700 0.0031 -0.6381
vn 0.9638 -0.2308 -0.1331
vn 0.3648 0.8372 -0.4073
vn -0.0561 0.9812 -0.1843
vn 0.1957 0.6991 -0.6877
vn 0.3844 -0.2359 -0.8925
vn 0.7089 0.6055 -0.3616
vn 0.9317 -0.3016 0.2025
vn 0.9098 -0.4140 -0.0291
vn 0.7866 -0.5311 -0.3150
vn 0.5618 -0.6058 -0.5633
vn 0.3758 -0.6282 -0.6813
vn 0.2371 -0.6353 -0.7350
vn 0.0864 -0.6385 -0.7647
vn -0.0765 -0.6378 -0.7664
vn -0.2082 -0.6349 -0.7440
vn -0.2575 -0.6347 -0.7286
vn -0.2408 -0.6337 -0.7351
vn -0.2253 -0.6317 -0.7417
vn -0.2537 -0.6369 -0.7280
vn -0.3572 -0.6553 -0.6655
vn -0.5762 -0.6683 -0.4705
vn -0.7674 -0.6165 -0.1764
vn -0.8322 -0.5543 0.0146
vn -0.8539 -0.4892 0.1776
vn -0.8261 -0.3663 0.4284
vn -0.6877 -0.1837 0.7024
vn -0.4850 -0.0178 0.8743
vn -0.3047 0.0894 0.9483
vn -0.1701 0.1486 0.9741
vn -0.0723 0.1785 0.9813
vn 0.0083 0.1925 0.9813
vn 0.0961 0.1960 0.9759
vn 0.2103 0.1853 0.9599
vn 0.3583 0.1515 0.9212
vn 0.5336 0.0863 0.8413
vn 0.7026 -0.0064 0.7116
vn -0.3265 0.9410 0.0884
vn 0.8241 -0.1045 0.5567
vn 0.8976 -0.1995 0.3930
vn -0.5632 0.6455 -0.5159
vn -0.2793 0.7763 -0.5651
vn 0.0239 0.8718 -0.4894
vn -0.6041 0.6523 -0.4578
vn 0.2031 0.9172 -0.3429
vn 0.1484 0.9643 -0.2193
vn 0.0445 0.9907 -0.1283
vn 0.0200 0.9977 -0.0642
vn -0.2964 0.9499 -0.0989
vn 0.0689 0.9975 -0.0162
vn 0.1427 0.9894 0.0251
vn -0.1141 0.9935 0.0029
vn 0.1691 0.9836 0.0629
vn 0.0964 0.9909 0.0938
vn -0.0172 0.9960 0.0875
vn 0.0857 0.8949 0.4379
vn 0.0054 0.8843 0.4669
vn -0.2281 0.9048 0.3596
vn -0.3448 0.9163 0.2037
vn -0.4111 0.9113 0.0238
vn -0.0908 0.9877 -0.1276
vn 0.0420 0.9756 -0.2157
vn 0.0572 0.9788 -0.1968
vn -0.0352 0.9933 0.1102
vn -0.0492 0.9976 0.0483
vn -0.1996 0.9789 -0.0438
vn -0.3983 0.9004 -0.1752
vn -0.5018 0.8191 -0.2778
vn -0.5816 0.7188 -0.3810
s 1
f 1/1/1 3/2/2 4/3/3
f 1/1/1 4/3/3 8/4/4
f 6/5/5 5/6/6 9/7/7
f 6/5/5 7/8/8 5/6/6
f 1/1/1 8/4/4 9/9/7
f 8/10/4 10/11/9 9/12/7
f 9/12/7 10/11/9 6/13/5
f 13/14/10 12/15/11 7/8/8
f 5/6/6 11/16/12 1/17/1
f 3/2/2 2/18/13 17/19/14
f 16/20/15 18/21/16 2/22/13
f 17/19/14 19/23/17 20/24/18
f 22/25/19 16/20/15 12/15/11
f 16/20/15 23/26/20 18/21/16
f 13/27/10 15/28/21 22/29/19
f 22/25/19 51/30/22 23/26/20
f 20/24/18 3/2/2 17/19/14
f 8/10/4 26/31/23 14/32/24
f 27/33/25 14/32/24 26/31/23
f 31/34/26 28/35/27 26/36/23
f 57/37/28 30/38/29 29/39/30
f 26/31/23 8/10/4 4/40/3
f 32/41/31 31/34/26 20/24/18
f 20/42/18 33/43/32 32/44/31
f 33/45/32 28/46/27 32/47/31
f 21/48/33 33/43/32 20/42/18
f 35/49/34 7/8/8 6/5/5
f 43/50/35 50/51/36 36/52/37
f 36/52/37 38/53/38 43/50/35
f 39/54/39 42/55/40 41/56/41
f 37/57/42 45/58/43 38/59/38
f 43/60/35 45/58/43 47/61/44
f 58/62/45 44/63/46 42/55/40
f 6/13/5 39/54/39 35/64/34
f 36/52/37 40/65/47 13/66/10
f 13/67/10 49/68/48 15/69/21
f 50/70/36 48/71/49 49/72/48
f 52/73/50 25/74/51 51/75/22
f 43/50/35 53/76/52 50/51/36
f 53/77/52 52/78/50 48/79/49
f 43/80/35 52/81/50 53/82/52
f 48/83/49 15/84/21 49/85/48
f 10/11/9 14/32/24 42/55/40
f 42/55/40 14/32/24 54/86/53
f 54/86/53 58/62/45 42/55/40
f 55/87/54 47/61/44 59/88/55
f 59/88/55 46/89/56 58/90/45
f 54/91/53 59/88/55 58/90/45
f 59/88/55 47/61/44 46/89/56
f 60/92/57 24/93/58 25/74/51
f 52/73/50 60/92/57 25/74/51
f 34/94/59 24/93/58 60/92/57
f 55/95/54 57/37/28 34/96/59
f 14/32/24 30/97/29 54/86/53
f 57/37/28 29/39/30 34/96/59
f 46/89/56 44/98/46 58/90/45
f 12/15/11 16/20/15 11/16/12
f 13/14/10 22/25/19 12/15/11
f 36/52/37 50/51/36 40/65/47
f 11/99/12 2/18/13 1/1/1
f 2/18/13 3/2/2 1/1/1
f 5/6/6 7/8/8 12/15/11
f 5/6/6 1/17/1 9/7/7
f 5/6/6 12/15/11 11/16/12
f 6/13/5 10/11/9 39/54/39
f 16/20/15 2/22/13 11/16/12
f 18/100/16 19/23/17 17/19/14
f 19/101/17 24/93/58 21/48/33
f 19/101/17 21/48/33 20/42/18
f 16/20/15 22/25/19 23/26/20
f 24/93/58 19/101/17 23/102/20
f 18/103/16 23/102/20 19/101/17
f 2/18/13 18/100/16 17/19/14
f 4/3/3 31/34/26 26/36/23
f 4/3/3 3/2/2 31/34/26
f 8/10/4 14/32/24 10/11/9
f 26/104/23 28/46/27 27/105/25
f 29/39/30 30/38/29 27/105/25
f 14/32/24 27/33/25 30/97/29
f 28/46/27 29/39/30 27/105/25
f 3/2/2 20/24/18 31/34/26
f 24/93/58 34/94/59 21/48/33
f 21/48/33 34/94/59 33/43/32
f 33/45/32 34/96/59 29/39/30
f 36/106/37 13/14/10 7/8/8
f 35/49/34 38/107/38 36/106/37
f 35/49/34 36/106/37 7/8/8
f 37/108/42 38/107/38 35/49/34
f 41/56/41 37/109/42 35/64/34
f 44/63/46 37/109/42 41/56/41
f 39/54/39 41/56/41 35/64/34
f 10/11/9 42/55/40 39/54/39
f 44/98/46 45/58/43 37/57/42
f 44/98/46 46/89/56 45/58/43
f 47/61/44 45/58/43 46/89/56
f 38/59/38 45/58/43 43/60/35
f 42/55/40 44/63/46 41/56/41
f 15/110/21 48/111/49 22/25/19
f 50/70/36 49/72/48 40/112/47
f 22/25/19 48/111/49 51/30/22
f 51/75/22 25/74/51 23/102/20
f 50/113/36 53/77/52 48/79/49
f 48/79/49 52/78/50 51/114/22
f 59/115/55 54/116/53 56/117/60
f 55/95/54 59/115/55 56/117/60
f 47/61/44 55/87/54 61/118/61
f 30/38/29 56/117/60 54/116/53
f 57/37/28 55/95/54 56/117/60
f 30/38/29 57/37/28 56/117/60
f 61/119/61 60/92/57 52/73/50
f 34/94/59 60/92/57 61/119/61
f 43/60/35 61/118/61 52/120/50
f 55/121/54 34/94/59 61/119/61
f 25/74/51 24/93/58 23/102/20
f 31/34/26 32/41/31 28/35/27
f 28/46/27 33/45/32 29/39/30
f 40/112/47 49/72/48 13/122/10
f 61/118/61 43/60/35 47/61/44
s off
f 62/123/62 94/124/62 63/125/62
f 63/125/63 94/124/63 64/126/63
f 64/126/64 94/124/64 65/127/64
f 65/127/65 94/124/65 66/128/65
f 66/128/66 94/124/66 67/129/66
f 67/129/67 94/124/67 68/130/67
f 68/130/68 94/124/68 69/131/68
f 69/131/69 94/124/69 70/132/69
f 70/132/70 94/124/70 71/133/70
f 71/133/71 94/124/71 72/134/71
f 72/134/72 94/124/72 73/135/72
f 73/135/73 94/124/73 74/136/73
f 74/136/74 94/124/74 75/137/74
f 75/137/75 94/124/75 76/138/75
f 76/138/76 94/124/76 77/139/76
f 77/139/77 94/124/77 78/140/77
f 78/140/78 94/124/78 79/141/78
f 79/141/79 94/124/79 80/142/79
f 80/142/80 94/124/80 81/143/80
f 81/143/81 94/124/81 82/144/81
f 82/144/82 94/124/82 83/145/82
f 83/145/83 94/124/83 84/146/83
f 84/146/84 94/124/84 85/147/84
f 85/147/85 94/124/85 86/148/85
f 86/148/86 94/124/86 87/149/86
f 87/149/87 94/124/87 88/150/87
f 88/150/88 94/124/88 89/151/88
f 89/151/89 94/124/89 90/152/89
f 90/152/90 94/124/90 91/153/90
f 91/153/91 94/124/91 92/154/91
f 79/155/92 83/156/92 73/157/92
f 92/154/93 94/124/93 93/158/93
f 93/158/94 94/124/94 62/123/94
f 93/159/95 62/160/95 63/161/95
f 63/161/96 64/162/96 93/159/96
f 64/162/97 65/163/97 92/164/97
f 93/159/98 64/162/98 92/164/98
f 65/163/99 66/165/99 91/166/99
f 66/165/100 67/167/100 90/168/100
f 67/167/101 68/169/101 89/170/101
f 68/169/102 69/171/102 88/172/102
f 89/170/103 68/169/103 88/172/103
f 69/171/104 70/173/104 87/174/104
f 70/173/105 71/175/105 86/176/105
f 87/174/106 70/173/106 86/176/106
f 71/175/107 72/177/107 85/178/107
f 72/177/108 73/157/108 84/179/108
f 85/178/109 72/177/109 84/179/109
f 73/157/110 74/180/110 78/181/110
f 74/180/111 75/182/111 77/183/111
f 75/182/112 76/184/112 77/183/112
f 77/183/113 78/181/113 74/180/113
f 78/181/114 79/155/114 73/157/114
f 79/155/115 80/185/115 82/186/115
f 80/185/116 81/187/116 82/186/116
f 82/186/117 83/156/117 79/155/117
f 83/156/118 84/179/118 73/157/118
f 85/178/119 86/176/119 71/175/119
f 87/174/120 88/172/120 69/171/120
f 89/170/121 90/168/121 67/167/121
f 90/168/122 91/166/122 66/165/122
f 91/166/123 92/164/123 65/163/123
