# Blender 3.1.1
# www.blender.org
o Plane.001
v -0.740710 0.000001 -4.009222
v -16.858423 0.000002 -11.296069
v -16.858423 0.000001 -4.009222
v -0.740710 -0.000001 3.974073
v -16.858423 -0.000001 3.974073
v -0.740710 -0.000002 11.347338
v -16.858423 -0.000002 11.347338
v 6.805470 0.000001 -4.009222
v 21.587326 -0.000002 13.989161
v 6.805470 0.000002 -13.987700
v -0.740710 0.000002 -11.296069
v 6.805470 -0.000001 3.974073
v 6.805470 -0.000002 13.989161
v 21.587326 0.000002 -13.987700
vn -0.0000 1.0000 -0.0000
vt 0.296909 0.413823
vt 0.413284 0.671231
vt 0.296909 0.671231
vt 0.169411 0.413823
vt 0.169411 0.671231
vt 0.051656 0.413823
vt 0.051656 0.671232
vt 0.296909 0.293306
vt 0.009465 0.057232
vt 0.456271 0.293306
vt 0.413284 0.413823
vt 0.169411 0.293306
vt 0.009465 0.293306
vt 0.456271 0.057232
s 1
f 1/1/1 2/2/1 3/3/1
f 4/4/1 3/3/1 5/5/1
f 6/6/1 5/5/1 7/7/1
f 4/4/1 8/8/1 1/1/1
f 9/9/1 10/10/1 8/8/1
f 1/1/1 11/11/1 2/2/1
f 4/4/1 1/1/1 3/3/1
f 6/6/1 4/4/1 5/5/1
f 4/4/1 12/12/1 8/8/1
f 12/12/1 13/13/1 9/9/1
f 9/9/1 14/14/1 10/10/1
f 8/8/1 12/12/1 9/9/1
