# Blender v3.0.1 OBJ File: 'tutorial level.blend'
# www.blender.org
o Plane
v -8.078379 0.000000 11.348996
v 8.078379 0.000000 11.348996
v -8.078379 0.000000 -11.348996
v 8.078379 0.000000 -11.348996
v 15.662080 0.000000 -4.039189
v 15.662080 0.000000 3.950427
v -8.078379 0.000000 3.950427
v 8.078379 0.000000 3.950427
v 8.078379 0.000000 -4.039189
v -8.078379 0.000000 -4.039189
v 15.662080 0.000000 -14.083025
v 15.662080 0.000000 13.994261
v 30.408169 0.000000 -14.083025
v 30.408169 0.000000 13.994261
v -8.078379 8.435981 11.348996
v 8.078379 8.435981 11.348996
v -8.078379 8.435981 -11.348996
v 8.078379 8.435981 -11.348996
v 15.662080 8.435981 -4.039189
v 15.662080 8.435981 3.950427
v -8.078379 8.435981 3.950427
v 8.078379 8.435981 3.950427
v 8.078379 8.435981 -4.039189
v -8.078379 8.435981 -4.039189
v 15.662080 8.435981 -14.083025
v 15.662080 8.435981 13.994261
v 30.408169 8.435981 -14.083025
v 30.408169 8.435981 13.994261
vt 0.277609 0.402319
vt 0.013699 0.521720
vt 0.013699 0.402319
vt 0.401483 0.402319
vt 0.403761 0.010824
vt 0.403761 0.532804
vt 0.277609 0.150963
vt 0.013699 0.271814
vt 0.013699 0.150963
vt 0.277609 0.271814
vt 0.677903 0.532804
vt 0.004923 0.718252
vt 0.158578 0.856383
vt 0.004923 0.856383
vt 0.999728 0.366698
vt 0.846073 0.183757
vt 0.999728 0.183757
vt 0.138065 0.717707
vt 0.283590 0.564052
vt 0.283590 0.717707
vt 0.418349 0.564052
vt 0.418349 0.717707
vt 0.999728 0.183213
vt 0.846073 0.000272
vt 0.999728 0.000272
vt 0.880946 0.836943
vt 0.727291 0.702184
vt 0.880946 0.702184
vt 0.572548 0.858335
vt 0.418893 0.564052
vt 0.572548 0.564052
vt 0.158578 0.989525
vt 0.004923 0.989525
vt 0.727291 0.991142
vt 0.995880 0.837487
vt 0.995880 0.991142
vt 0.726747 0.858335
vt 0.573092 0.564052
vt 0.726747 0.564052
vt 0.312777 0.986840
vt 0.159122 0.718252
vt 0.312777 0.718252
vt 0.004923 0.717707
vt 0.138065 0.564052
vt 0.727291 0.564052
vt 0.880946 0.564052
vt 0.845529 0.511678
vt 0.691874 0.000272
vt 0.845529 0.000272
vt 0.277609 0.521720
vt 0.401483 0.271814
vt 0.677903 0.010824
vt 0.158577 0.718252
vt 0.846073 0.366698
vt 0.846073 0.183213
vt 0.727291 0.836943
vt 0.418893 0.858335
vt 0.727291 0.837487
vt 0.573092 0.858335
vt 0.159122 0.986840
vt 0.004923 0.564052
vt 0.691874 0.511678
vn 0.0000 1.0000 0.0000
vn 0.0000 -1.0000 0.0000
vn 0.0000 0.0000 1.0000
vn 1.0000 0.0000 0.0000
vn -1.0000 0.0000 0.0000
vn 0.0000 0.0000 -1.0000
s off
f 9/1/1 3/2/1 10/3/1
f 5/4/2 12/5/2 11/6/2
f 2/7/1 7/8/1 1/9/1
f 8/10/1 5/4/1 9/1/1
f 8/10/1 10/3/1 7/8/1
f 12/5/1 13/11/1 11/6/1
f 5/12/3 23/13/3 9/14/3
f 6/15/4 26/16/4 12/17/4
f 10/18/4 21/19/4 7/20/4
f 7/20/4 15/21/4 1/22/4
f 11/23/4 19/24/4 5/25/4
f 2/26/5 22/27/5 8/28/5
f 1/29/6 16/30/6 2/31/6
f 9/14/5 18/32/5 4/33/5
f 12/34/6 28/35/6 14/36/6
f 4/37/3 17/38/3 3/39/3
f 13/40/3 25/41/3 11/42/3
f 3/43/4 24/44/4 10/18/4
f 8/28/6 20/45/6 6/46/6
f 14/47/5 27/48/5 13/49/5
f 9/1/1 4/50/1 3/2/1
f 5/4/3 6/51/3 12/5/3
f 2/7/1 8/10/1 7/8/1
f 8/10/1 6/51/1 5/4/1
f 8/10/1 9/1/1 10/3/1
f 12/5/1 14/52/1 13/11/1
f 5/12/3 19/53/3 23/13/3
f 6/15/4 20/54/4 26/16/4
f 10/18/4 24/44/4 21/19/4
f 7/20/4 21/19/4 15/21/4
f 11/23/4 25/55/4 19/24/4
f 2/26/5 16/56/5 22/27/5
f 1/29/6 15/57/6 16/30/6
f 9/14/5 23/13/5 18/32/5
f 12/34/6 26/58/6 28/35/6
f 4/37/3 18/59/3 17/38/3
f 13/40/3 27/60/3 25/41/3
f 3/43/4 17/61/4 24/44/4
f 8/28/6 22/27/6 20/45/6
f 14/47/5 28/62/5 27/48/5
