# Blender v3.0.1 OBJ File: 'tvbox.blend'
# www.blender.org
o Cube
v 0.211108 1.204765 -1.000000
v 0.211108 -0.007677 -1.000000
v 0.211108 1.204765 1.000000
v 0.211108 -0.007677 1.000000
v -0.211108 1.204765 -1.000000
v -0.211108 -0.007677 -1.000000
v -0.211108 1.204765 1.000000
v -0.211108 -0.007677 1.000000
vt 0.021164 0.647688
vt 0.321132 0.947623
vt 0.021180 0.947640
vt 0.502953 0.647662
vt 0.502969 0.947614
vt 0.772716 0.314274
vt 0.260796 0.003937
vt 0.772716 0.003937
vt 0.802921 0.947597
vt 0.802904 0.647646
vt 0.772716 0.624954
vt 0.260796 0.314617
vt 0.772716 0.314617
vt 0.984741 0.647636
vt 0.321115 0.647672
vt 0.260796 0.314274
vt 0.260796 0.624954
vt 0.984758 0.947588
vn 0.0000 1.0000 0.0000
vn 0.0000 0.0000 1.0000
vn -1.0000 0.0000 0.0000
vn 0.0000 -1.0000 0.0000
vn 1.0000 0.0000 0.0000
vn 0.0000 0.0000 -1.0000
s off
f 5/1/1 3/2/1 1/3/1
f 3/2/2 8/4/2 4/5/2
f 7/6/3 6/7/3 8/8/3
f 2/9/4 8/4/4 6/10/4
f 1/11/5 4/12/5 2/13/5
f 5/14/6 2/9/6 6/10/6
f 5/1/1 7/15/1 3/2/1
f 3/2/2 7/15/2 8/4/2
f 7/6/3 5/16/3 6/7/3
f 2/9/4 4/5/4 8/4/4
f 1/11/5 3/17/5 4/12/5
f 5/14/6 1/18/6 2/9/6
