# Blender v2.93.6 OBJ File: 'Big Bin.blend'
# www.blender.org
o Cube
v 1.000000 1.623260 -2.123204
v 1.000000 0.012352 -2.123204
v 1.000000 1.623260 2.123204
v 1.000000 0.012352 2.123204
v -0.999712 2.093222 -2.123380
v -1.000000 0.012352 -2.123204
v -0.999712 2.093222 2.123029
v -1.000000 0.012352 2.123204
v 1.028474 1.681919 -2.123555
v 1.028473 1.681919 2.122854
v 1.022760 1.790487 -2.123555
v 1.020528 1.832893 2.122854
v -0.998980 2.150961 -2.123555
v -1.001212 2.193367 2.122854
v 1.020528 1.832893 -0.000351
v -1.001212 2.193367 -0.000351
v -1.001212 2.193367 -1.061953
v 1.020528 1.832893 -1.061953
v 1.020528 1.832893 1.061251
v -1.001212 2.193367 1.061251
v -1.001212 2.193367 -1.592754
v 1.020528 1.832893 -1.592754
v 1.020528 1.832893 1.592052
v -1.001212 2.193367 1.592052
v -1.001212 2.193367 0.530450
v 1.020528 1.832893 0.530450
v 1.020528 1.832893 -0.531152
v -1.001212 2.193367 -0.531152
v 1.020528 1.832893 1.857453
v -1.001212 2.193367 1.857453
v -1.001212 2.193367 1.326652
v 1.020528 1.832893 1.326652
v 1.020528 1.832893 0.795851
v -1.001212 2.193367 0.795851
v -1.001212 2.193367 0.265050
v 1.020528 1.832893 0.265050
v 1.020528 1.832893 -0.265751
v -1.001212 2.193367 -0.265751
v -1.001212 2.193367 -0.796553
v 1.020528 1.832893 -0.796552
v 1.020528 1.832893 -1.327353
v -1.001212 2.193367 -1.327353
v -1.001212 2.193367 -1.858155
v 1.020528 1.832893 -1.858154
v -0.998848 2.148444 2.122854
v -0.998914 2.149703 -0.000351
v 1.022759 1.790487 1.061251
v 1.022760 1.790487 -1.592754
v -0.998947 2.150331 -1.061953
v -0.998923 2.149860 -0.265751
v -0.998931 2.150017 -0.531152
v -0.998955 2.150489 -1.327353
v -0.998881 2.149073 1.061251
v -0.998890 2.149230 0.795851
v -0.998865 2.148758 1.592052
v 1.022759 1.790487 -0.265751
v -0.998898 2.149388 0.530450
v -0.998856 2.148601 1.857453
v -0.998873 2.148916 1.326652
v 1.022769 1.790304 -1.858154
v -0.998964 2.150646 -1.592754
v 1.022866 1.788470 0.795851
v 1.022904 1.787737 1.857453
v 1.022817 1.789387 -0.531152
v 1.022895 1.787920 1.592052
v -0.998939 2.150174 -0.796553
v 1.022789 1.789937 -1.327353
v 1.022837 1.789020 -0.000351
v 1.022846 1.788837 0.265050
v 1.022885 1.788104 1.326652
v 1.022856 1.788654 0.530450
v -0.998906 2.149545 0.265050
v 1.022914 1.787553 2.122854
v 1.022798 1.789754 -1.061953
v 1.022808 1.789570 -0.796552
v -0.998972 2.150804 -1.858154
vt 0.089692 0.785452
vt 0.291055 0.535543
vt 0.291010 0.785487
vt 0.031004 0.535533
vt 0.291055 0.285599
vt 0.089711 0.035674
vt 0.291030 0.035655
vt 0.885827 0.539448
vt 0.573232 0.287667
vt 0.885827 0.287667
vt 0.540999 0.535543
vt 0.540999 0.285599
vt 0.462882 0.888605
vt 0.447342 0.631953
vt 0.462964 0.631958
vt 0.970865 0.744661
vt 0.928162 0.495093
vt 0.984446 0.744464
vt 0.929620 0.246100
vt 0.974481 -0.001550
vt 0.988293 -0.001202
vt 0.630962 0.888665
vt 0.615449 0.632012
vt 0.631071 0.632019
vt 0.714544 0.888668
vt 0.698947 0.632020
vt 0.714568 0.632022
vt 0.547076 0.888645
vt 0.531442 0.631999
vt 0.547064 0.631998
vt 0.756220 0.888670
vt 0.740594 0.632024
vt 0.756216 0.632024
vt 0.505017 0.888629
vt 0.489570 0.631972
vt 0.505191 0.631982
vt 0.589057 0.888650
vt 0.573492 0.632000
vt 0.589113 0.632004
vt 0.672791 0.888666
vt 0.657165 0.632019
vt 0.672786 0.632019
vt 0.651887 0.887434
vt 0.651862 0.630783
vt 0.735392 0.887457
vt 0.735425 0.630819
vt 0.986502 0.871386
vt 0.986248 0.853374
vt 0.928975 0.401739
vt 0.928839 0.417298
vt 0.914995 0.494997
vt 0.719770 0.887450
vt 0.484089 0.630690
vt 0.468338 0.887334
vt 0.468467 0.630677
vt 0.526275 0.630794
vt 0.510435 0.887369
vt 0.510651 0.630713
vt 0.568099 0.630742
vt 0.552454 0.887390
vt 0.552478 0.630736
vt 0.610104 0.630764
vt 0.594399 0.887406
vt 0.594483 0.630753
vt 0.636240 0.630816
vt 0.693688 0.630794
vt 0.678056 0.887438
vt 0.678066 0.630788
vt 0.719804 0.630802
vt 0.777028 0.630819
vt 0.761406 0.887461
vt 0.761406 0.630814
vt 0.610020 0.887416
vt 0.568076 0.887396
vt 0.526057 0.887387
vt 0.636265 0.887431
vt 0.693677 0.887443
vt 0.483960 0.887347
vt 0.631073 0.626712
vt 0.615452 0.626522
vt 0.714569 0.626646
vt 0.698947 0.626622
vt 0.531442 0.626692
vt 0.589114 0.626490
vt 0.573493 0.626464
vt 0.672786 0.626597
vt 0.657165 0.626575
vt 0.740594 0.626717
vt 0.589056 0.894135
vt 0.573436 0.888647
vt 0.462965 0.626307
vt 0.447344 0.626279
vt 0.505195 0.626377
vt 0.489573 0.626344
vt 0.714544 0.894034
vt 0.698923 0.888667
vt 0.462880 0.894207
vt 0.447261 0.888600
vt 0.672792 0.894071
vt 0.657170 0.888666
vt 0.505014 0.894191
vt 0.489396 0.888618
vt 0.756220 0.893997
vt 0.740598 0.888671
vt 0.547076 0.894168
vt 0.531454 0.888645
vt 0.630960 0.894110
vt 0.615341 0.888659
vt 0.441786 0.887322
vt 0.031004 0.285588
vt 0.573232 0.539448
vt 0.916165 0.246048
vt 0.988293 0.998303
vt 0.974127 0.998450
vt 0.988096 0.982441
vt 0.987900 0.966579
vt 0.984704 0.760022
vt 0.984961 0.775581
vt 0.985218 0.791139
vt 0.985476 0.806698
vt 0.987703 0.950717
vt 0.987507 0.934855
vt 0.985733 0.822256
vt 0.985990 0.837815
vt 0.987310 0.918993
vt 0.987114 0.903131
vt 0.986917 0.887270
vt 0.928930 0.370585
vt 0.929537 0.261571
vt 0.929499 0.277041
vt 0.929371 0.292512
vt 0.928297 0.479534
vt 0.928433 0.463975
vt 0.929287 0.307982
vt 0.929204 0.323453
vt 0.929120 0.338925
vt 0.929196 0.354397
vt 0.928568 0.448416
vt 0.928978 0.432858
vt 0.929110 0.386180
vt 0.777028 0.887466
vt 0.547064 0.626439
vt 0.756216 0.626694
vt 0.573434 0.894151
vt 0.698922 0.894052
vt 0.447259 0.894221
vt 0.657170 0.894091
vt 0.489392 0.894201
vt 0.740599 0.894017
vt 0.531455 0.894188
vt 0.615338 0.894123
vt 0.441816 0.630663
vn 0.0000 0.0000 1.0000
vn -1.0000 0.0001 0.0000
vn 0.0000 0.0000 -1.0000
vn 1.0000 0.0000 0.0000
vn 0.0000 -1.0000 0.0000
vn 0.1755 0.9845 0.0000
vn 0.0006 0.0032 1.0000
vn -0.0005 -0.0030 -1.0000
vn -0.9999 0.0156 0.0000
vn 0.9986 0.0526 0.0000
vn 0.1757 0.9844 0.0007
vn 0.1757 0.9844 0.0088
vn 0.1756 0.9845 0.0007
vn 0.1756 0.9845 -0.0040
vn 0.1756 0.9845 0.0020
vn 0.1755 0.9845 0.0007
vn -0.9986 -0.0526 0.0000
vn -0.9986 -0.0525 -0.0000
vn -0.0001 0.0001 1.0000
vn 0.0001 -0.0001 -1.0000
vn 0.0001 0.0000 1.0000
vn -0.0001 -0.0000 -1.0000
vn -0.9999 0.0127 0.0000
vn -0.9999 0.0141 0.0000
vn -0.9999 0.0126 0.0000
vn 0.9986 0.0525 0.0000
vn 0.1757 0.9844 0.0006
vn 0.1746 0.9846 0.0006
vn 0.1757 0.9845 0.0006
vn 0.1756 0.9845 0.0006
vn 0.1750 0.9846 0.0006
vn 0.1754 0.9845 0.0006
vn 0.1755 0.9845 0.0006
s off
f 3/1/1 8/2/1 4/3/1
f 7/4/2 6/5/2 8/2/2
f 6/5/3 1/6/3 2/7/3
f 1/8/4 4/9/4 2/10/4
f 4/11/5 6/5/5 2/12/5
f 30/13/6 12/14/6 29/15/6
f 7/16/7 73/17/7 45/18/7
f 11/19/8 5/20/8 13/21/8
f 38/22/6 15/23/6 37/24/6
f 42/25/6 18/26/6 41/27/6
f 34/28/6 19/29/6 33/30/6
f 43/31/6 22/32/6 44/33/6
f 31/34/6 23/35/6 32/36/6
f 35/37/6 26/38/6 36/39/6
f 39/40/6 27/41/6 40/42/6
f 27/41/1 51/43/1 64/44/1
f 22/32/1 61/45/1 48/46/1
f 46/47/9 7/16/9 72/48/9
f 71/49/10 62/50/10 10/51/10
f 41/27/3 52/52/3 42/25/3
f 65/53/11 58/54/11 63/55/11
f 47/56/12 59/57/12 70/58/12
f 71/59/11 54/60/11 62/61/11
f 68/62/13 72/63/13 69/64/13
f 51/43/14 56/65/14 64/44/14
f 74/66/13 66/67/13 75/68/13
f 48/46/15 52/52/15 67/69/15
f 11/70/16 76/71/16 60/72/16
f 33/30/3 54/60/3 34/28/3
f 15/23/1 46/73/1 68/62/1
f 40/42/3 66/67/3 39/40/3
f 26/38/1 57/74/1 71/59/1
f 32/36/3 59/57/3 31/34/3
f 19/29/1 53/75/1 47/56/1
f 37/24/3 50/76/3 38/22/3
f 18/26/1 49/77/1 74/66/1
f 44/33/3 76/71/3 43/31/3
f 36/39/3 72/63/3 35/37/3
f 23/35/1 55/78/1 65/53/1
f 29/15/3 58/54/3 30/13/3
f 56/79/10 15/23/10 68/80/10
f 67/81/10 18/26/10 74/82/10
f 47/83/10 33/30/10 19/29/10
f 69/84/10 26/38/10 71/85/10
f 75/86/10 27/41/10 64/87/10
f 48/88/10 44/33/10 22/32/10
f 72/89/17 25/90/17 35/37/17
f 63/91/10 12/14/10 73/92/10
f 70/93/10 23/35/10 65/94/10
f 52/95/17 17/96/17 42/25/17
f 58/97/18 14/98/18 30/13/18
f 66/99/17 28/100/17 39/40/17
f 59/101/17 24/102/17 31/34/17
f 76/103/17 21/104/17 43/31/17
f 54/105/17 20/106/17 34/28/17
f 50/107/17 16/108/17 38/22/17
f 45/109/1 12/14/1 14/98/1
f 3/1/19 7/4/19 8/2/19
f 7/4/2 5/110/2 6/5/2
f 6/5/20 5/110/20 1/6/20
f 1/8/4 3/111/4 4/9/4
f 4/11/5 8/2/5 6/5/5
f 30/13/6 14/98/6 12/14/6
f 7/16/21 10/51/21 73/17/21
f 11/19/22 9/112/22 5/20/22
f 38/22/6 16/108/6 15/23/6
f 42/25/6 17/96/6 18/26/6
f 34/28/6 20/106/6 19/29/6
f 43/31/6 21/104/6 22/32/6
f 31/34/6 24/102/6 23/35/6
f 35/37/6 25/90/6 26/38/6
f 39/40/6 28/100/6 27/41/6
f 27/41/1 28/100/1 51/43/1
f 22/32/1 21/104/1 61/45/1
f 13/113/23 5/114/23 76/115/23
f 5/114/24 7/16/24 46/47/24
f 76/115/23 5/114/23 61/116/23
f 7/16/9 45/18/9 58/117/9
f 55/118/9 59/119/9 7/16/9
f 59/119/9 53/120/9 7/16/9
f 7/16/9 58/117/9 55/118/9
f 61/116/23 5/114/23 52/121/23
f 52/121/23 5/114/23 49/122/23
f 54/123/9 57/124/9 7/16/9
f 57/124/9 72/48/9 7/16/9
f 7/16/9 53/120/9 54/123/9
f 66/125/23 5/114/23 51/126/23
f 66/125/23 49/122/23 5/114/23
f 46/47/25 50/127/25 5/114/25
f 50/127/23 51/126/23 5/114/23
f 10/51/10 9/112/10 68/128/10
f 9/112/10 11/19/10 60/129/10
f 60/129/10 48/130/10 9/112/10
f 48/130/10 67/131/10 9/112/10
f 63/132/10 73/17/10 10/51/10
f 65/133/10 63/132/10 10/51/10
f 9/112/26 67/131/26 74/134/26
f 75/135/10 9/112/10 74/134/10
f 64/136/10 56/137/10 9/112/10
f 56/137/10 68/128/10 9/112/10
f 9/112/10 75/135/10 64/136/10
f 70/138/10 65/133/10 10/51/10
f 62/50/26 47/139/26 10/51/26
f 47/139/10 70/138/10 10/51/10
f 68/128/26 69/140/26 10/51/26
f 69/140/10 71/49/10 10/51/10
f 41/27/3 67/69/3 52/52/3
f 65/53/27 55/78/27 58/54/27
f 47/56/28 53/75/28 59/57/28
f 71/59/29 57/74/29 54/60/29
f 68/62/30 46/73/30 72/63/30
f 51/43/31 50/76/31 56/65/31
f 74/66/30 49/77/30 66/67/30
f 48/46/32 61/45/32 52/52/32
f 11/70/33 13/141/33 76/71/33
f 33/30/3 62/61/3 54/60/3
f 15/23/1 16/108/1 46/73/1
f 40/42/3 75/68/3 66/67/3
f 26/38/1 25/90/1 57/74/1
f 32/36/3 70/58/3 59/57/3
f 19/29/1 20/106/1 53/75/1
f 37/24/3 56/65/3 50/76/3
f 18/26/1 17/96/1 49/77/1
f 44/33/3 60/72/3 76/71/3
f 36/39/3 69/64/3 72/63/3
f 23/35/1 24/102/1 55/78/1
f 29/15/3 63/55/3 58/54/3
f 56/79/10 37/24/10 15/23/10
f 67/81/10 41/27/10 18/26/10
f 47/83/10 62/142/10 33/30/10
f 69/84/10 36/39/10 26/38/10
f 75/86/10 40/42/10 27/41/10
f 48/88/10 60/143/10 44/33/10
f 72/89/17 57/144/17 25/90/17
f 63/91/10 29/15/10 12/14/10
f 70/93/10 32/36/10 23/35/10
f 52/95/17 49/145/17 17/96/17
f 58/97/17 45/146/17 14/98/17
f 66/99/17 51/147/17 28/100/17
f 59/101/17 55/148/17 24/102/17
f 76/103/17 61/149/17 21/104/17
f 54/105/17 53/150/17 20/106/17
f 50/107/17 46/151/17 16/108/17
f 45/109/1 73/152/1 12/14/1
