{
    "asset" : {
        "generator" : "Khronos glTF Blender I/O v1.4.40",
        "version" : "2.0"
    },
    "scene" : 0,
    "scenes" : [
        {
            "name" : "Scene",
            "nodes" : [
                0,
                1,
                2
            ]
        }
    ],
    "nodes" : [
        {
            "name" : "Light",
            "rotation" : [
                0.16907575726509094,
                0.7558803558349609,
                -0.27217137813568115,
                0.570947527885437
            ],
            "translation" : [
                4.553158283233643,
                6.230246067047119,
                1.3161417245864868
            ]
        },
        {
            "name" : "Camera",
            "rotation" : [
                0.483536034822464,
                0.33687159419059753,
                -0.20870360732078552,
                0.7804827094078064
            ],
            "translation" : [
                7.358891487121582,
                4.958309173583984,
                6.925790786743164
            ]
        },
        {
            "mesh" : 0,
            "name" : "Plane.001",
            "scale" : [
                -0.8078674077987671,
                0.8078674077987671,
                0.8078674077987671
            ],
            "translation" : [
                -0.21894153952598572,
                2.1322131156921387,
                1.2735506296157837
            ]
        }
    ],
    "materials" : [
        {
            "doubleSided" : true,
            "name" : "Material.002",
            "pbrMetallicRoughness" : {
                "metallicFactor" : 0,
                "roughnessFactor" : 0.5
            }
        },
        {
            "doubleSided" : true,
            "name" : "Material.001",
            "pbrMetallicRoughness" : {
                "metallicFactor" : 0,
                "roughnessFactor" : 0.5
            }
        },
        {
            "doubleSided" : true,
            "name" : "Material.003",
            "pbrMetallicRoughness" : {
                "metallicFactor" : 0,
                "roughnessFactor" : 0.5
            }
        },
        {
            "doubleSided" : true,
            "name" : "Material.004",
            "pbrMetallicRoughness" : {
                "metallicFactor" : 0,
                "roughnessFactor" : 0.5
            }
        },
        {
            "doubleSided" : true,
            "name" : "Material.005",
            "pbrMetallicRoughness" : {
                "metallicFactor" : 0,
                "roughnessFactor" : 0.5
            }
        },
        {
            "doubleSided" : true,
            "name" : "Material.006",
            "pbrMetallicRoughness" : {
                "metallicFactor" : 0,
                "roughnessFactor" : 0.5
            }
        }
    ],
    "meshes" : [
        {
            "name" : "Plane.001",
            "primitives" : [
                {
                    "attributes" : {
                        "POSITION" : 0,
                        "NORMAL" : 1,
                        "TEXCOORD_0" : 2
                    },
                    "indices" : 3,
                    "material" : 0
                },
                {
                    "attributes" : {
                        "POSITION" : 4,
                        "NORMAL" : 5,
                        "TEXCOORD_0" : 6
                    },
                    "indices" : 7,
                    "material" : 1
                },
                {
                    "attributes" : {
                        "POSITION" : 8,
                        "NORMAL" : 9,
                        "TEXCOORD_0" : 10
                    },
                    "indices" : 11,
                    "material" : 2
                },
                {
                    "attributes" : {
                        "POSITION" : 12,
                        "NORMAL" : 13,
                        "TEXCOORD_0" : 14
                    },
                    "indices" : 15,
                    "material" : 3
                },
                {
                    "attributes" : {
                        "POSITION" : 16,
                        "NORMAL" : 17,
                        "TEXCOORD_0" : 18
                    },
                    "indices" : 19,
                    "material" : 4
                },
                {
                    "attributes" : {
                        "POSITION" : 20,
                        "NORMAL" : 21,
                        "TEXCOORD_0" : 22
                    },
                    "indices" : 23,
                    "material" : 5
                }
            ]
        }
    ],
    "accessors" : [
        {
            "bufferView" : 0,
            "componentType" : 5126,
            "count" : 62,
            "max" : [
                0.23739907145500183,
                0.13075947761535645,
                0.2785220742225647
            ],
            "min" : [
                -0.19571217894554138,
                -0.1690671443939209,
                -0.22853350639343262
            ],
            "type" : "VEC3"
        },
        {
            "bufferView" : 1,
            "componentType" : 5126,
            "count" : 62,
            "type" : "VEC3"
        },
        {
            "bufferView" : 2,
            "componentType" : 5126,
            "count" : 62,
            "type" : "VEC2"
        },
        {
            "bufferView" : 3,
            "componentType" : 5123,
            "count" : 90,
            "type" : "SCALAR"
        },
        {
            "bufferView" : 4,
            "componentType" : 5126,
            "count" : 6312,
            "max" : [
                0.44275957345962524,
                0.6849195957183838,
                -0.19474852085113525
            ],
            "min" : [
                -0.5980203151702881,
                -2.4985239505767822,
                -2.7180697917938232
            ],
            "type" : "VEC3"
        },
        {
            "bufferView" : 5,
            "componentType" : 5126,
            "count" : 6312,
            "type" : "VEC3"
        },
        {
            "bufferView" : 6,
            "componentType" : 5126,
            "count" : 6312,
            "type" : "VEC2"
        },
        {
            "bufferView" : 7,
            "componentType" : 5123,
            "count" : 9492,
            "type" : "SCALAR"
        },
        {
            "bufferView" : 8,
            "componentType" : 5126,
            "count" : 386,
            "max" : [
                -0.042821139097213745,
                -2.1327099800109863,
                -1.3277831077575684
            ],
            "min" : [
                -0.5299710035324097,
                -2.6198599338531494,
                -1.8149330615997314
            ],
            "type" : "VEC3"
        },
        {
            "bufferView" : 9,
            "componentType" : 5126,
            "count" : 386,
            "type" : "VEC3"
        },
        {
            "bufferView" : 10,
            "componentType" : 5126,
            "count" : 386,
            "type" : "VEC2"
        },
        {
            "bufferView" : 11,
            "componentType" : 5123,
            "count" : 756,
            "type" : "SCALAR"
        },
        {
            "bufferView" : 12,
            "componentType" : 5126,
            "count" : 62,
            "max" : [
                0.38075482845306396,
                -0.3116271495819092,
                -0.7771244645118713
            ],
            "min" : [
                -0.1828611195087433,
                -0.4786031246185303,
                -1.2449150085449219
            ],
            "type" : "VEC3"
        },
        {
            "bufferView" : 13,
            "componentType" : 5126,
            "count" : 62,
            "type" : "VEC3"
        },
        {
            "bufferView" : 14,
            "componentType" : 5126,
            "count" : 62,
            "type" : "VEC2"
        },
        {
            "bufferView" : 15,
            "componentType" : 5123,
            "count" : 90,
            "type" : "SCALAR"
        },
        {
            "bufferView" : 16,
            "componentType" : 5126,
            "count" : 62,
            "max" : [
                -0.10498510301113129,
                -0.9724134206771851,
                -1.5288058519363403
            ],
            "min" : [
                -0.6457713842391968,
                -1.306106686592102,
                -1.9534989595413208
            ],
            "type" : "VEC3"
        },
        {
            "bufferView" : 17,
            "componentType" : 5126,
            "count" : 62,
            "type" : "VEC3"
        },
        {
            "bufferView" : 18,
            "componentType" : 5126,
            "count" : 62,
            "type" : "VEC2"
        },
        {
            "bufferView" : 19,
            "componentType" : 5123,
            "count" : 90,
            "type" : "SCALAR"
        },
        {
            "bufferView" : 20,
            "componentType" : 5126,
            "count" : 62,
            "max" : [
                0.6601426601409912,
                -0.5924922227859497,
                -2.6913158893585205
            ],
            "min" : [
                0.31812411546707153,
                -0.7718610763549805,
                -3.3728747367858887
            ],
            "type" : "VEC3"
        },
        {
            "bufferView" : 21,
            "componentType" : 5126,
            "count" : 62,
            "type" : "VEC3"
        },
        {
            "bufferView" : 22,
            "componentType" : 5126,
            "count" : 62,
            "type" : "VEC2"
        },
        {
            "bufferView" : 23,
            "componentType" : 5123,
            "count" : 90,
            "type" : "SCALAR"
        }
    ],
    "bufferViews" : [
        {
            "buffer" : 0,
            "byteLength" : 744,
            "byteOffset" : 0
        },
        {
            "buffer" : 0,
            "byteLength" : 744,
            "byteOffset" : 744
        },
        {
            "buffer" : 0,
            "byteLength" : 496,
            "byteOffset" : 1488
        },
        {
            "buffer" : 0,
            "byteLength" : 180,
            "byteOffset" : 1984
        },
        {
            "buffer" : 0,
            "byteLength" : 75744,
            "byteOffset" : 2164
        },
        {
            "buffer" : 0,
            "byteLength" : 75744,
            "byteOffset" : 77908
        },
        {
            "buffer" : 0,
            "byteLength" : 50496,
            "byteOffset" : 153652
        },
        {
            "buffer" : 0,
            "byteLength" : 18984,
            "byteOffset" : 204148
        },
        {
            "buffer" : 0,
            "byteLength" : 4632,
            "byteOffset" : 223132
        },
        {
            "buffer" : 0,
            "byteLength" : 4632,
            "byteOffset" : 227764
        },
        {
            "buffer" : 0,
            "byteLength" : 3088,
            "byteOffset" : 232396
        },
        {
            "buffer" : 0,
            "byteLength" : 1512,
            "byteOffset" : 235484
        },
        {
            "buffer" : 0,
            "byteLength" : 744,
            "byteOffset" : 236996
        },
        {
            "buffer" : 0,
            "byteLength" : 744,
            "byteOffset" : 237740
        },
        {
            "buffer" : 0,
            "byteLength" : 496,
            "byteOffset" : 238484
        },
        {
            "buffer" : 0,
            "byteLength" : 180,
            "byteOffset" : 238980
        },
        {
            "buffer" : 0,
            "byteLength" : 744,
            "byteOffset" : 239160
        },
        {
            "buffer" : 0,
            "byteLength" : 744,
            "byteOffset" : 239904
        },
        {
            "buffer" : 0,
            "byteLength" : 496,
            "byteOffset" : 240648
        },
        {
            "buffer" : 0,
            "byteLength" : 180,
            "byteOffset" : 241144
        },
        {
            "buffer" : 0,
            "byteLength" : 744,
            "byteOffset" : 241324
        },
        {
            "buffer" : 0,
            "byteLength" : 744,
            "byteOffset" : 242068
        },
        {
            "buffer" : 0,
            "byteLength" : 496,
            "byteOffset" : 242812
        },
        {
            "buffer" : 0,
            "byteLength" : 180,
            "byteOffset" : 243308
        }
    ],
    "buffers" : [
        {
            "byteLength" : 243488,
            "uri" : "plante.bin"
        }
    ]
}
